<svg id="Back" xmlns="http://www.w3.org/2000/svg" viewBox="0 0 358.915 72.221"><defs><style>.cls-1{fill:#51a075;}.cls-2{fill:#76939e;}.cls-3{fill:#fff;}.cls-4{fill:#91adb5;}.cls-5{fill:#d3e5ea;}.cls-6{fill:#ffe9cf;}.cls-7{fill:#939598;}.cls-8{fill:#fff3e2;}.cls-9{fill:#fffcf8;}.cls-10{fill:#c7d5d8;}.cls-11{fill:#76949b;}.cls-12{fill:#f1f2f2;}.cls-13{fill:#c6dbe0;}.cls-14{fill:#adc5c9;}.cls-15,.cls-25,.cls-28{fill:#231f20;}.cls-15{opacity:0.3;}.cls-16{fill:#96bd5d;}.cls-17{fill:#b7d385;}.cls-18{fill:#69843a;}.cls-19{fill:#cdea98;}.cls-20{fill:#ff5a83;}.cls-21{fill:#ffb3c9;}.cls-22{fill:#8285a8;}.cls-23{fill:#646b91;}.cls-24{fill:#d8d8d8;}.cls-25{opacity:0.2;}.cls-26{fill:#ff80a4;}.cls-27{fill:#c5c5c5;}.cls-28{opacity:0.1;}.cls-29{fill:#ececec;}.cls-30{fill:#fafafa;}.cls-31{fill:#c7d9dd;}.cls-32{fill:#51a175;}.cls-33{fill:#ffd6ae;}.cls-34{fill:#ffbb83;}</style></defs><title>header</title><g id="_Group_" data-name="&lt;Group&gt;"><path id="_Path_" data-name="&lt;Path&gt;" class="cls-1" d="M267.3,65.081c0,3.477-3.047,6.333-7,6.772V71.91H222.564c-4.441,0-8.042-3.056-8.042-6.829a6.347,6.347,0,0,1,2.359-4.833,8.777,8.777,0,0,1,5.683-2V58.214a5.825,5.825,0,0,1,2.684-4.9A7.868,7.868,0,0,1,234.446,42a5.824,5.824,0,0,1,5.568-4.117,5.825,5.825,0,0,1,5.807,5.817,5.574,5.574,0,0,1-.038.7,5.8,5.8,0,0,1,7.335,4.126,7.863,7.863,0,0,1,10.144,10.631A6.709,6.709,0,0,1,267.3,65.081Z"/></g><g id="_Group_2" data-name="&lt;Group&gt;"><path id="_Path_2" data-name="&lt;Path&gt;" class="cls-1" d="M162.64,64.629c0,3.706-3.248,6.751-7.464,7.22V71.91H114.945c-4.735,0-8.574-3.258-8.574-7.281a6.767,6.767,0,0,1,2.515-5.152,9.357,9.357,0,0,1,6.059-2.128V57.308a6.21,6.21,0,0,1,2.861-5.224,8.388,8.388,0,0,1,9.806-12.056,6.209,6.209,0,0,1,5.937-4.389,6.21,6.21,0,0,1,6.191,6.2,5.943,5.943,0,0,1-.041.743,6.184,6.184,0,0,1,7.82,4.4,8.383,8.383,0,0,1,10.814,11.333A7.152,7.152,0,0,1,162.64,64.629Z"/></g><polygon class="cls-2" points="10.651 72.043 58.583 12.631 106.573 72.043 10.651 72.043"/><polygon class="cls-3" points="45.331 29.058 51.996 34.986 58.583 29.095 64.308 34.986 71.534 28.434 58.583 12.631 45.331 29.058"/><polygon class="cls-4" points="56.873 72.043 91.091 29.63 125.351 72.043 56.873 72.043"/><polygon class="cls-3" points="81.618 41.357 86.376 45.588 91.079 41.383 95.166 45.588 100.324 40.911 91.079 29.63 81.618 41.357"/><polygon class="cls-2" points="358.915 72.043 311.947 13.826 264.921 72.043 358.915 72.043"/><polygon class="cls-3" points="324.933 29.922 318.401 35.731 311.947 29.958 306.337 35.731 299.257 29.311 311.947 13.826 324.933 29.922"/><polygon class="cls-4" points="321.579 72.043 273.071 11.917 224.504 72.043 321.579 72.043"/><polygon class="cls-3" points="286.483 28.541 279.737 34.54 273.071 28.578 267.277 34.54 260.074 28.008 273.071 11.917 286.483 28.541"/><g id="_Group_3" data-name="&lt;Group&gt;"><g id="_Group_4" data-name="&lt;Group&gt;"><g id="_Group_5" data-name="&lt;Group&gt;"><g id="_Group_6" data-name="&lt;Group&gt;"><path class="cls-3" d="M174.683,9.886l9.821,9.537V71.78H137.994V13.827a3.94,3.94,0,0,1,3.941-3.941h32.749Z"/></g></g></g><g id="_Group_7" data-name="&lt;Group&gt;"><g id="_Group_8" data-name="&lt;Group&gt;"><g id="_Group_9" data-name="&lt;Group&gt;"><polygon class="cls-5" points="175.266 18.433 184.504 28.998 184.504 19.423 175.266 18.433"/></g></g></g><g id="_Group_10" data-name="&lt;Group&gt;"><g id="_Group_11" data-name="&lt;Group&gt;"><g id="_Group_12" data-name="&lt;Group&gt;"><path class="cls-6" d="M174.683,9.886l9.821,9.537h-7.2a2.62,2.62,0,0,1-2.62-2.62V9.886Z"/></g></g></g><g id="_Group_13" data-name="&lt;Group&gt;"><rect class="cls-5" x="143.699" y="24.93" width="35.074" height="42.533" transform="translate(322.473 92.393) rotate(180)"/></g><g id="_Group_14" data-name="&lt;Group&gt;"><rect class="cls-3" x="143.699" y="24.93" width="8.704" height="42.533" transform="translate(296.103 92.393) rotate(180)"/></g><g id="_Group_15" data-name="&lt;Group&gt;"><rect class="cls-5" x="143.699" y="24.93" width="35.074" height="7.795" transform="translate(322.473 57.655) rotate(180)"/></g><g id="_Group_16" data-name="&lt;Group&gt;"><path class="cls-4" d="M177.464,68.078H145.008a1.926,1.926,0,0,1-1.923-1.925V26.239a1.926,1.926,0,0,1,1.923-1.925h32.456a1.927,1.927,0,0,1,1.925,1.925V66.153A1.927,1.927,0,0,1,177.464,68.078ZM145.008,25.545a0.694,0.694,0,0,0-.692.694V66.153a0.694,0.694,0,0,0,.692.694h32.456a0.694,0.694,0,0,0,.694-0.694V26.239a0.694,0.694,0,0,0-.694-0.694H145.008Z"/></g><g id="_Group_17" data-name="&lt;Group&gt;"><rect class="cls-4" x="143.7" y="32.11" width="35.073" height="1.231"/></g><g id="_Group_18" data-name="&lt;Group&gt;"><rect class="cls-4" x="143.713" y="36.452" width="35.073" height="1.231"/></g><g id="_Group_19" data-name="&lt;Group&gt;"><rect class="cls-4" x="151.789" y="32.725" width="1.231" height="34.737"/></g><g id="_Group_20" data-name="&lt;Group&gt;"><rect class="cls-4" x="143.726" y="40.794" width="35.073" height="1.231"/></g><g id="_Group_21" data-name="&lt;Group&gt;"><rect class="cls-4" x="143.737" y="45.137" width="35.075" height="1.231"/></g><g id="_Group_22" data-name="&lt;Group&gt;"><rect class="cls-4" x="143.75" y="49.479" width="35.075" height="1.231"/></g><g id="_Group_23" data-name="&lt;Group&gt;"><rect class="cls-7" x="143.762" y="53.821" width="35.075" height="1.231"/></g><g id="_Group_24" data-name="&lt;Group&gt;"><rect class="cls-7" x="143.775" y="58.163" width="35.075" height="1.231"/></g><g id="_Group_25" data-name="&lt;Group&gt;"><rect class="cls-7" x="143.788" y="62.506" width="35.075" height="1.231"/></g><g id="_Group_26" data-name="&lt;Group&gt;"><path class="cls-5" d="M159.7,22.021h-14.66a1.317,1.317,0,0,1-1.317-1.317h0a1.317,1.317,0,0,1,1.317-1.317H159.7A1.317,1.317,0,0,1,161.02,20.7h0A1.317,1.317,0,0,1,159.7,22.021Z"/></g></g><g id="_Group_27" data-name="&lt;Group&gt;"><rect id="_Rectangle_" data-name="&lt;Rectangle&gt;" class="cls-8" x="292.692" y="14.719" width="40.419" height="57.081"/><rect id="_Rectangle_2" data-name="&lt;Rectangle&gt;" class="cls-4" x="330.709" y="14.719" width="2.403" height="57.081"/><rect id="_Rectangle_3" data-name="&lt;Rectangle&gt;" class="cls-4" x="292.692" y="14.719" width="2.466" height="57.081"/><rect id="_Rectangle_4" data-name="&lt;Rectangle&gt;" class="cls-9" x="297.493" y="18.724" width="5.088" height="5.088"/><rect id="_Rectangle_5" data-name="&lt;Rectangle&gt;" class="cls-9" x="306.128" y="18.724" width="5.088" height="5.088"/><rect id="_Rectangle_6" data-name="&lt;Rectangle&gt;" class="cls-9" x="314.763" y="18.724" width="5.088" height="5.088"/><rect id="_Rectangle_7" data-name="&lt;Rectangle&gt;" class="cls-9" x="323.398" y="18.724" width="5.088" height="5.088"/><rect id="_Rectangle_8" data-name="&lt;Rectangle&gt;" class="cls-9" x="297.45" y="27.653" width="5.088" height="5.088"/><rect id="_Rectangle_9" data-name="&lt;Rectangle&gt;" class="cls-9" x="306.085" y="27.653" width="5.088" height="5.088"/><rect id="_Rectangle_10" data-name="&lt;Rectangle&gt;" class="cls-9" x="314.72" y="27.653" width="5.088" height="5.088"/><rect id="_Rectangle_11" data-name="&lt;Rectangle&gt;" class="cls-9" x="323.355" y="27.653" width="5.088" height="5.088"/><rect id="_Rectangle_12" data-name="&lt;Rectangle&gt;" class="cls-9" x="297.406" y="36.581" width="5.088" height="5.088"/><rect id="_Rectangle_13" data-name="&lt;Rectangle&gt;" class="cls-9" x="306.042" y="36.581" width="5.088" height="5.088"/><rect id="_Rectangle_14" data-name="&lt;Rectangle&gt;" class="cls-9" x="314.677" y="36.581" width="5.088" height="5.088"/><rect id="_Rectangle_15" data-name="&lt;Rectangle&gt;" class="cls-9" x="323.312" y="36.581" width="5.088" height="5.088"/><rect id="_Rectangle_16" data-name="&lt;Rectangle&gt;" class="cls-9" x="297.363" y="45.51" width="5.088" height="5.088"/><rect id="_Rectangle_17" data-name="&lt;Rectangle&gt;" class="cls-9" x="305.998" y="45.51" width="5.088" height="5.088"/><rect id="_Rectangle_18" data-name="&lt;Rectangle&gt;" class="cls-9" x="314.633" y="45.51" width="5.088" height="5.088"/><rect id="_Rectangle_19" data-name="&lt;Rectangle&gt;" class="cls-9" x="323.268" y="45.51" width="5.088" height="5.088"/><rect id="_Rectangle_20" data-name="&lt;Rectangle&gt;" class="cls-9" x="297.32" y="54.439" width="5.088" height="5.088"/><rect id="_Rectangle_21" data-name="&lt;Rectangle&gt;" class="cls-9" x="305.955" y="54.439" width="5.088" height="5.088"/><rect id="_Rectangle_22" data-name="&lt;Rectangle&gt;" class="cls-9" x="314.59" y="54.439" width="5.088" height="5.088"/><rect id="_Rectangle_23" data-name="&lt;Rectangle&gt;" class="cls-9" x="323.225" y="54.439" width="5.088" height="5.088"/><rect id="_Rectangle_24" data-name="&lt;Rectangle&gt;" class="cls-9" x="307.311" y="63.375" width="11.261" height="8.425"/><rect id="_Rectangle_25" data-name="&lt;Rectangle&gt;" class="cls-4" x="296.604" y="23.164" width="6.386" height="1"/><rect id="_Rectangle_26" data-name="&lt;Rectangle&gt;" class="cls-4" x="305.374" y="23.164" width="6.386" height="1"/><rect id="_Rectangle_27" data-name="&lt;Rectangle&gt;" class="cls-4" x="314.131" y="23.164" width="6.386" height="1"/><rect id="_Rectangle_28" data-name="&lt;Rectangle&gt;" class="cls-4" x="322.875" y="23.164" width="6.386" height="1"/><rect id="_Rectangle_29" data-name="&lt;Rectangle&gt;" class="cls-4" x="296.604" y="32.241" width="6.386" height="1"/><rect id="_Rectangle_30" data-name="&lt;Rectangle&gt;" class="cls-4" x="305.371" y="32.241" width="6.386" height="1"/><rect id="_Rectangle_31" data-name="&lt;Rectangle&gt;" class="cls-4" x="314.128" y="32.241" width="6.386" height="1"/><rect id="_Rectangle_32" data-name="&lt;Rectangle&gt;" class="cls-4" x="322.875" y="32.241" width="6.386" height="1"/><rect id="_Rectangle_33" data-name="&lt;Rectangle&gt;" class="cls-4" x="296.604" y="41.317" width="6.386" height="1"/><rect id="_Rectangle_34" data-name="&lt;Rectangle&gt;" class="cls-4" x="305.367" y="41.317" width="6.386" height="1"/><rect id="_Rectangle_35" data-name="&lt;Rectangle&gt;" class="cls-4" x="314.125" y="41.317" width="6.386" height="1"/><rect id="_Rectangle_36" data-name="&lt;Rectangle&gt;" class="cls-4" x="322.875" y="41.317" width="6.386" height="1"/><rect id="_Rectangle_37" data-name="&lt;Rectangle&gt;" class="cls-4" x="296.604" y="50.393" width="6.386" height="1"/><rect id="_Rectangle_38" data-name="&lt;Rectangle&gt;" class="cls-4" x="305.364" y="50.393" width="6.386" height="1"/><rect id="_Rectangle_39" data-name="&lt;Rectangle&gt;" class="cls-4" x="314.121" y="50.393" width="6.386" height="1"/><rect id="_Rectangle_40" data-name="&lt;Rectangle&gt;" class="cls-4" x="322.875" y="50.393" width="6.386" height="1"/><rect id="_Rectangle_41" data-name="&lt;Rectangle&gt;" class="cls-4" x="296.604" y="59.469" width="6.386" height="1"/><rect id="_Rectangle_42" data-name="&lt;Rectangle&gt;" class="cls-4" x="305.361" y="59.469" width="6.386" height="1"/><rect id="_Rectangle_43" data-name="&lt;Rectangle&gt;" class="cls-4" x="314.118" y="59.469" width="6.386" height="1"/><rect id="_Rectangle_44" data-name="&lt;Rectangle&gt;" class="cls-4" x="322.875" y="59.469" width="6.386" height="1"/><rect id="_Rectangle_45" data-name="&lt;Rectangle&gt;" class="cls-3" x="292.692" y="11.223" width="40.419" height="3.496"/></g><g id="_Group_28" data-name="&lt;Group&gt;"><rect id="_Rectangle_46" data-name="&lt;Rectangle&gt;" class="cls-4" x="175.498" y="29.846" width="49.208" height="39.568"/><g id="_Group_29" data-name="&lt;Group&gt;"><rect id="_Path_3" data-name="&lt;Path&gt;" class="cls-10" x="197.246" y="35.755" width="6.037" height="27.98"/><rect id="_Path_4" data-name="&lt;Path&gt;" class="cls-3" x="197.246" y="35.755" width="2.114" height="27.98"/><rect id="_Path_5" data-name="&lt;Path&gt;" class="cls-11" x="201.169" y="35.755" width="2.114" height="27.98"/><rect id="_Path_6" data-name="&lt;Path&gt;" class="cls-10" x="196.298" y="33.676" width="7.968" height="2.368"/><rect id="_Path_7" data-name="&lt;Path&gt;" class="cls-10" x="196.298" y="63.046" width="7.968" height="2.365"/></g><rect id="_Path_8" data-name="&lt;Path&gt;" class="cls-10" x="172.499" y="65.27" width="56.233" height="1.926"/><path id="_Path_9" data-name="&lt;Path&gt;" class="cls-3" d="M169.544,31.512V33.2a0.454,0.454,0,0,0,.454.454h60.568a0.454,0.454,0,0,0,.454-0.454V31.512a0.455,0.455,0,0,0-.216-0.387l-29.7-18.331a1.544,1.544,0,0,0-1.651,0l-29.7,18.331A0.455,0.455,0,0,0,169.544,31.512Z"/><path id="_Path_10" data-name="&lt;Path&gt;" class="cls-4" d="M178.9,28.87v1.707h42.764V28.87l-20.557-13a1.544,1.544,0,0,0-1.651,0Z"/><circle id="_Path_11" data-name="&lt;Path&gt;" class="cls-3" cx="200.282" cy="24.003" r="3.924"/><rect id="_Path_12" data-name="&lt;Path&gt;" class="cls-4" x="171.468" y="66.465" width="58.388" height="2.949"/><rect id="_Path_13" data-name="&lt;Path&gt;" class="cls-3" x="170.256" y="68.084" width="60.052" height="3.963"/><g id="_Group_30" data-name="&lt;Group&gt;"><rect id="_Path_14" data-name="&lt;Path&gt;" class="cls-10" x="174.767" y="35.755" width="6.037" height="27.98"/><rect id="_Path_15" data-name="&lt;Path&gt;" class="cls-3" x="174.767" y="35.755" width="2.114" height="27.98"/><rect id="_Path_16" data-name="&lt;Path&gt;" class="cls-11" x="178.69" y="35.755" width="2.114" height="27.98"/><rect id="_Path_17" data-name="&lt;Path&gt;" class="cls-10" x="173.818" y="33.676" width="7.968" height="2.368"/><rect id="_Path_18" data-name="&lt;Path&gt;" class="cls-12" x="173.818" y="63.046" width="7.968" height="2.365"/></g><g id="_Group_31" data-name="&lt;Group&gt;"><rect id="_Path_19" data-name="&lt;Path&gt;" class="cls-10" x="219.725" y="35.755" width="6.037" height="27.98"/><rect id="_Path_20" data-name="&lt;Path&gt;" class="cls-3" x="219.725" y="35.755" width="2.114" height="27.98"/><rect id="_Path_21" data-name="&lt;Path&gt;" class="cls-11" x="223.648" y="35.755" width="2.114" height="27.98"/><rect id="_Path_22" data-name="&lt;Path&gt;" class="cls-10" x="218.777" y="33.676" width="7.968" height="2.368"/><rect id="_Path_23" data-name="&lt;Path&gt;" class="cls-10" x="218.777" y="63.046" width="7.968" height="2.365"/></g></g><g id="_Group_32" data-name="&lt;Group&gt;"><g id="_Group_33" data-name="&lt;Group&gt;"><path id="_Path_24" data-name="&lt;Path&gt;" class="cls-13" d="M92.544,68.608V52.653a3.632,3.632,0,0,1,1.231-2.529l5.356-4.2a1.169,1.169,0,0,0,0-1.93l-5.356-4.207a3.627,3.627,0,0,1-1.231-2.527V22.017h24.294V37.256a3.628,3.628,0,0,1-1.23,2.527l-5.357,4.207a1.169,1.169,0,0,0,0,1.93l5.357,4.2a3.632,3.632,0,0,1,1.23,2.529V68.608H92.544Z"/><path id="_Path_25" data-name="&lt;Path&gt;" class="cls-14" d="M96.468,50.123l5.357-4.2a1.169,1.169,0,0,0,0-1.93l-5.357-4.207a3.627,3.627,0,0,1-1.23-2.528V22.017H92.544V37.256a3.626,3.626,0,0,0,1.231,2.528l5.356,4.207a1.169,1.169,0,0,1,0,1.93l-5.356,4.2a3.631,3.631,0,0,0-1.231,2.529V68.608h2.694V52.653A3.632,3.632,0,0,1,96.468,50.123Z"/><path id="_Path_26" data-name="&lt;Path&gt;" class="cls-8" d="M95.3,67.008h18.532V59.718a4.076,4.076,0,0,0-2.214-3.626L106.3,53.36a4.235,4.235,0,0,0-3.956.045l-4.912,2.667A4.076,4.076,0,0,0,95.3,59.655v7.353Z"/><rect id="_Path_27" data-name="&lt;Path&gt;" class="cls-15" x="92.544" y="22.017" width="24.294" height="3.992"/><rect id="_Rectangle_47" data-name="&lt;Rectangle&gt;" class="cls-16" x="90.879" y="18.62" width="27.439" height="5.503" rx="0.516" ry="0.516"/><path id="_Path_28" data-name="&lt;Path&gt;" class="cls-17" d="M117.622,18.62H91.574a0.7,0.7,0,0,0-.7.7v1.151h27.439V19.315A0.7,0.7,0,0,0,117.622,18.62Z"/><rect id="_Path_29" data-name="&lt;Path&gt;" class="cls-15" x="92.544" y="64.927" width="24.294" height="3.681"/><rect id="_Rectangle_48" data-name="&lt;Rectangle&gt;" class="cls-16" x="90.971" y="66.543" width="27.439" height="5.503" rx="0.516" ry="0.516"/><path id="_Path_30" data-name="&lt;Path&gt;" class="cls-18" d="M90.971,70.318v1.033a0.7,0.7,0,0,0,.7.7h26.048a0.7,0.7,0,0,0,.7-0.7V70.318H90.971Z"/><rect id="_Rectangle_49" data-name="&lt;Rectangle&gt;" class="cls-8" x="103.076" y="46.107" width="2.266" height="3.499" rx="0.735" ry="0.735"/><path id="_Path_31" data-name="&lt;Path&gt;" class="cls-8" d="M104.43,35.631a12.6,12.6,0,0,1-9.13-3.912v3.617a4.391,4.391,0,0,0,2.244,3.83l4.556,2.555a1.912,1.912,0,0,1,.977,1.668v1.1a1.133,1.133,0,0,0,2.266,0v-1.05a1.912,1.912,0,0,1,1.038-1.7l5.066-2.6a4.391,4.391,0,0,0,2.385-3.906V31.42A12.6,12.6,0,0,1,104.43,35.631Z"/></g><g id="_Group_34" data-name="&lt;Group&gt;"><circle id="_Path_32" data-name="&lt;Path&gt;" class="cls-16" cx="104.442" cy="23.818" r="10.352"/><circle id="_Path_33" data-name="&lt;Path&gt;" class="cls-19" cx="104.442" cy="23.818" r="9.221"/><circle id="_Path_34" data-name="&lt;Path&gt;" class="cls-16" cx="104.442" cy="23.818" r="8.138"/><g id="_Group_35" data-name="&lt;Group&gt;"><g id="_Group_36" data-name="&lt;Group&gt;"><path id="_Path_35" data-name="&lt;Path&gt;" class="cls-3" d="M105.5,27.97h-3.015a1.26,1.26,0,0,1-1.258-1.258V26.067h1.791v0.112H105.5a0.866,0.866,0,0,0,.865-0.866,0.564,0.564,0,0,0-.563-0.564h-2.222a2.357,2.357,0,0,1-2.354-2.355V22.073a2.659,2.659,0,0,1,2.656-2.657H106.9a1.26,1.26,0,0,1,1.258,1.258v0.732h-1.791v-0.2h-2.483a0.867,0.867,0,0,0-.866.866V22.4a0.564,0.564,0,0,0,.563.564h2.222a2.357,2.357,0,0,1,2.354,2.354A2.659,2.659,0,0,1,105.5,27.97Z"/></g><g id="_Group_37" data-name="&lt;Group&gt;"><rect id="_Path_36" data-name="&lt;Path&gt;" class="cls-3" x="103.799" y="18.546" width="1.791" height="10.544"/></g></g></g></g><g id="_Group_38" data-name="&lt;Group&gt;"><path id="_Rectangle_50" data-name="&lt;Rectangle&gt;" class="cls-20" d="M117.984,48.24h40.745a2.089,2.089,0,0,1,2.089,2.089v19.63a2.089,2.089,0,0,1-2.089,2.089H117.984a2.089,2.089,0,0,1-2.089-2.089V50.328A2.088,2.088,0,0,1,117.984,48.24Z" transform="translate(276.712 120.287) rotate(180)"/><path id="_Path_37" data-name="&lt;Path&gt;" class="cls-21" d="M120.178,55.069V65.487a3.446,3.446,0,0,1,3.446,3.446h29.139a3.447,3.447,0,0,1,3.446-3.446c0.112,0,.217.023,0.326,0.033V55.069a3.446,3.446,0,0,1-3.446-3.446H123.624A3.446,3.446,0,0,1,120.178,55.069Z"/><circle id="_Path_38" data-name="&lt;Path&gt;" class="cls-20" cx="138.389" cy="60.306" r="7.115"/><circle id="_Path_39" data-name="&lt;Path&gt;" class="cls-3" cx="151.428" cy="60.306" r="1.893"/><circle id="_Path_40" data-name="&lt;Path&gt;" class="cls-3" cx="125.351" cy="60.306" r="1.893"/><g id="_Group_39" data-name="&lt;Group&gt;"><g id="_Group_40" data-name="&lt;Group&gt;"><path id="_Path_41" data-name="&lt;Path&gt;" class="cls-3" d="M137.523,55.858h3.231a1.35,1.35,0,0,1,1.348,1.348V57.9h-1.918v-0.12h-2.66a0.928,0.928,0,0,0-.927.927,0.6,0.6,0,0,0,.6.6h2.381A2.525,2.525,0,0,1,142.1,61.83v0.346a2.849,2.849,0,0,1-2.846,2.846h-3.23a1.35,1.35,0,0,1-1.348-1.348V62.89H136.6V63.1h2.66a0.929,0.929,0,0,0,.927-0.928V61.83a0.6,0.6,0,0,0-.6-0.6H137.2a2.525,2.525,0,0,1-2.522-2.522A2.849,2.849,0,0,1,137.523,55.858Z"/></g><g id="_Group_41" data-name="&lt;Group&gt;"><rect id="_Path_42" data-name="&lt;Path&gt;" class="cls-3" x="137.43" y="54.657" width="1.918" height="11.297"/></g></g></g><rect class="cls-22" x="250.549" y="16.163" width="14.217" height="55.888"/><path class="cls-23" d="M257.759,3.251a0.115,0.115,0,0,0-.2,0l-6.511,12.174h13.1Z"/><rect class="cls-3" x="249.931" y="15.425" width="15.454" height="1.642"/><rect class="cls-3" x="253.484" y="13.535" width="0.742" height="0.557"/><rect class="cls-3" x="255.339" y="13.535" width="0.741" height="0.557"/><rect class="cls-3" x="257.193" y="13.535" width="0.741" height="0.557"/><rect class="cls-3" x="259.048" y="13.535" width="0.741" height="0.557"/><rect class="cls-3" x="260.902" y="13.535" width="0.742" height="0.557"/><rect class="cls-3" x="251.351" y="18.539" width="12.518" height="0.557"/><rect class="cls-3" x="251.351" y="20.583" width="12.518" height="0.557"/><rect class="cls-3" x="251.351" y="22.625" width="12.518" height="0.557"/><rect class="cls-3" x="251.351" y="24.668" width="12.518" height="0.557"/><rect class="cls-3" x="251.351" y="26.712" width="12.518" height="0.557"/><rect class="cls-3" x="251.351" y="28.755" width="12.518" height="0.557"/><rect class="cls-3" x="251.351" y="30.798" width="12.518" height="0.557"/><rect class="cls-3" x="251.351" y="32.841" width="12.518" height="0.557"/><rect class="cls-3" x="251.351" y="34.884" width="12.518" height="0.557"/><rect class="cls-3" x="251.351" y="36.927" width="12.518" height="0.557"/><rect class="cls-3" x="251.351" y="38.97" width="12.518" height="0.557"/><rect class="cls-3" x="251.351" y="41.013" width="12.518" height="0.557"/><rect class="cls-3" x="251.351" y="43.056" width="12.518" height="0.557"/><rect class="cls-3" x="251.351" y="45.099" width="12.518" height="0.557"/><rect class="cls-3" x="251.351" y="47.142" width="12.518" height="0.557"/><rect class="cls-3" x="251.351" y="49.185" width="12.518" height="0.557"/><rect class="cls-3" x="251.351" y="51.228" width="12.518" height="0.557"/><rect class="cls-3" x="251.351" y="53.271" width="12.518" height="0.557"/><rect class="cls-3" x="251.351" y="55.314" width="12.518" height="0.557"/><rect class="cls-3" x="251.351" y="57.357" width="12.518" height="0.557"/><rect class="cls-3" x="251.351" y="59.4" width="12.518" height="0.557"/><rect class="cls-3" x="251.351" y="61.443" width="12.518" height="0.557"/><rect class="cls-3" x="251.351" y="63.487" width="12.518" height="0.557"/><rect class="cls-3" x="251.351" y="65.529" width="12.518" height="0.557"/><rect class="cls-3" x="251.351" y="67.572" width="12.518" height="0.557"/><rect class="cls-3" x="251.351" y="69.616" width="12.518" height="0.557"/><g id="_Group_42" data-name="&lt;Group&gt;"><g id="_Group_43" data-name="&lt;Group&gt;"><path id="_Path_43" data-name="&lt;Path&gt;" class="cls-24" d="M356.9,24.389H356.81a0.659,0.659,0,0,1-.662-0.552l0.279-2.67L356.258,18.8a0.553,0.553,0,0,1,.552-0.552H356.9a0.553,0.553,0,0,1,.552.552v5.036A0.553,0.553,0,0,1,356.9,24.389Z"/><path id="_Path_44" data-name="&lt;Path&gt;" class="cls-8" d="M351.649,24.1l1.585-2.17a0.839,0.839,0,0,1,1.116-.22h0a0.839,0.839,0,0,1,.273,1.159L353.539,24.6a0.223,0.223,0,0,0,.19.341l0.545,0,2.262-2.416s0.216-1.513.272-1.725V18.18a0.629,0.629,0,0,1,.629-0.629h0a0.629,0.629,0,0,1,.629.626L358.08,20.5c0.078,0.172.058,2.775,0.058,2.775L355.42,28.9H351.29l-0.007-4.024A1.637,1.637,0,0,1,351.649,24.1Z"/><polygon id="_Path_45" data-name="&lt;Path&gt;" class="cls-25" points="351.288 28.151 351.29 28.899 355.42 28.899 355.782 28.151 351.288 28.151"/><rect id="_Path_46" data-name="&lt;Path&gt;" class="cls-22" x="349.857" y="28.703" width="6.484" height="43.353"/><rect id="_Path_47" data-name="&lt;Path&gt;" class="cls-23" x="349.857" y="28.703" width="1.76" height="43.353"/></g><g id="_Group_44" data-name="&lt;Group&gt;"><path id="_Path_48" data-name="&lt;Path&gt;" class="cls-24" d="M341.673,24.389h0.087a0.659,0.659,0,0,0,.662-0.552l-0.279-2.67,0.169-2.366a0.553,0.553,0,0,0-.552-0.552h-0.087a0.553,0.553,0,0,0-.552.552v5.036A0.553,0.553,0,0,0,341.673,24.389Z"/><path id="_Path_49" data-name="&lt;Path&gt;" class="cls-8" d="M346.921,24.1l-1.585-2.17a0.839,0.839,0,0,0-1.116-.22h0a0.838,0.838,0,0,0-.273,1.159l1.083,1.736a0.223,0.223,0,0,1-.19.341l-0.545,0-2.262-2.416s-0.216-1.513-.273-1.725V18.18a0.629,0.629,0,0,0-.629-0.629h0a0.629,0.629,0,0,0-.629.626L340.49,20.5c-0.078.172-.058,2.775-0.058,2.775l2.718,5.62h4.131l0.007-4.024A1.637,1.637,0,0,0,346.921,24.1Z"/><polygon id="_Path_50" data-name="&lt;Path&gt;" class="cls-25" points="347.281 28.151 347.28 28.899 343.15 28.899 342.788 28.151 347.281 28.151"/><rect id="_Path_51" data-name="&lt;Path&gt;" class="cls-22" x="342.229" y="28.703" width="6.484" height="43.353"/><rect id="_Path_52" data-name="&lt;Path&gt;" class="cls-23" x="346.953" y="28.703" width="1.759" height="43.353"/></g><g id="_Group_45" data-name="&lt;Group&gt;"><polygon id="_Path_53" data-name="&lt;Path&gt;" class="cls-26" points="351.651 16.962 349.478 14.084 353.825 14.084 351.651 16.962"/><polygon id="_Path_54" data-name="&lt;Path&gt;" class="cls-26" points="347.328 16.962 345.155 14.084 349.501 14.084 347.328 16.962"/><polygon id="_Path_55" data-name="&lt;Path&gt;" class="cls-26" points="349.489 24.309 343.004 16.932 355.975 16.932 349.489 24.309"/><polygon id="_Path_56" data-name="&lt;Path&gt;" class="cls-21" points="349.489 24.309 347.328 16.932 351.674 16.932 349.489 24.309"/><polygon id="_Path_57" data-name="&lt;Path&gt;" class="cls-21" points="345.155 14.084 343.004 16.932 347.305 16.932 345.155 14.084"/><polygon id="_Path_58" data-name="&lt;Path&gt;" class="cls-21" points="349.478 14.084 347.328 16.932 351.629 16.932 349.478 14.084"/><polygon id="_Path_59" data-name="&lt;Path&gt;" class="cls-21" points="353.825 14.084 351.674 16.932 355.975 16.932 353.825 14.084"/></g></g><g id="_Group_46" data-name="&lt;Group&gt;"><path id="_Path_60" data-name="&lt;Path&gt;" class="cls-8" d="M18.774,18.1c0.916,0.8,3.787-.26,11.53-0.26s10.614,1.059,11.53.26c1.584-1.381-3.844-7.282-11.53-7.282S17.191,16.722,18.774,18.1Z"/><g id="_Group_47" data-name="&lt;Group&gt;"><path id="_Path_61" data-name="&lt;Path&gt;" class="cls-27" d="M18.719,16.627a1.222,1.222,0,0,0,.055,1.476c0.781,0.681,2.991.015,8.411-.2C23.19,17.087,20.484,16.833,18.719,16.627Z"/></g><rect id="_Rectangle_51" data-name="&lt;Rectangle&gt;" class="cls-4" x="14.853" y="16.565" width="30.367" height="3.114"/><rect id="_Rectangle_52" data-name="&lt;Rectangle&gt;" class="cls-8" x="12.695" y="18.949" width="35.368" height="53.094"/><rect id="_Rectangle_53" data-name="&lt;Rectangle&gt;" class="cls-4" x="45.961" y="18.949" width="2.103" height="53.094"/><rect id="_Rectangle_54" data-name="&lt;Rectangle&gt;" class="cls-4" x="12.695" y="18.949" width="2.158" height="53.094"/><rect id="_Rectangle_55" data-name="&lt;Rectangle&gt;" class="cls-9" x="16.896" y="25.6" width="4.452" height="4.452"/><rect id="_Rectangle_56" data-name="&lt;Rectangle&gt;" class="cls-9" x="24.452" y="25.6" width="4.452" height="4.452"/><rect id="_Rectangle_57" data-name="&lt;Rectangle&gt;" class="cls-9" x="32.008" y="25.6" width="4.452" height="4.452"/><rect id="_Rectangle_58" data-name="&lt;Rectangle&gt;" class="cls-9" x="39.564" y="25.6" width="4.452" height="4.452"/><rect id="_Rectangle_59" data-name="&lt;Rectangle&gt;" class="cls-9" x="16.858" y="33.413" width="4.452" height="4.452"/><rect id="_Rectangle_60" data-name="&lt;Rectangle&gt;" class="cls-9" x="24.414" y="33.413" width="4.452" height="4.452"/><rect id="_Rectangle_61" data-name="&lt;Rectangle&gt;" class="cls-9" x="31.97" y="33.413" width="4.452" height="4.452"/><rect id="_Rectangle_62" data-name="&lt;Rectangle&gt;" class="cls-9" x="39.526" y="33.413" width="4.452" height="4.452"/><rect id="_Rectangle_63" data-name="&lt;Rectangle&gt;" class="cls-9" x="16.82" y="41.226" width="4.452" height="4.452"/><rect id="_Rectangle_64" data-name="&lt;Rectangle&gt;" class="cls-9" x="24.376" y="41.226" width="4.452" height="4.452"/><rect id="_Rectangle_65" data-name="&lt;Rectangle&gt;" class="cls-9" x="31.932" y="41.226" width="4.452" height="4.452"/><rect id="_Rectangle_66" data-name="&lt;Rectangle&gt;" class="cls-9" x="39.488" y="41.226" width="4.452" height="4.452"/><rect id="_Rectangle_67" data-name="&lt;Rectangle&gt;" class="cls-9" x="16.782" y="49.039" width="4.452" height="4.452"/><rect id="_Rectangle_68" data-name="&lt;Rectangle&gt;" class="cls-9" x="24.338" y="49.039" width="4.452" height="4.452"/><rect id="_Rectangle_69" data-name="&lt;Rectangle&gt;" class="cls-9" x="31.894" y="49.039" width="4.452" height="4.452"/><rect id="_Rectangle_70" data-name="&lt;Rectangle&gt;" class="cls-9" x="39.45" y="49.039" width="4.452" height="4.452"/><rect id="_Rectangle_71" data-name="&lt;Rectangle&gt;" class="cls-9" x="16.744" y="56.851" width="4.452" height="4.452"/><rect id="_Rectangle_72" data-name="&lt;Rectangle&gt;" class="cls-9" x="24.3" y="56.851" width="4.452" height="4.452"/><rect id="_Rectangle_73" data-name="&lt;Rectangle&gt;" class="cls-9" x="31.856" y="56.851" width="4.452" height="4.452"/><rect id="_Rectangle_74" data-name="&lt;Rectangle&gt;" class="cls-9" x="39.412" y="56.851" width="4.452" height="4.452"/><rect id="_Rectangle_75" data-name="&lt;Rectangle&gt;" class="cls-9" x="25.487" y="64.671" width="9.854" height="7.372"/><rect id="_Rectangle_76" data-name="&lt;Rectangle&gt;" class="cls-3" x="11.761" y="18.122" width="37.969" height="3.114"/><rect id="_Rectangle_77" data-name="&lt;Rectangle&gt;" class="cls-4" x="16.118" y="29.485" width="5.588" height="0.875"/><rect id="_Rectangle_78" data-name="&lt;Rectangle&gt;" class="cls-4" x="23.792" y="29.485" width="5.588" height="0.875"/><rect id="_Rectangle_79" data-name="&lt;Rectangle&gt;" class="cls-4" x="31.454" y="29.485" width="5.588" height="0.875"/><rect id="_Rectangle_80" data-name="&lt;Rectangle&gt;" class="cls-4" x="39.106" y="29.485" width="5.588" height="0.875"/><rect id="_Rectangle_81" data-name="&lt;Rectangle&gt;" class="cls-4" x="16.118" y="37.427" width="5.588" height="0.875"/><rect id="_Rectangle_82" data-name="&lt;Rectangle&gt;" class="cls-4" x="23.789" y="37.427" width="5.588" height="0.875"/><rect id="_Rectangle_83" data-name="&lt;Rectangle&gt;" class="cls-4" x="31.451" y="37.427" width="5.588" height="0.875"/><rect id="_Rectangle_84" data-name="&lt;Rectangle&gt;" class="cls-4" x="39.106" y="37.427" width="5.588" height="0.875"/><rect id="_Rectangle_85" data-name="&lt;Rectangle&gt;" class="cls-4" x="16.118" y="45.369" width="5.588" height="0.875"/><rect id="_Rectangle_86" data-name="&lt;Rectangle&gt;" class="cls-4" x="23.786" y="45.369" width="5.588" height="0.875"/><rect id="_Rectangle_87" data-name="&lt;Rectangle&gt;" class="cls-4" x="31.449" y="45.369" width="5.588" height="0.875"/><rect id="_Rectangle_88" data-name="&lt;Rectangle&gt;" class="cls-4" x="39.106" y="45.369" width="5.588" height="0.875"/><rect id="_Rectangle_89" data-name="&lt;Rectangle&gt;" class="cls-4" x="16.118" y="53.311" width="5.588" height="0.875"/><rect id="_Rectangle_90" data-name="&lt;Rectangle&gt;" class="cls-4" x="23.783" y="53.311" width="5.588" height="0.875"/><rect id="_Rectangle_91" data-name="&lt;Rectangle&gt;" class="cls-4" x="31.446" y="53.311" width="5.588" height="0.875"/><rect id="_Rectangle_92" data-name="&lt;Rectangle&gt;" class="cls-4" x="39.106" y="53.311" width="5.588" height="0.875"/><rect id="_Rectangle_93" data-name="&lt;Rectangle&gt;" class="cls-4" x="16.118" y="61.254" width="5.588" height="0.875"/><rect id="_Rectangle_94" data-name="&lt;Rectangle&gt;" class="cls-4" x="23.781" y="61.254" width="5.588" height="0.875"/><rect id="_Rectangle_95" data-name="&lt;Rectangle&gt;" class="cls-4" x="31.443" y="61.254" width="5.588" height="0.875"/><rect id="_Rectangle_96" data-name="&lt;Rectangle&gt;" class="cls-4" x="39.106" y="61.254" width="5.588" height="0.875"/></g><g id="_Group_48" data-name="&lt;Group&gt;"><g id="_Group_49" data-name="&lt;Group&gt;"><polygon id="_Path_62" data-name="&lt;Path&gt;" class="cls-3" points="83.622 72.043 69.876 72.043 71.944 13.571 81.736 13.571 83.622 72.043"/><polygon class="cls-2" points="82.517 37.803 70.854 44.378 70.561 52.678 82.766 45.52 82.517 37.803"/><polygon class="cls-2" points="71.439 27.854 71.147 36.111 82.253 29.598 82.004 21.897 71.439 27.854"/><polygon class="cls-2" points="83.622 72.043 83.487 67.858 76.062 72.043 83.622 72.043"/><polygon class="cls-2" points="82.978 52.083 70.329 59.213 70.036 67.518 83.226 59.782 82.978 52.083"/><g id="_Group_50" data-name="&lt;Group&gt;"><path id="_Path_63" data-name="&lt;Path&gt;" class="cls-20" d="M76.793,3.973h0a0.506,0.506,0,0,1-.506-0.506V0.506A0.506,0.506,0,0,1,76.793,0h0A0.506,0.506,0,0,1,77.3.506v2.96A0.506,0.506,0,0,1,76.793,3.973Z"/></g><path id="_Path_64" data-name="&lt;Path&gt;" class="cls-20" d="M80.573,6.376a3.833,3.833,0,1,0-7.666,0h7.666Z"/><rect id="_Rectangle_97" data-name="&lt;Rectangle&gt;" class="cls-8" x="72.956" y="7.224" width="7.468" height="6.674"/><rect id="_Rectangle_98" data-name="&lt;Rectangle&gt;" class="cls-20" x="71.918" y="12.092" width="9.833" height="2.354" rx="0.448" ry="0.448"/><rect id="_Rectangle_99" data-name="&lt;Rectangle&gt;" class="cls-28" x="79.192" y="12.092" width="2.559" height="2.354"/><polygon id="_Path_65" data-name="&lt;Path&gt;" class="cls-2" points="81.751 14.097 81.736 13.571 71.944 13.571 71.756 19.868 81.751 14.097"/><g id="_Group_51" data-name="&lt;Group&gt;"><circle id="_Path_66" data-name="&lt;Path&gt;" class="cls-4" cx="76.453" cy="20.431" r="2.233"/><circle id="_Path_67" data-name="&lt;Path&gt;" class="cls-8" cx="76.453" cy="20.431" r="1.664"/></g><g id="_Group_52" data-name="&lt;Group&gt;"><circle id="_Path_68" data-name="&lt;Path&gt;" class="cls-4" cx="76.453" cy="36.739" r="2.233"/><circle id="_Path_69" data-name="&lt;Path&gt;" class="cls-8" cx="76.453" cy="36.739" r="1.664"/></g><g id="_Group_53" data-name="&lt;Group&gt;"><circle id="_Path_70" data-name="&lt;Path&gt;" class="cls-4" cx="76.453" cy="53.048" r="2.233"/><circle id="_Path_71" data-name="&lt;Path&gt;" class="cls-8" cx="76.453" cy="53.048" r="1.664"/></g><path id="_Rectangle_100" data-name="&lt;Rectangle&gt;" class="cls-27" d="M71.52,13.354H81.941a0.7,0.7,0,0,1,.7.7v0.79a0.7,0.7,0,0,1-.7.7H71.52a0.7,0.7,0,0,1-.7-0.7v-0.79A0.7,0.7,0,0,1,71.52,13.354Z"/><path id="_Path_72" data-name="&lt;Path&gt;" class="cls-29" d="M82.167,13.354H71.294a0.471,0.471,0,0,0-.471.471v0.7H82.638v-0.7A0.471,0.471,0,0,0,82.167,13.354Z"/><path id="_Path_73" data-name="&lt;Path&gt;" class="cls-28" d="M82.167,13.354H79.662v2.185h2.505a0.471,0.471,0,0,0,.471-0.471V13.825A0.471,0.471,0,0,0,82.167,13.354Z"/><rect id="_Rectangle_101" data-name="&lt;Rectangle&gt;" class="cls-27" x="72" y="6.185" width="9.48" height="1.532" rx="0.766" ry="0.766"/><path id="_Path_74" data-name="&lt;Path&gt;" class="cls-29" d="M80.935,6.185H72.545A0.545,0.545,0,0,0,72,6.73V6.951h9.48V6.73A0.545,0.545,0,0,0,80.935,6.185Z"/></g></g><g id="_Group_54" data-name="&lt;Group&gt;"><g id="_Group_55" data-name="&lt;Group&gt;"><g id="_Group_56" data-name="&lt;Group&gt;"><path id="_Path_75" data-name="&lt;Path&gt;" class="cls-8" d="M229.778,72.051H219.456a0.926,0.926,0,0,1-.908-1.11l1.4-6.941a0.784,0.784,0,0,1,.768-0.628h7.792a0.784,0.784,0,0,1,.768.628l1.4,6.941A0.926,0.926,0,0,1,229.778,72.051Z"/></g><path id="_Path_76" data-name="&lt;Path&gt;" class="cls-6" d="M230.529,71.659l-8.244-8.287H220.72a0.784,0.784,0,0,0-.768.628l-0.666,3.291-0.738,3.649a0.926,0.926,0,0,0,.908,1.11h10.322A0.918,0.918,0,0,0,230.529,71.659Z"/></g><g id="_Group_57" data-name="&lt;Group&gt;"><g id="_Group_58" data-name="&lt;Group&gt;"><path id="_Path_77" data-name="&lt;Path&gt;" class="cls-8" d="M242.877,72.051H232.555a0.926,0.926,0,0,1-.908-1.11l1.4-6.941a0.784,0.784,0,0,1,.768-0.628h7.792a0.784,0.784,0,0,1,.768.628l1.4,6.941A0.926,0.926,0,0,1,242.877,72.051Z"/></g><path id="_Path_78" data-name="&lt;Path&gt;" class="cls-6" d="M243.628,71.659l-8.244-8.287H233.82a0.784,0.784,0,0,0-.768.628l-0.666,3.291-0.738,3.649a0.926,0.926,0,0,0,.908,1.11h10.322A0.918,0.918,0,0,0,243.628,71.659Z"/></g><g id="_Group_59" data-name="&lt;Group&gt;"><g id="_Group_60" data-name="&lt;Group&gt;"><path id="_Path_79" data-name="&lt;Path&gt;" class="cls-8" d="M242.731,54.73H232.409a0.926,0.926,0,0,1-.908-1.11l1.4-6.941a0.784,0.784,0,0,1,.768-0.628h7.792a0.784,0.784,0,0,1,.768.628l1.4,6.941A0.926,0.926,0,0,1,242.731,54.73Z"/></g><path id="_Path_80" data-name="&lt;Path&gt;" class="cls-6" d="M243.482,54.338l-8.243-8.287h-1.565a0.784,0.784,0,0,0-.768.629l-0.666,3.291L231.5,53.62a0.926,0.926,0,0,0,.908,1.11h10.322A0.918,0.918,0,0,0,243.482,54.338Z"/></g><g id="_Group_61" data-name="&lt;Group&gt;"><g id="_Group_62" data-name="&lt;Group&gt;"><path id="_Path_81" data-name="&lt;Path&gt;" class="cls-8" d="M255.976,72.051H245.654a0.926,0.926,0,0,1-.908-1.11L246.15,64a0.784,0.784,0,0,1,.768-0.628h7.792a0.784,0.784,0,0,1,.768.628l1.4,6.941A0.926,0.926,0,0,1,255.976,72.051Z"/></g><path id="_Path_82" data-name="&lt;Path&gt;" class="cls-6" d="M256.727,71.659l-8.243-8.287h-1.565a0.784,0.784,0,0,0-.768.628l-0.666,3.291-0.738,3.649a0.926,0.926,0,0,0,.908,1.11h10.322A0.918,0.918,0,0,0,256.727,71.659Z"/></g><g id="_Group_63" data-name="&lt;Group&gt;"><g id="_Group_64" data-name="&lt;Group&gt;"><path id="_Path_83" data-name="&lt;Path&gt;" class="cls-8" d="M236.327,63.372H226.005a0.926,0.926,0,0,1-.908-1.11l1.4-6.941a0.784,0.784,0,0,1,.768-0.628h7.792a0.784,0.784,0,0,1,.768.628l1.4,6.941A0.926,0.926,0,0,1,236.327,63.372Z"/></g><path id="_Path_84" data-name="&lt;Path&gt;" class="cls-6" d="M237.078,62.98l-8.243-8.287H227.27a0.784,0.784,0,0,0-.768.628l-0.666,3.292L225.1,62.262a0.926,0.926,0,0,0,.908,1.11h10.322A0.918,0.918,0,0,0,237.078,62.98Z"/></g><g id="_Group_65" data-name="&lt;Group&gt;"><g id="_Group_66" data-name="&lt;Group&gt;"><path id="_Path_85" data-name="&lt;Path&gt;" class="cls-8" d="M249.426,63.372H239.1a0.926,0.926,0,0,1-.908-1.11l1.4-6.941a0.784,0.784,0,0,1,.768-0.628h7.792a0.784,0.784,0,0,1,.768.628l1.4,6.941A0.926,0.926,0,0,1,249.426,63.372Z"/></g><path id="_Path_86" data-name="&lt;Path&gt;" class="cls-6" d="M250.177,62.98l-8.244-8.287h-1.565a0.783,0.783,0,0,0-.768.628l-0.666,3.291L238.2,62.262a0.926,0.926,0,0,0,.908,1.11h10.322A0.918,0.918,0,0,0,250.177,62.98Z"/></g></g><g id="_Group_67" data-name="&lt;Group&gt;"><polygon id="_Path_87" data-name="&lt;Path&gt;" class="cls-30" points="311.496 69.812 288.413 69.812 290.028 59.854 310 59.854 311.496 69.812"/><rect id="_Path_88" data-name="&lt;Path&gt;" class="cls-22" x="273.167" y="27.471" width="53.574" height="32.03" rx="0.982" ry="0.982"/><path id="_Path_89" data-name="&lt;Path&gt;" class="cls-3" d="M326.742,57.741V61.82a2.618,2.618,0,0,1-2.618,2.619H275.785a2.618,2.618,0,0,1-2.618-2.619V57.741h53.574Z"/><rect id="_Path_90" data-name="&lt;Path&gt;" class="cls-31" x="275.463" y="29.729" width="48.982" height="25.78"/><path id="_Path_91" data-name="&lt;Path&gt;" class="cls-3" d="M313.228,72.043h-26.7a1.117,1.117,0,0,1-1.117-1.117h0a1.117,1.117,0,0,1,1.117-1.117h26.7a1.117,1.117,0,0,1,1.117,1.117h0A1.117,1.117,0,0,1,313.228,72.043Z"/></g><g id="_Group_68" data-name="&lt;Group&gt;"><path id="_Path_92" data-name="&lt;Path&gt;" class="cls-6" d="M275.542,43.9h0a4.1,4.1,0,0,1-4.1-4.1V34.81h8.2V39.8A4.1,4.1,0,0,1,275.542,43.9Z"/><polygon id="_Path_93" data-name="&lt;Path&gt;" class="cls-6" points="282.548 29.729 275.515 29.729 271.445 34.81 279.64 34.81 282.548 29.729"/><path id="_Path_94" data-name="&lt;Path&gt;" class="cls-3" d="M283.738,43.9h0a4.1,4.1,0,0,1-4.1-4.1V34.81h8.2V39.8A4.1,4.1,0,0,1,283.738,43.9Z"/><polygon id="_Path_95" data-name="&lt;Path&gt;" class="cls-3" points="289.58 29.729 282.548 29.729 279.64 34.81 287.836 34.81 289.58 29.729"/><path id="_Path_96" data-name="&lt;Path&gt;" class="cls-6" d="M291.934,43.9h0a4.1,4.1,0,0,1-4.1-4.1V34.81h8.2V39.8A4.1,4.1,0,0,1,291.934,43.9Z"/><polygon id="_Path_97" data-name="&lt;Path&gt;" class="cls-6" points="296.613 29.729 289.58 29.729 287.836 34.81 296.032 34.81 296.613 29.729"/><path id="_Path_98" data-name="&lt;Path&gt;" class="cls-3" d="M300.13,43.9h0a4.1,4.1,0,0,1-4.1-4.1V34.81h8.2V39.8A4.1,4.1,0,0,1,300.13,43.9Z"/><polygon id="_Path_99" data-name="&lt;Path&gt;" class="cls-3" points="303.646 29.729 296.613 29.729 296.032 34.81 304.227 34.81 303.646 29.729"/><path id="_Path_100" data-name="&lt;Path&gt;" class="cls-6" d="M308.325,43.9h0a4.1,4.1,0,0,1-4.1-4.1V34.81h8.2V39.8A4.1,4.1,0,0,1,308.325,43.9Z"/><polygon id="_Path_101" data-name="&lt;Path&gt;" class="cls-6" points="313.129 29.729 303.2 29.729 304.227 34.81 312.423 34.81 313.129 29.729"/><path id="_Path_102" data-name="&lt;Path&gt;" class="cls-3" d="M316.521,43.9h0a4.1,4.1,0,0,1-4.1-4.1V34.81h8.2V39.8A4.1,4.1,0,0,1,316.521,43.9Z"/><polygon id="_Path_103" data-name="&lt;Path&gt;" class="cls-3" points="317.712 29.729 310.679 29.729 312.423 34.81 320.619 34.81 317.712 29.729"/><path id="_Path_104" data-name="&lt;Path&gt;" class="cls-6" d="M324.717,43.9h0a4.1,4.1,0,0,1-4.1-4.1V34.81h8.2V39.8A4.1,4.1,0,0,1,324.717,43.9Z"/><polygon id="_Path_105" data-name="&lt;Path&gt;" class="cls-6" points="324.744 29.729 317.712 29.729 320.619 34.81 328.815 34.81 324.744 29.729"/></g><g id="_Group_69" data-name="&lt;Group&gt;"><path id="_Path_106" data-name="&lt;Path&gt;" class="cls-1" d="M38.618,67.224c0,2.544-2.229,4.633-5.122,4.955v0.042H5.884c-3.25,0-5.884-2.236-5.884-5a4.644,4.644,0,0,1,1.726-3.536,6.422,6.422,0,0,1,4.158-1.46V62.2a4.262,4.262,0,0,1,1.964-3.585,5.757,5.757,0,0,1,6.73-8.274,4.261,4.261,0,0,1,4.074-3.012A4.262,4.262,0,0,1,22.9,51.584a4.079,4.079,0,0,1-.028.51,4.244,4.244,0,0,1,5.367,3.019,5.753,5.753,0,0,1,7.422,7.778A4.909,4.909,0,0,1,38.618,67.224Z"/></g><g id="_Group_70" data-name="&lt;Group&gt;"><path id="_Path_107" data-name="&lt;Path&gt;" class="cls-16" d="M47.748,68.882a3.579,3.579,0,0,0,3.423,3.311v0.028H69.619a3.671,3.671,0,0,0,3.932-3.339A3.1,3.1,0,0,0,72.4,66.519a4.291,4.291,0,0,0-2.778-.976V65.525a2.848,2.848,0,0,0-1.312-2.4,3.846,3.846,0,0,0-4.5-5.528,2.847,2.847,0,0,0-2.722-2.012,2.848,2.848,0,0,0-2.839,2.844,2.725,2.725,0,0,0,.019.341,2.836,2.836,0,0,0-3.586,2.017,3.844,3.844,0,0,0-4.959,5.2A3.28,3.28,0,0,0,47.748,68.882Z"/></g><g id="_Group_71" data-name="&lt;Group&gt;"><path id="_Path_108" data-name="&lt;Path&gt;" class="cls-32" d="M349.521,67.5c0,2.4-2.106,4.377-4.839,4.681v0.04H318.6c-3.07,0-5.559-2.113-5.559-4.72a4.387,4.387,0,0,1,1.631-3.341,6.067,6.067,0,0,1,3.928-1.38V62.754a4.026,4.026,0,0,1,1.855-3.387,5.438,5.438,0,0,1,6.358-7.817,4.025,4.025,0,0,1,3.849-2.845,4.026,4.026,0,0,1,4.014,4.02,3.853,3.853,0,0,1-.026.482,4.009,4.009,0,0,1,5.07,2.852,5.435,5.435,0,0,1,7.011,7.348A4.637,4.637,0,0,1,349.521,67.5Z"/></g><g id="_Group_72" data-name="&lt;Group&gt;"><path id="_Path_109" data-name="&lt;Path&gt;" class="cls-32" d="M181.151,70.339a2.017,2.017,0,0,0,1.929,1.866v0.016h10.4a2.069,2.069,0,0,0,2.215-1.881,1.749,1.749,0,0,0-.65-1.331,2.418,2.418,0,0,0-1.566-.55V68.447a1.6,1.6,0,0,0-.739-1.35,2.167,2.167,0,0,0-2.534-3.115,1.6,1.6,0,0,0-1.534-1.134,1.6,1.6,0,0,0-1.6,1.6,1.536,1.536,0,0,0,.011.192,1.6,1.6,0,0,0-2.021,1.137,2.166,2.166,0,0,0-2.794,2.929A1.848,1.848,0,0,0,181.151,70.339Z"/></g><g id="_Group_73" data-name="&lt;Group&gt;"><g id="_Group_74" data-name="&lt;Group&gt;"><rect id="_Rectangle_102" data-name="&lt;Rectangle&gt;" class="cls-16" x="267.022" y="62.766" width="7.092" height="0.541" rx="0.251" ry="0.251"/><rect id="_Rectangle_103" data-name="&lt;Rectangle&gt;" class="cls-20" x="272.354" y="64.734" width="7.092" height="0.541" rx="0.251" ry="0.251"/><rect id="_Rectangle_104" data-name="&lt;Rectangle&gt;" class="cls-20" x="272.354" y="70.232" width="7.092" height="0.541" rx="0.251" ry="0.251"/><rect id="_Rectangle_105" data-name="&lt;Rectangle&gt;" class="cls-20" x="273.34" y="66.584" width="7.092" height="0.541" rx="0.251" ry="0.251"/><rect id="_Rectangle_106" data-name="&lt;Rectangle&gt;" class="cls-16" x="265.95" y="66.584" width="7.092" height="0.541" rx="0.251" ry="0.251"/><rect id="_Rectangle_107" data-name="&lt;Rectangle&gt;" class="cls-16" x="269.486" y="68.958" width="3.448" height="0.541" rx="0.251" ry="0.251" transform="translate(542.419 138.458) rotate(-180)"/><rect id="_Rectangle_108" data-name="&lt;Rectangle&gt;" class="cls-16" x="273.34" y="68.958" width="1.106" height="0.541" rx="0.251" ry="0.251" transform="translate(547.786 138.458) rotate(-180)"/><rect id="_Rectangle_109" data-name="&lt;Rectangle&gt;" class="cls-20" x="270.656" y="70.232" width="1.444" height="0.541" rx="0.251" ry="0.251" transform="translate(542.755 141.006) rotate(180)"/><rect id="_Rectangle_110" data-name="&lt;Rectangle&gt;" class="cls-16" x="274.368" y="62.766" width="1.233" height="0.541" rx="0.251" ry="0.251" transform="translate(549.97 126.073) rotate(180)"/><g id="_Group_75" data-name="&lt;Group&gt;"><circle id="_Path_110" data-name="&lt;Path&gt;" class="cls-16" cx="266.47" cy="66.854" r="4.986"/><circle id="_Path_111" data-name="&lt;Path&gt;" class="cls-19" cx="266.469" cy="66.854" r="4.441"/><circle id="_Path_112" data-name="&lt;Path&gt;" class="cls-16" cx="266.469" cy="66.854" r="3.92"/><g id="_Group_76" data-name="&lt;Group&gt;"><g id="_Group_77" data-name="&lt;Group&gt;"><path id="_Path_113" data-name="&lt;Path&gt;" class="cls-3" d="M266.98,68.854h-1.452a0.607,0.607,0,0,1-.606-0.606v-0.31h0.862v0.054h1.2a0.417,0.417,0,0,0,.417-0.417,0.272,0.272,0,0,0-.271-0.272h-1.07a1.135,1.135,0,0,1-1.133-1.134V66.014a1.281,1.281,0,0,1,1.279-1.28h1.452a0.607,0.607,0,0,1,.606.606v0.352H267.4V65.6h-1.2a0.418,0.418,0,0,0-.417.417v0.155a0.272,0.272,0,0,0,.271.272h1.07a1.135,1.135,0,0,1,1.133,1.134A1.281,1.281,0,0,1,266.98,68.854Z"/></g><g id="_Group_78" data-name="&lt;Group&gt;"><rect id="_Path_114" data-name="&lt;Path&gt;" class="cls-3" x="266.16" y="64.315" width="0.862" height="5.078"/></g></g></g><circle id="_Path_115" data-name="&lt;Path&gt;" class="cls-20" cx="279.446" cy="66.956" r="4.986"/><circle id="_Path_116" data-name="&lt;Path&gt;" class="cls-21" cx="279.446" cy="66.956" r="4.441"/><circle id="_Path_117" data-name="&lt;Path&gt;" class="cls-20" cx="279.446" cy="66.956" r="3.92"/><g id="_Group_79" data-name="&lt;Group&gt;"><g id="_Group_80" data-name="&lt;Group&gt;"><path id="_Path_118" data-name="&lt;Path&gt;" class="cls-3" d="M280,69.421a2.465,2.465,0,1,1,1.743-4.208,0.423,0.423,0,0,1-.6.6,1.619,1.619,0,1,0,0,2.29,0.423,0.423,0,0,1,.6.6A2.449,2.449,0,0,1,280,69.421Z"/></g><g id="_Group_81" data-name="&lt;Group&gt;"><path id="_Path_119" data-name="&lt;Path&gt;" class="cls-3" d="M279.7,66.669h-2.244a0.423,0.423,0,1,1,0-.846H279.7A0.423,0.423,0,1,1,279.7,66.669Z"/></g><g id="_Group_82" data-name="&lt;Group&gt;"><path id="_Path_120" data-name="&lt;Path&gt;" class="cls-3" d="M279.7,67.886h-2.244a0.423,0.423,0,1,1,0-.846H279.7A0.423,0.423,0,1,1,279.7,67.886Z"/></g></g></g></g><g id="_Group_83" data-name="&lt;Group&gt;"><g id="_Group_84" data-name="&lt;Group&gt;"><path id="_Path_121" data-name="&lt;Path&gt;" class="cls-33" d="M212.674,62.688a2.253,2.253,0,0,0,2.21-1.818,0.063,0.063,0,0,1,.124,0c0.119,0.887.1,2.826-2.334,2.826V62.688Z"/><path id="_Path_122" data-name="&lt;Path&gt;" class="cls-6" d="M198.472,61.959a2.731,2.731,0,0,0,0-5.462v5.462Z"/><rect id="_Rectangle_111" data-name="&lt;Rectangle&gt;" class="cls-33" x="199.183" y="68.184" width="4.03" height="3.844" rx="1" ry="1"/><rect id="_Rectangle_112" data-name="&lt;Rectangle&gt;" class="cls-33" x="206.531" y="67.406" width="4.03" height="4.622" rx="1" ry="1"/><ellipse id="_Path_123" data-name="&lt;Path&gt;" class="cls-6" cx="205.013" cy="63.695" rx="8.215" ry="6.898"/><g id="_Group_85" data-name="&lt;Group&gt;"><path id="_Path_124" data-name="&lt;Path&gt;" class="cls-34" d="M208.454,58.993a0.51,0.51,0,0,1-.17-0.03,9.234,9.234,0,0,0-6.055,0,0.508,0.508,0,1,1-.34-0.957,10.255,10.255,0,0,1,6.736,0A0.508,0.508,0,0,1,208.454,58.993Z"/></g><path id="_Path_125" data-name="&lt;Path&gt;" class="cls-33" d="M205.013,68.561c-4.125,0-7.53-2.555-8.116-5.882a5.836,5.836,0,0,0-.1,1.016c0,3.81,3.678,6.9,8.215,6.9s8.215-3.088,8.215-6.9a5.83,5.83,0,0,0-.1-1.016C212.542,66.006,209.138,68.561,205.013,68.561Z"/><rect id="_Rectangle_113" data-name="&lt;Rectangle&gt;" class="cls-6" x="195.078" y="61.734" width="3.877" height="4.622" rx="1" ry="1" transform="translate(132.972 261.061) rotate(-90)"/><path id="_Rectangle_114" data-name="&lt;Rectangle&gt;" class="cls-33" d="M197.126,63.6h0.12a0,0,0,0,1,0,0v3.05a1.016,1.016,0,0,1-1.016,1.016h0a0,0,0,0,1,0,0v-3.17A0.9,0.9,0,0,1,197.126,63.6Z" transform="translate(131.11 262.366) rotate(-90)"/><path id="_Path_126" data-name="&lt;Path&gt;" class="cls-33" d="M195.654,62.58v3.082a0.474,0.474,0,0,1-.474.474h0a0.474,0.474,0,0,1-.474-0.474V62.58a0.474,0.474,0,0,1,.474-0.474h0A0.474,0.474,0,0,1,195.654,62.58Z"/><ellipse id="_Path_127" data-name="&lt;Path&gt;" class="cls-6" cx="194.884" cy="64.121" rx="0.119" ry="0.563"/><ellipse id="_Path_128" data-name="&lt;Path&gt;" class="cls-6" cx="195.358" cy="64.121" rx="0.119" ry="0.563"/><ellipse id="_Path_129" data-name="&lt;Path&gt;" class="cls-34" cx="198.771" cy="61.309" rx="0.299" ry="0.494"/></g><path id="_Path_130" data-name="&lt;Path&gt;" class="cls-15" d="M208.6,57.49a9.6,9.6,0,0,0-6.8-.136A4.417,4.417,0,0,0,208.6,57.49Z"/><g id="_Group_86" data-name="&lt;Group&gt;"><circle id="_Path_131" data-name="&lt;Path&gt;" class="cls-20" cx="205.257" cy="54.087" r="4.426"/><circle id="_Path_132" data-name="&lt;Path&gt;" class="cls-21" cx="205.257" cy="54.087" r="3.942"/><circle id="_Path_133" data-name="&lt;Path&gt;" class="cls-20" cx="205.257" cy="54.087" r="3.48"/><g id="_Group_87" data-name="&lt;Group&gt;"><g id="_Group_88" data-name="&lt;Group&gt;"><path id="_Path_134" data-name="&lt;Path&gt;" class="cls-3" d="M205.71,55.862h-1.289a0.539,0.539,0,0,1-.538-0.538V55.048h0.766V55.1h1.062a0.37,0.37,0,0,0,.37-0.37,0.241,0.241,0,0,0-.241-0.241h-0.95a1.008,1.008,0,0,1-1.006-1.007V53.341a1.137,1.137,0,0,1,1.136-1.136h1.289a0.539,0.539,0,0,1,.538.538v0.313H206.08V52.97h-1.062a0.371,0.371,0,0,0-.37.37v0.138a0.241,0.241,0,0,0,.241.241h0.95a1.008,1.008,0,0,1,1.006,1.007A1.137,1.137,0,0,1,205.71,55.862Z"/></g><g id="_Group_89" data-name="&lt;Group&gt;"><rect id="_Path_135" data-name="&lt;Path&gt;" class="cls-3" x="204.982" y="51.833" width="0.765" height="4.508"/></g></g></g></g></svg>