<svg id="Layer_2" data-name="Layer 2" xmlns="http://www.w3.org/2000/svg" viewBox="0 0 130 42"><defs><style>.cls-1{fill:#fff;}</style></defs><title>logo</title><path class="cls-1" d="M1.1,41.535H0q0.231-2.618,3.077-15.387T6.619,7.04A5.5,5.5,0,0,0,6.009,4.8,11.008,11.008,0,0,0,4.761,2.676L4.18,1.862l0.174-.873Q7.606,0,15.561,0a5.738,5.738,0,0,1,.755,2.734,29.36,29.36,0,0,1-.233,3.316Q23.341,0,27.928,0A6.384,6.384,0,0,1,32.8,1.978,7.759,7.759,0,0,1,34.663,7.5q0,3.548-2.468,13.525T29.728,34.962q0,1.688.581,1.687a11.123,11.123,0,0,0,2.9-1.164l0.755-.348,1.161,2.152a24.867,24.867,0,0,1-5.052,3.4A10.733,10.733,0,0,1,25.344,42a4.359,4.359,0,0,1-3.455-1.541,6.177,6.177,0,0,1-1.336-4.189q0-2.647,2.41-13.176t2.41-13.438q0-2.908-2.264-2.908-3.427,0-7.781,3.432-0.639,3.084-2.381,10.3Q9.116,36.358,9.116,40.371,6.851,41.536,1.1,41.535Z"/><path class="cls-1" d="M54.868,17.219a9.167,9.167,0,0,0,.638-1.512,23.352,23.352,0,0,1,7.315,1.629A80.812,80.812,0,0,0,60.5,27.428a52.9,52.9,0,0,0-.871,7.5c0,1.494.153,2.24,0.465,2.24a12,12,0,0,0,2.554-1.1l0.7-.349,1.044,2.036q-0.523.467-1.365,1.164a19.493,19.493,0,0,1-3.164,1.89A9.332,9.332,0,0,1,55.68,42q-3.6,0-4.18-3.258Q47.784,42,44.795,42a6.492,6.492,0,0,1-5.052-2.327q-2.062-2.325-2.061-7.33,0-7.794,3.193-12.3T48.6,15.532A12.7,12.7,0,0,1,54.868,17.219ZM48.249,37.055a6.015,6.015,0,0,0,3.135-1.1,70.77,70.77,0,0,1,2.729-16.23,7.727,7.727,0,0,0-2.961-.756q-2.091,0-3.571,4.1A26.469,26.469,0,0,0,46.1,32.111Q46.1,37.057,48.249,37.055Z"/><path class="cls-1" d="M67,41.477H65.9a61.971,61.971,0,0,1,1.655-10.471,87.95,87.95,0,0,0,1.654-8.784,6.877,6.877,0,0,0-1.626-4.072l-0.522-.7,0.058-.757a41.258,41.258,0,0,1,10.044-.872,6.2,6.2,0,0,1,.813,3.606q5.226-3.9,8.3-3.9,3.889,0,4.587,4.014A26.523,26.523,0,0,1,94.96,16.9a9.726,9.726,0,0,1,4.53-1.367,4.578,4.578,0,0,1,3.338,1.309,4.858,4.858,0,0,1,1.335,3.636,38.16,38.16,0,0,1-1.277,7.678,38.933,38.933,0,0,0-1.277,7.185q0,1.832.522,1.832a10.091,10.091,0,0,0,2.381-1.1l0.638-.349,1.045,2.036a16.947,16.947,0,0,1-4.094,2.88A10.022,10.022,0,0,1,97.545,42q-4.356,0-4.355-4.945a41.139,41.139,0,0,1,1.248-7.242,41.9,41.9,0,0,0,1.248-7.1q0-1.658-.987-1.658a7.7,7.7,0,0,0-3.832,1.28q-0.118,1.163-1.6,7.911a52.6,52.6,0,0,0-1.48,10.471q-1.684.756-7.9,0.756a23.476,23.476,0,0,1-.116-3.083,42.979,42.979,0,0,1,1.365-8.319,46.315,46.315,0,0,0,1.364-7.446q0-1.57-1.1-1.571a7.056,7.056,0,0,0-3.832,1.4q-0.118.523-1.162,5.118-2.09,9.192-2.09,13.089Q72.286,41.478,67,41.477Z"/><path class="cls-1" d="M107.82,31.239q0-7.271,4.384-11.49a13.986,13.986,0,0,1,9.958-4.217,9.015,9.015,0,0,1,5.632,1.687A5.389,5.389,0,0,1,130,21.728a7.749,7.749,0,0,1-1.422,4.741,9.938,9.938,0,0,1-3.456,2.966A26.293,26.293,0,0,1,117.575,32l-1.393.174q0.405,5.469,4.47,5.469a7.284,7.284,0,0,0,2.961-.7,11.261,11.261,0,0,0,2.439-1.4l0.871-.7,1.393,1.862a9.411,9.411,0,0,1-1.857,1.687,25.412,25.412,0,0,1-2.613,1.744A14.983,14.983,0,0,1,116.472,42a7.727,7.727,0,0,1-6.329-2.85Q107.82,36.3,107.82,31.239Zm13.006-4.422a7.462,7.462,0,0,0,1.742-5.119q0-3.141-1.858-3.141-2.208,0-3.4,3.752a23.229,23.229,0,0,0-1.19,7.01A7.866,7.866,0,0,0,120.827,26.817Z"/></svg>