<svg id="Layer_2" data-name="Layer 2" xmlns="http://www.w3.org/2000/svg" viewBox="0 0 586 492"><defs><style>.cls-1{fill:#d5e8a6;}.cls-2{fill:#3b4c1e;}.cls-3{fill:#455923;}.cls-4{fill:#97be5d;}.cls-5{fill:#88ac55;}.cls-6{fill:#80a04f;}</style></defs><title>option-lightbox-5</title><rect class="cls-1" width="586" height="492"/><polygon class="cls-2" points="155.039 385.976 163.54 385.976 167.79 372.057 150.76 372.057 155.039 385.976"/><polygon class="cls-2" points="422.46 385.976 430.989 385.976 435.24 372.057 418.21 372.057 422.46 385.976"/><path class="cls-2" d="M252.578,115.248h2.084a21.919,21.919,0,0,0-1.111,19.2h-3.889C248.356,127.666,248.495,120.693,252.578,115.248Z"/><rect class="cls-2" x="245.216" y="129.916" width="12.279" height="6.89"/><path class="cls-2" d="M333.144,115.248h-2.111a21.919,21.919,0,0,1,1.139,19.2h3.889C337.367,127.666,337.228,120.693,333.144,115.248Z"/><rect class="cls-2" x="328.199" y="129.916" width="12.279" height="6.89"/><rect class="cls-3" x="165.595" y="128.416" width="27.92" height="7.556" rx="3.778" ry="3.778"/><rect class="cls-3" x="392.484" y="128.416" width="27.92" height="7.556" rx="3.778" ry="3.778"/><rect class="cls-4" x="116.589" y="132.194" width="352.821" height="247.364" rx="28.754" ry="28.754"/><path class="cls-5" d="M229.02,302.049a403.662,403.662,0,0,1-112.431-15.53V350.8a28.837,28.837,0,0,0,28.781,28.754h7.723l1.972,6.417h8.5l1.972-6.417H420.4l1.972,6.417h8.5l1.972-6.417h7.723A28.837,28.837,0,0,0,469.327,350.8V209.259C423.933,264.433,333.366,302.049,229.02,302.049Z"/><path class="cls-6" d="M440.657,368.335h-3.139a0.417,0.417,0,0,1,0-.833h4.112a0.417,0.417,0,0,1,.445.386h0a0.417,0.417,0,0,1-.386.445h-1.031v0Zm-7.279,0h-4.139a0.417,0.417,0,1,1,0-.833h4.139A0.417,0.417,0,1,1,433.378,368.335Zm-8.334,0H420.96a0.417,0.417,0,0,1,0-.833H425.1a0.422,0.422,0,0,1,.441.4v0.014a0.442,0.442,0,0,1-.442.442v-0.025h-0.056Zm-8.334,0H412.57a0.417,0.417,0,1,1,0-.833h4.139a0.42,0.42,0,0,1,.111.833H416.71Zm-8.334,0h-4.139a0.417,0.417,0,1,1,0-.833h4.139a0.425,0.425,0,1,1,.183.83l-0.016,0h-0.167Zm-8.334,0H395.9a0.417,0.417,0,0,1,0-.833h4.139a0.431,0.431,0,0,1,.222.833h-0.222Zm-8.334,0h-4.139a0.417,0.417,0,1,1,0-.833h4.139a0.439,0.439,0,0,1,.278.833h-0.278Zm-8.334,0h-3.806a0.417,0.417,0,1,1,0-.833h4.139a0.417,0.417,0,0,1,0,.833h-0.333Zm-8.334,0h-3.723a0.417,0.417,0,1,1,0-.833h4.139a0.417,0.417,0,1,1-.028.833h-0.389Zm-8.334,0h-3.667a0.417,0.417,0,0,1,0-.833h4.139a0.417,0.417,0,1,1,0,.833H366.7Zm-8.334,0h-3.612a0.417,0.417,0,1,1,0-.833H358.9a0.417,0.417,0,0,1,0,.833h-0.528Zm-8.334,0h-3.556a0.417,0.417,0,0,1,0-.833h4.139a0.417,0.417,0,1,1,0,.833h-0.583Zm-8.334,0h-3.5a0.417,0.417,0,1,1,0-.833h4.139a0.417,0.417,0,0,1,0,.833H341.7Zm-8.334,0h-3.445a0.417,0.417,0,0,1,0-.833h4.139a0.417,0.417,0,1,1,0,.833h-0.695Zm-8.334,0h-3.389a0.417,0.417,0,1,1,0-.833h4.139a0.422,0.422,0,0,1,.441.4v0.014a0.442,0.442,0,0,1-.442.442v-0.025h-0.75Zm-8.334,0h-3.334a0.417,0.417,0,0,1,0-.833h4.251a0.417,0.417,0,1,1,0,.833H316.7Zm-8.334,0h-3.278a0.417,0.417,0,1,1,0-.833h4.195a0.417,0.417,0,0,1,0,.833h-0.917Zm-8.334,0h-3.223a0.417,0.417,0,0,1,0-.833h4.139a0.417,0.417,0,1,1,0,.833h-0.917Zm-8.334,0h-3.167a0.417,0.417,0,1,1,0-.833h4.084a0.417,0.417,0,0,1,0,.833h-0.917Zm-8.334,0h-3.111a0.417,0.417,0,0,1,0-.833h4.028a0.417,0.417,0,1,1,0,.833H283.36Zm-8.334,0H272a0.417,0.417,0,0,1,0-.833h4.139a0.456,0.456,0,0,1,.556.417,0.4,0.4,0,0,1-.556.417h-1.111Zm-8.334,0h-2.973a0.417,0.417,0,1,1,0-.833h4.139a0.417,0.417,0,0,1,0,.833h-1.167Zm-8.334,0H255.44a0.417,0.417,0,0,1,0-.833h4.139a0.417,0.417,0,1,1,0,.833h-1.222Zm-8.334,0h-2.861a0.417,0.417,0,1,1,0-.833H251.3a0.417,0.417,0,0,1,0,.833h-1.278Zm-8.334,0h-2.806a0.417,0.417,0,1,1,0-.833h4.139a0.417,0.417,0,1,1,0,.833h-1.334Zm-8.334,0H230.6a0.417,0.417,0,1,1,0-.833h4.139a0.431,0.431,0,0,1,.48.374q0,0.021,0,.042a0.4,0.4,0,0,1-.483.417h-1.389Zm-8.334,0h-2.695a0.417,0.417,0,1,1,0-.833h4.139a0.456,0.456,0,0,1,.556.417,0.4,0.4,0,0,1-.556.417h-1.445Zm-8.334,0h-2.639a0.417,0.417,0,1,1,0-.833h4.139a0.456,0.456,0,0,1,.556.417,0.4,0.4,0,0,1-.556.417h-1.5Zm-8.334,0h-2.584a0.417,0.417,0,1,1,0-.833h4.139a0.456,0.456,0,0,1,.556.417,0.4,0.4,0,0,1-.556.417h-1.556Zm-8.334,0h-2.528a0.417,0.417,0,1,1,0-.833h4.139a0.417,0.417,0,0,1,0,.833h-1.611Zm-8.334,0h-2.473a0.417,0.417,0,1,1,0-.833h4.139a0.417,0.417,0,1,1,0,.833h-1.667Zm-8.334,0h-2.389a0.417,0.417,0,1,1,0-.833H185.1a0.417,0.417,0,0,1-.028.833h-1.722Zm-8.334,0H172.68a0.417,0.417,0,1,1,0-.833h4.139a0.417,0.417,0,0,1,0,.833h-1.806Zm-8.334,0H164.4a0.417,0.417,0,1,1,0-.833h4.139a0.417,0.417,0,1,1,0,.833h-1.861Zm-8.334,0h-2.222a0.417,0.417,0,1,1,0-.833h4.139a0.417,0.417,0,1,1,0,.833h-1.917Zm-8.334,0h-2.167a0.417,0.417,0,1,1,0-.833h4.139c0.111,0.147-.114.519,0,0.833H150.01Zm-8.334,0h0a17.391,17.391,0,0,1-4.139-.917,0.417,0.417,0,0,1,.278-0.778,16.669,16.669,0,0,0,3.945.861,1.042,1.042,0,1,1,1.945.75h0Zm302.01-.695a0.417,0.417,0,0,1,0-.806,16.669,16.669,0,0,0,3.667-1.639,0.417,0.417,0,1,1,.417.695,17.558,17.558,0,0,1-3.862,1.722h0Zm-307.7-2.111h-0.222a17.78,17.78,0,0,1-3.223-2.778,0.417,0.417,0,1,1,.611-0.556,16.919,16.919,0,0,0,3.084,2.611A0.417,0.417,0,0,1,135.981,365.529Zm316.706-2.167a0.417,0.417,0,0,1-.278-0.695,17.058,17.058,0,0,0,2.5-3.167,0.417,0.417,0,1,1,.695.445,17.78,17.78,0,0,1-2.611,3.306,0.417,0.417,0,0,1-.25.083ZM130.4,359.472a0.417,0.417,0,0,1-.361-0.222,17.474,17.474,0,0,1-1.611-3.917,0.418,0.418,0,0,1,.806-0.222,16.669,16.669,0,0,0,1.528,3.723,0.417,0.417,0,0,1-.167.556Zm326.6-3.167h0a0.417,0.417,0,0,1-.278-0.519h0a16.668,16.668,0,0,0,.75-3.945,0.445,0.445,0,0,1,.445-0.389,0.417,0.417,0,0,1,.389.442h0a17.391,17.391,0,0,1-.778,4.167,0.417,0.417,0,0,1-.5.314h-0.029v-0.069ZM128.23,351.638a0.417,0.417,0,0,1-.417-0.5v-4.056a0.417,0.417,0,1,1,.833,0h0V350.8l0.056,0.333a0.417,0.417,0,0,1-.417.417h0ZM457.8,348.165a0.417,0.417,0,0,1-.417-0.417h0v-4.139a0.417,0.417,0,1,1,.833,0h0v4.139a0.417,0.417,0,0,1-.417.417h0ZM128.23,343.359a0.417,0.417,0,0,1-.417-0.556v-4a0.417,0.417,0,1,1,.833,0h0v4A0.417,0.417,0,0,1,128.23,343.359ZM457.8,339.887a0.417,0.417,0,0,1-.417-0.417h0V335.33a0.417,0.417,0,0,1,.833,0h0v4.139a0.417,0.417,0,0,1-.417.417h0ZM128.23,335.08a0.417,0.417,0,0,1-.417-0.417h0v-4.139a0.417,0.417,0,1,1,.833,0h0v4.139a0.417,0.417,0,0,1-.417.417h0ZM457.8,331.691a0.417,0.417,0,0,1-.417-0.417h0v-4.223a0.417,0.417,0,1,1,.833,0v4.139A0.417,0.417,0,0,1,457.8,331.691ZM128.23,326.8a0.417,0.417,0,0,1-.417-0.417h0v-4.139a0.417,0.417,0,1,1,.833,0v4.139a0.417,0.417,0,0,1-.417.417h0ZM457.8,323.357a0.417,0.417,0,0,1-.417-0.417h0v-4.167a0.417,0.417,0,0,1,.833,0v4.139a0.417,0.417,0,0,1-.387.444H457.8ZM128.23,318.523a0.417,0.417,0,0,1-.417-0.417h0v-4.139a0.417,0.417,0,1,1,.833,0v4.139a0.417,0.417,0,0,1-.417.417h0Zm329.568-3.5a0.417,0.417,0,0,1-.417-0.417h0v-4.112a0.417,0.417,0,1,1,.833,0v4.139A0.417,0.417,0,0,1,457.8,315.022ZM128.23,310.244a0.417,0.417,0,0,1-.417-0.417h0v-4.139a0.417,0.417,0,1,1,.833,0h0v4.139a0.417,0.417,0,0,1-.417.417h0ZM457.8,306.688a0.417,0.417,0,0,1-.417-0.417h0v-4.056a0.417,0.417,0,0,1,.833,0h0v4.139A0.417,0.417,0,0,1,457.8,306.688ZM128.23,301.965a0.417,0.417,0,0,1-.417-0.417h0v-4.139a0.417,0.417,0,1,1,.833,0h0v4.139a0.417,0.417,0,0,1-.417.417h0ZM457.8,298.493a0.417,0.417,0,0,1-.417-0.417h0v-4.139a0.417,0.417,0,1,1,.833,0v4.139a0.417,0.417,0,0,1-.417.417h0ZM128.23,293.686a0.417,0.417,0,0,1-.417-0.417h0V289.13a0.417,0.417,0,1,1,.833,0h0v4.139a0.417,0.417,0,0,1-.417.417h0ZM457.8,290.214a0.417,0.417,0,0,1-.417-0.417h0v-4.112a0.417,0.417,0,1,1,.833,0h0v4.139A0.417,0.417,0,0,1,457.8,290.214ZM128.23,285.408a0.417,0.417,0,0,1-.417-0.417h0v-4.139a0.417,0.417,0,1,1,.833,0v4.139a0.417,0.417,0,0,1-.417.417h0ZM457.8,281.935a0.417,0.417,0,0,1-.417-0.417h0v-4.112a0.417,0.417,0,0,1,.833,0h0v4.139A0.417,0.417,0,0,1,457.8,281.935ZM128.23,277.129a0.417,0.417,0,0,1-.417-0.417h0v-4.139a0.417,0.417,0,1,1,.833,0h0v4.139A0.417,0.417,0,0,1,128.23,277.129ZM457.8,273.656a0.417,0.417,0,0,1-.417-0.417h0v-4.112a0.417,0.417,0,1,1,.833,0h0v4.223a0.417,0.417,0,0,1-.417.333v-0.028ZM128.23,268.85a0.417,0.417,0,0,1-.417-0.417h0v-4.112a0.417,0.417,0,1,1,.833,0h0v4.139A0.417,0.417,0,0,1,128.23,268.85ZM457.8,265.377a0.417,0.417,0,0,1-.417-0.417h0v-4.112a0.417,0.417,0,0,1,.833,0h0v4.167a0.417,0.417,0,0,1-.417.389v-0.028ZM128.23,260.571a0.417,0.417,0,0,1-.417-0.417h0v-4.112a0.417,0.417,0,1,1,.833,0h0v4.139A0.417,0.417,0,0,1,128.23,260.571ZM457.8,257.1a0.417,0.417,0,0,1-.417-0.417h0V252.57a0.417,0.417,0,1,1,.833,0v4.112a0.417,0.417,0,0,1-.387.444H457.8V257.1ZM128.23,252.32a0.417,0.417,0,0,1-.417-0.417h0v-4.139a0.417,0.417,0,1,1,.833,0V251.9A0.417,0.417,0,0,1,128.23,252.32ZM457.8,248.848a0.417,0.417,0,0,1-.417-0.417h0v-4.139a0.417,0.417,0,0,1,.833,0h0v4.056A0.417,0.417,0,0,1,457.8,248.848ZM128.23,244.041a0.417,0.417,0,0,1-.417-0.417h0v-4.139a0.417,0.417,0,1,1,.833,0h0v4.139a0.417,0.417,0,0,1-.417.417h0ZM457.8,240.569a0.417,0.417,0,0,1-.417-0.417h0v-4.139a0.417,0.417,0,1,1,.833,0v4.139A0.417,0.417,0,0,1,457.8,240.569ZM128.23,235.763a0.417,0.417,0,0,1-.417-0.417h0v-4.139a0.417,0.417,0,1,1,.833,0h0v4.139A0.417,0.417,0,0,1,128.23,235.763ZM457.8,232.29a0.417,0.417,0,0,1-.417-0.417h0v-4.139a0.417,0.417,0,0,1,.833,0h0v4.139a0.417,0.417,0,0,1-.417.417h0ZM128.23,227.484a0.417,0.417,0,0,1-.417-0.417h0v-4.139a0.417,0.417,0,1,1,.833,0h0v4.139a0.417,0.417,0,0,1-.417.417h0ZM457.8,224.011a0.417,0.417,0,0,1-.417-0.417h0v-4.139a0.417,0.417,0,1,1,.833,0h0v4.139a0.417,0.417,0,0,1-.417.417h0ZM128.23,219.205a0.417,0.417,0,0,1-.417-0.417h0v-4.139a0.417,0.417,0,1,1,.833,0h0v4.139a0.417,0.417,0,0,1-.417.417h0ZM457.8,215.732a0.417,0.417,0,0,1-.417-0.417h0v-4.139a0.417,0.417,0,0,1,.833,0h0v4.139a0.417,0.417,0,0,1-.417.417h0ZM128.23,210.926a0.417,0.417,0,0,1-.417-0.417h0V206.37a0.417,0.417,0,1,1,.833,0v4.139A0.417,0.417,0,0,1,128.23,210.926ZM457.8,207.454a0.417,0.417,0,0,1-.417-0.417h0V202.9a0.417,0.417,0,1,1,.833,0h0v4.139A0.417,0.417,0,0,1,457.8,207.454ZM128.23,202.647a0.417,0.417,0,0,1-.417-0.417h0v-4.139a0.417,0.417,0,1,1,.833,0v4.139A0.417,0.417,0,0,1,128.23,202.647ZM457.8,199.175a0.417,0.417,0,0,1-.417-0.417h0v-4.112a0.417,0.417,0,1,1,.833,0h0v4.139A0.417,0.417,0,0,1,457.8,199.175ZM128.23,194.369a0.417,0.417,0,0,1-.417-0.417h0v-4.139a0.417,0.417,0,0,1,.833,0v4.139A0.417,0.417,0,0,1,128.23,194.369ZM457.8,190.9a0.417,0.417,0,0,1-.417-0.417h0v-4.112a0.417,0.417,0,0,1,.833,0v4.139A0.417,0.417,0,0,1,457.8,190.9ZM128.23,186.09a0.417,0.417,0,0,1-.417-0.417v-4a0.444,0.444,0,0,1,.889,0v4.139A0.417,0.417,0,0,1,128.23,186.09ZM457.8,182.617a0.417,0.417,0,0,1-.417-0.417h0v-4.112a0.417,0.417,0,1,1,.833,0h0v4.139a0.417,0.417,0,0,1-.417.417h0v-0.028ZM128.23,177.811a0.417,0.417,0,0,1-.417-0.417v-4.056a0.444,0.444,0,0,1,.889,0v4.139A0.417,0.417,0,0,1,128.23,177.811ZM457.8,174.338a0.417,0.417,0,0,1-.417-0.417h0V169.81a0.417,0.417,0,0,1,.833,0h0v4.139a0.417,0.417,0,0,1-.417.417h0v-0.028ZM128.23,169.532a0.417,0.417,0,0,1-.417-0.417V165a0.444,0.444,0,0,1,.889,0v4.139a0.417,0.417,0,0,1-.439.392H128.23v0ZM457.8,166.06a0.417,0.417,0,0,1-.417-0.417h0v-4.112a0.417,0.417,0,1,1,.833,0v4.139a0.417,0.417,0,0,1-.417.417h0V166.06ZM128.23,161.281h0a0.417,0.417,0,0,1-.417-0.417,17.474,17.474,0,0,1,.528-4.195,0.414,0.414,0,1,1,.806.194,16.669,16.669,0,0,0-.444,4,0.417,0.417,0,0,1-.414.419H128.23v0Zm329.207-3.445a0.417,0.417,0,0,1-.417-0.333,16.669,16.669,0,0,0-1.306-3.806,0.442,0.442,0,0,1,.793-0.389l0.013,0.028h0a17.335,17.335,0,0,1,1.361,4,0.417,0.417,0,0,1-.306.5h-0.139Zm-327.179-4.5h-0.194a0.417,0.417,0,0,1-.167-0.556,17.724,17.724,0,0,1,2.417-3.473,0.413,0.413,0,0,1,.583.583h0a16.835,16.835,0,0,0-2.306,3.306A0.417,0.417,0,0,1,130.258,153.336Zm323.6-2.778a0.417,0.417,0,0,1-.306-0.139,17.03,17.03,0,0,0-2.917-2.778,0.417,0.417,0,1,1,.5-0.667h0a17.863,17.863,0,0,1,3.056,2.778,0.425,0.425,0,0,1-.445.695Zm-318.123-3.334a0.417,0.417,0,0,1-.222-0.75,17.558,17.558,0,0,1,3.75-1.945,0.417,0.417,0,0,1,.278.778,16.669,16.669,0,0,0-3.584,1.861Zm311.538-1.667H447.1a16.669,16.669,0,0,0-3.889-1.111,0.417,0.417,0,0,1,0-.806,17.5,17.5,0,0,1,4.056,1.167A0.417,0.417,0,0,1,447.269,145.557ZM143.4,144.335a0.417,0.417,0,0,1,0-.833h0a17.475,17.475,0,0,1,2,0h4.167a0.417,0.417,0,1,1,0,.833H143.4Zm295.787,0h-4.139a0.417,0.417,0,1,1,0-.833h4.139a0.417,0.417,0,1,1,0,.722v0.111Zm-8.334,0h-4.139a0.417,0.417,0,1,1,0-.833h4.139a0.417,0.417,0,1,1,.056.722Zm-8.334,0h-4.139a0.417,0.417,0,1,1,0-.833h4.139a0.417,0.417,0,0,1,.111.722Zm-8.334,0h-4.139a0.417,0.417,0,1,1,0-.833h4.139a0.417,0.417,0,0,1,.167.722Zm-8.334,0h-4.139a0.417,0.417,0,1,1,0-.833h4.139a0.417,0.417,0,1,1,.222.722Zm-8.334,0h-4.139a0.417,0.417,0,1,1,0-.833h4.139a0.417,0.417,0,0,1,.278.722Zm-8.334,0h-4.139a0.417,0.417,0,1,1,0-.833h4.139a0.417,0.417,0,1,1,.333.722Zm-8.334,0h-3.75a0.417,0.417,0,1,1,0-.833h4.139a0.417,0.417,0,0,1,0,.722Zm-8.334,0h-3.695a0.417,0.417,0,1,1,0-.833h4.139a0.417,0.417,0,0,1,0,.722Zm-8.334,0h-3.639a0.417,0.417,0,1,1,0-.833h4.139a0.417,0.417,0,0,1,.15.57,0.431,0.431,0,0,1-.15.153Zm-8.334,0h-3.556a0.417,0.417,0,1,1,0-.833h4.223a0.417,0.417,0,1,1,0,.722Zm-8.334,0h-3.5a0.417,0.417,0,1,1,0-.833h4.167a0.417,0.417,0,1,1,0,.722Zm-8.334,0h-3.445a0.417,0.417,0,1,1,0-.833h4.112a0.417,0.417,0,1,1,0,.722Zm-8.334,0h-3.389a0.417,0.417,0,1,1,0-.833H331.5a0.417,0.417,0,0,1,0,.722Zm-8.334,0H319.17a0.417,0.417,0,1,1,0-.833h4a0.417,0.417,0,0,1,0,.722Zm-8.334,0h-3.278a0.417,0.417,0,1,1,0-.833h4.139a0.417,0.417,0,0,1,0,.722Zm-8.334,0h-3.223a0.417,0.417,0,1,1,0-.833h4.139a0.417,0.417,0,1,1,0,.722Zm-8.334,0h-3.167a0.417,0.417,0,1,1,0-.833h4.139a0.417,0.417,0,1,1,0,.722Zm-8.334,0h-3.112a0.417,0.417,0,1,1,0-.833h4.139a0.417,0.417,0,0,1,0,.722Zm-8.334,0h-3.056a0.417,0.417,0,1,1,0-.833h4.139a0.417,0.417,0,0,1,0,.722Zm-8.334,0h-3a0.417,0.417,0,1,1,0-.833h4.139a0.417,0.417,0,0,1,.158.556,0.4,0.4,0,0,1-.158.156Zm-8.334,0h-2.917a0.417,0.417,0,1,1,0-.833h4.139a0.417,0.417,0,0,1,0,.722Zm-8.334,0h-2.861a0.417,0.417,0,1,1,0-.833h4.139a0.417,0.417,0,1,1,0,.722Zm-8.334,0h-2.806a0.417,0.417,0,1,1,0-.833h4.139a0.417,0.417,0,1,1,0,.722Zm-8.334,0h-2.75a0.417,0.417,0,1,1,0-.833h4.139a0.417,0.417,0,0,1,.158.556,0.4,0.4,0,0,1-.158.156Zm-8.334,0h-2.695a0.417,0.417,0,1,1,0-.833h4.139a0.417,0.417,0,0,1,.158.556,0.4,0.4,0,0,1-.158.156Zm-8.334,0h-2.639a0.417,0.417,0,1,1,0-.833h4.139a0.417,0.417,0,0,1,0,.722Zm-8.334,0h-2.584a0.417,0.417,0,1,1,0-.833h4.139a0.417,0.417,0,0,1,.158.556,0.4,0.4,0,0,1-.158.156Zm-8.334,0h-2.528a0.417,0.417,0,0,1,0-.833h4.139a0.417,0.417,0,1,1,0,.722Zm-8.334,0h-2.473a0.417,0.417,0,0,1,0-.833h4.139a0.417,0.417,0,1,1,0,.722Zm-8.334,0h-2.417a0.417,0.417,0,0,1,0-.833h4.139a0.417,0.417,0,0,1,0,.722Zm-8.334,0h-2.361a0.417,0.417,0,0,1,0-.833H182.6a0.417,0.417,0,0,1,0,.722Zm-8.334,0h-2.278a0.417,0.417,0,0,1,0-.833h4.139a0.417,0.417,0,0,1-.028.722Zm-8.334,0h-2.111a0.417,0.417,0,0,1,0-.833h4.139a0.417,0.417,0,1,1-.111.722Zm-8.334,0h-2.111a0.417,0.417,0,1,1,0-.833h4.139a0.417,0.417,0,1,1-.056.722Z"/><path class="cls-6" d="M293.333,106.024c42.811,0,51.84,14.557,44.45,12.724a197.691,197.691,0,0,0-89.622.028C240.744,120.554,250.939,106.024,293.333,106.024Z"/></svg>