<svg id="Layer_2" data-name="Layer 2" xmlns="http://www.w3.org/2000/svg" viewBox="0 0 586 492"><defs><style>.cls-1{fill:#b4e7ef;}.cls-2{fill:#80c5d7;}.cls-3{fill:#6faf8d;}.cls-4{fill:#fcd5ca;}.cls-5{fill:#3f8c60;}.cls-6{fill:#e5beb5;}.cls-7{fill:#76939e;}</style></defs><title>option-lightbox-4</title><rect class="cls-1" width="586" height="492"/><path id="_Path_" data-name=" Path " class="cls-2" d="M446.271,273.969c0.226-2.824.424-5.647,0.424-8.471a100.948,100.948,0,0,0-188.737-50.036,64.3,64.3,0,0,0-73.191,53.848H162.629a60.314,60.314,0,0,0-60.286,60.343h0A60.314,60.314,0,0,0,162.629,390H423.371a60.314,60.314,0,0,0,60.286-60.343h0A60.343,60.343,0,0,0,446.271,273.969Z"/><path class="cls-3" d="M401.939,351.9a19.342,19.342,0,0,0-7.568-10.928l-9.714-6.946-24.99-19.4L349.277,305.9h-108.6l-10.391,8.725-24.99,19.4-9.714,6.946a19.342,19.342,0,0,0-7.568,10.928l-9.572,37.838h233.1Z"/><path class="cls-4" d="M240.677,238.7s-8.81,8.866-13.13-12.283c-4.574-22.59-4.433-34.9,3.784-37.471A5,5,0,0,1,238,191.281h0q0.056,0.116.1,0.234Z"/><path class="cls-5" d="M259.172,282.44l-7.342,7.426-11.295,11.605a3.727,3.727,0,0,0-1.073,2.824,3.812,3.812,0,0,0,1.468,2.824c6.89,5.365,23.663,17.309,40.21,20.274,0,0-33.376,1.948-51.928-8.471a9.318,9.318,0,0,0-10,0l-17.846,12.65-3.078,7.342,2.993-2.146a4.292,4.292,0,0,1,3.332-.678,4.094,4.094,0,0,1,2.824,1.948c5,8.7,19.766,28.237,51.335,28.237,40.661,0.028,85.078-40.944,99.875-44.3,10.024-2.231,22.59,9.4,22.59,9.4l-0.875-2a16.1,16.1,0,0,0-5.9-6.975L362.8,314.658a17.62,17.62,0,0,0-12.255-2.824v-0.9a15.389,15.389,0,0,0-3.84-10.081l-9.657-11.1-8.189-6.353Z"/><path class="cls-4" d="M258.692,266.684V272.5c0,10.7,3.756,35.353,36.285,34.9,29.225-.4,34.562-24.2,34.562-34.9v-7.342Z"/><path class="cls-6" d="M259.172,282.44a46.281,46.281,0,0,0,34.252,15.3c13.893,0,26.176-6.523,35.918-17.451L329.567,269l-70.875,1.581Z"/><path class="cls-4" d="M293.424,289.725c32.331,0,57.039-31.964,57.039-84.965,0-66.075-20.415-81.408-57.039-81.408s-57.18,15.333-57.18,81.407C236.243,257.761,261.064,289.725,293.424,289.725Z"/><path class="cls-4" d="M346.989,238.7s8.838,8.866,13.13-12.283c4.461-22.618,4.461-34.9-3.812-37.5a5,5,0,0,0-6.672,2.334h0q-0.056.116-.1,0.234Z"/><path class="cls-4" d="M293.988,123.352V289.7c31.993-.48,56.474-32.331,56.474-84.937C350.462,139.109,330.3,123.55,293.988,123.352Z"/><path class="cls-7" d="M250.475,118.157c34.732-24.566,63,4.857,109.9-16.152,0,0-16.688,19.4-32.783,21.319,0,0,22.166,10.024,49.556-21.319a60.06,60.06,0,0,1-36.285,45.179s14.627,0.988,31.682-16.8c0,0-5.647,42.977-77.539,42.977-37.725.056-46.93-20.811-46.93-20.811s-9.234,12.142-7.172,58.987h-5.478s-21.234-37.809,0-63.336C235.368,136.934,236.78,127.87,250.475,118.157Z"/><path class="cls-7" d="M342.81,152.549s9.234,12.283,7.2,59.128h5.478s21.234-37.809,0-63.336Z"/></svg>