<svg id="Layer_4" data-name="Layer 4" xmlns="http://www.w3.org/2000/svg" viewBox="0 0 135.04 101.99"><defs><style>.cls-1{fill:#80c5d7;}.cls-2{fill:#6faf8d;}.cls-3{fill:#fcd5ca;}.cls-4{fill:#3f8c60;}.cls-5{fill:#e5beb5;}.cls-6{fill:#76939e;}</style></defs><title>option-4</title><path id="_Path_" data-name=" Path " class="cls-1" d="M121.8,60.9c0.08-1,.15-2,0.15-3A35.75,35.75,0,0,0,55.11,40.18,22.77,22.77,0,0,0,29.19,59.25H21.35A21.36,21.36,0,0,0,0,80.62H0a21.36,21.36,0,0,0,21.35,21.37h92.34a21.36,21.36,0,0,0,21.35-21.37h0A21.37,21.37,0,0,0,121.8,60.9Z" transform="translate(0)"/><path class="cls-2" d="M106.1,88.5a6.85,6.85,0,0,0-2.68-3.87l-3.44-2.46L91.13,75.3l-3.68-3.09H48.99L45.31,75.3l-8.85,6.87-3.44,2.46a6.85,6.85,0,0,0-2.68,3.87l-3.39,13.4H109.5Z" transform="translate(0)"/><path class="cls-3" d="M48.99,48.41s-3.12,3.14-4.65-4.35c-1.62-8-1.57-12.36,1.34-13.27a1.77,1.77,0,0,1,2.363.827q0.02,0.041.037,0.083Z" transform="translate(0)"/><path class="cls-4" d="M55.54,63.9l-2.6,2.63-4,4.11a1.32,1.32,0,0,0-.38,1,1.35,1.35,0,0,0,.52,1c2.44,1.9,8.38,6.13,14.24,7.18,0,0-11.82.69-18.39-3a3.3,3.3,0,0,0-3.54,0L35.07,81.3l-1.09,2.6,1.06-.76a1.52,1.52,0,0,1,1.18-.24,1.45,1.45,0,0,1,1,.69c1.77,3.08,7,10,18.18,10C69.8,93.6,85.53,79.09,90.77,77.9c3.55-.79,8,3.33,8,3.33l-0.31-.71a5.7,5.7,0,0,0-2.09-2.47l-4.13-2.74a6.24,6.24,0,0,0-4.34-1V73.99a5.45,5.45,0,0,0-1.36-3.57l-3.42-3.93-2.9-2.25Z" transform="translate(0)"/><path class="cls-3" d="M55.37,58.32v2.06c0,3.79,1.33,12.52,12.85,12.36,10.35-.14,12.24-8.57,12.24-12.36v-2.6Z" transform="translate(0)"/><path class="cls-5" d="M55.54,63.9a16.39,16.39,0,0,0,12.13,5.42c4.92,0,9.27-2.31,12.72-6.18l0.08-4-25.1.56Z" transform="translate(0)"/><path class="cls-3" d="M67.67,66.48c11.45,0,20.2-11.32,20.2-30.09,0-23.4-7.23-28.83-20.2-28.83S47.42,12.99,47.42,36.39C47.42,55.16,56.21,66.48,67.67,66.48Z" transform="translate(0)"/><path class="cls-3" d="M86.64,48.41s3.13,3.14,4.65-4.35c1.58-8.01,1.58-12.36-1.35-13.28a1.77,1.77,0,0,0-2.363.827q-0.02.041-.037,0.083Z" transform="translate(0)"/><path class="cls-3" d="M67.87,7.56V66.47c11.33-.17,20-11.45,20-30.08C87.87,13.14,80.73,7.63,67.87,7.56Z" transform="translate(0)"/><path class="cls-6" d="M52.46,5.72C64.76-2.98,74.77,7.44,91.38,0c0,0-5.91,6.87-11.61,7.55,0,0,7.85,3.55,17.55-7.55A21.27,21.27,0,0,1,84.47,16s5.18,0.35,11.22-5.95c0,0-2,15.22-27.46,15.22-13.36.02-16.62-7.37-16.62-7.37s-3.27,4.3-2.54,20.89H47.13s-7.52-13.39,0-22.43C47.11,12.37,47.61,9.16,52.46,5.72Z" transform="translate(0)"/><path class="cls-6" d="M85.16,17.9s3.27,4.35,2.55,20.94h1.94s7.52-13.39,0-22.43Z" transform="translate(0)"/></svg>