<svg id="Layer_2" data-name="Layer 2" xmlns="http://www.w3.org/2000/svg" viewBox="0 0 586 492"><defs><style>.cls-1{fill:#a8c96f;}.cls-2{fill:#91aeb5;}.cls-3{fill:#76939e;}.cls-4{fill:#fcd5ca;}.cls-5{fill:#e2bfb7;}.cls-6{fill:#97be5d;}.cls-7{fill:#f0f0f0;}</style></defs><title>option-lightbox-1</title><rect class="cls-1" width="586" height="492"/><path id="_Path_" data-name=" Path " class="cls-2" d="M443.461,274.458c0.222-2.772.416-5.544,0.416-8.316A99.1,99.1,0,0,0,258.6,217.023a63.117,63.117,0,0,0-71.849,52.861H165.019a59.209,59.209,0,0,0-59.181,59.236h0a59.209,59.209,0,0,0,59.181,59.236H420.981a59.209,59.209,0,0,0,59.181-59.236h0A59.236,59.236,0,0,0,443.461,274.458Z"/><path class="cls-3" d="M393.76,191.3c18.1-9.369,5.184-47.483-19.4-33.929,18.1-24.948-14.22-39.084-22.176-29.715,0-27.47-42.522-31.711-54.94-9.092v-0.582c-12.668-22.619-54.663-17.768-54.663,9.563-8.066-9.369-40.387,4.851-22.176,29.715-24.559-13.555-37.477,24.559-19.4,33.929-25.835-5.544-35.2,48.121,4.186,48.121-16.8,10.339,0,60.983,36.507,41.995-1.58,18.738,22.453,36.479,37.671,20.54l0.748-.832,16.909-65.64V214.722l17.463,86.429,0.748,0.832c15.246,15.939,39.278-1.774,37.671-20.54,36.507,19.043,53.3-31.656,36.507-41.995C428.853,239.448,419.484,185.755,393.76,191.3Z"/><path class="cls-4" d="M296.742,339.016l32.737-25.751s-4.712-6.32-6.708-25.89H270.935c-1.913,19.459-6.708,25.89-6.708,25.89l32.515,25.751h0Z"/><path class="cls-5" d="M322.771,287.236H270.935c-0.222,2.024-.444,3.853-0.693,5.544a41.912,41.912,0,0,0,53.249,0C323.214,291.089,322.992,289.26,322.771,287.236Z"/><path class="cls-4" d="M296.742,296.162c30.491,0,53.942-31.988,53.942-84.96,0-66.055-19.4-81.412-53.942-81.412s-53.831,15.357-53.831,81.412C242.911,264.174,266.251,296.162,296.742,296.162Z"/><path class="cls-4" d="M297.518,129.818V296.134c30.186-.471,53.277-32.321,53.277-84.9C350.823,145.59,331.669,130.012,297.518,129.818Z"/><path class="cls-3" d="M347.081,150.33c-28.163-36.091-48.786-21.233-50.144-20.207-1.358-1.053-22.176-15.883-50.144,20.207-29.078,37.366-1.275,83.158-1.275,83.158h3.853s-1.275-31.739,4.518-46.6,18.1-21.483,23.257-21.483,9.9,7.955,19.6,8.039h0.277c9.813,0,14.58-7.928,19.709-7.928s17.436,6.6,23.257,21.483,4.518,46.6,4.518,46.6h3.881S376.158,187.7,347.081,150.33Z"/><path class="cls-4" d="M247.1,245.131s-8.316,8.87-12.391-12.28c-4.324-22.619-4.186-34.9,3.576-37.477a4.685,4.685,0,0,1,6.244,2.215v0q0.086,0.18.158,0.369Z"/><path class="cls-4" d="M347.413,245.131s8.316,8.87,12.391-12.28c4.324-22.619,4.158-34.9-3.576-37.477a4.657,4.657,0,0,0-6.223,2.156h0q-0.1.208-.18,0.421Z"/><path class="cls-6" d="M387.662,340.984a19.4,19.4,0,0,0-11.587-11.31l-46.292-16.41-32.764,21.011-32.792-21.011L217.936,329.73a19.4,19.4,0,0,0-11.587,11.254L188.22,388.108H405.79Z"/><polygon class="cls-7" points="360.358 323.992 340.151 377.463 296.936 377.463 296.798 377.463 253.583 377.463 233.542 324.048 221.622 328.261 232.211 388.024 296.798 388.024 296.936 388.024 361.55 388.024 371.64 327.984 360.358 323.992"/></svg>