<svg id="Layer_2" data-name="Layer 2" xmlns="http://www.w3.org/2000/svg" viewBox="0 0 120.52 101.28"><defs><style>.cls-1{fill:#73b6c6;}.cls-2{fill:#535b7c;}.cls-3{fill:#fff;}.cls-4{fill:#636c89;}.cls-5{fill:#e23963;}.cls-6{fill:#80c5d7;}</style></defs><title>option-2</title><path class="cls-1" d="M13.91,31.97H12.39a9.49,9.49,0,0,0-.6-3.75c-0.69-1.29-2.75-1.49-4.67-1.46S2.05,27.9.99,29.9c-0.94,1.77-.47,4.44,1.58,5.14a36.51,36.51,0,0,0,5.63,1,29.14,29.14,0,0,0,4.56.46C12.76,36.38,13.91,31.97,13.91,31.97Z" transform="translate(0 -0.04)"/><path class="cls-1" d="M13.91,31.97H12.39a9.49,9.49,0,0,0-.6-3.75c-0.69-1.29-2.75-1.49-4.67-1.46a9.1,9.1,0,0,0-3.58.91,4.12,4.12,0,0,0-.84,1.07c-0.93,1.78-.41,4.46,1.59,5.16a36.51,36.51,0,0,0,5.63,1c1,0.14,2.19.3,3.12,0.4C13.39,33.97,13.91,31.97,13.91,31.97Z" transform="translate(0 -0.04)"/><path class="cls-1" d="M106.47,31.71h1.52a9.49,9.49,0,0,1,.6-3.75c0.7-1.27,2.7-1.47,4.7-1.44s5,1.12,6.1,3.12c0.93,1.76.46,4.44-1.59,5.14a36.51,36.51,0,0,1-5.63,1,29.18,29.18,0,0,1-4.56.46C107.61,36.12,106.47,31.71,106.47,31.71Z" transform="translate(0 -0.04)"/><path class="cls-1" d="M106.47,31.71h1.52a9.49,9.49,0,0,1,.6-3.75c0.7-1.27,2.7-1.47,4.7-1.44a9.1,9.1,0,0,1,3.58.91,4.12,4.12,0,0,1,.84,1.07c0.93,1.76.46,4.44-1.59,5.14a36.54,36.54,0,0,1-5.63,1c-1,.14-2.19.3-3.12,0.4C106.99,33.71,106.47,31.71,106.47,31.71Z" transform="translate(0 -0.04)"/><rect class="cls-2" x="100.71" y="60.82" width="19.81" height="40.46" rx="6.3" ry="6.3"/><rect class="cls-2" y="60.82" width="19.81" height="40.46" rx="6.3" ry="6.3"/><path class="cls-1" d="M60.29,21.32h0c-0.21.46,0-21.2,0-21.28,0,0.11.23,21.77,0,21.32h0V21.32Zm0-21.28h0c-9,.41-20.84-0.25-28,1.55a16.26,16.26,0,0,0-11.17,9.39c-2.51,5.37-6.16,13.46-7,17.19-1.23,5.27-2.67,10.57-2.67,10.57s-5.9,2.72-7.34,4.38-2.18,3.64-2.92,8.17S0.58,67.52.7,73.48s1.26,8.77,3,10.83c6.23,7.19,34.71,8.93,56.59,8.25h0c21.89,0.68,50.38-1.07,56.57-8.25,1.78-2.06,2.92-4.87,3-10.83s0.29-17.65-.46-22.18-1.49-6.51-2.92-8.17-7.34-4.38-7.34-4.38-1.43-5.3-2.67-10.57c-0.87-3.73-4.53-11.82-7-17.19a16.26,16.26,0,0,0-11.18-9.4C81.15-.21,69.29.45,60.29,0.04Z" transform="translate(0 -0.04)"/><path class="cls-1" d="M4.08,43.13s-0.66,20.8-.21,21.5,7,1.94,22.3,5.41,34.12,4.07,34.12,4.07V46.31L12.2,35.78c-0.46,1.79-.78,3-0.78,3S5.51,41.47,4.08,43.13Z" transform="translate(0 -0.04)"/><path class="cls-1" d="M11.88,37.04a4.72,4.72,0,0,1,1.05-1.56,7.2,7.2,0,0,1,2.75-1.68c13.88,5.24,7.3,21.66,44.61,25.06,0,0-18.47,7-31-1.67S11.42,41.9,8.29,40.32c1.66-.89,3.14-1.57,3.14-1.57S11.6,38.04,11.88,37.04Z" transform="translate(0 -0.04)"/><path class="cls-3" d="M13.84,62.04a8.69,8.69,0,1,0-8.549-8.829q0,0.084,0,.169A8.63,8.63,0,0,0,13.84,62.04Z" transform="translate(0 -0.04)"/><path class="cls-2" d="M30.76,3.7C23.38,6.75,13.39,31.04,15.69,33.76c0.67,0.8,88.57.8,89.24,0,2.3-2.76-7.69-27-15.07-30.06S38.02,0.7,30.76,3.7Z" transform="translate(0 -0.04)"/><path class="cls-4" d="M76.06,34.33c15.82-.07,28.61-0.26,28.86-0.57,2.3-2.76-7.69-27-15.07-30.06C84.51,1.49,59.66.91,43.63,1.9Z" transform="translate(0 -0.04)"/><path class="cls-2" d="M10.91,76.04h0.46a3.7,3.7,0,0,1,.81.09l17.11,1.52,2.75,8.31L11.83,84.04H11.38a4,4,0,0,1-.46-7.91V76.04H10.91Z" transform="translate(0 -0.04)"/><path class="cls-2" d="M109.69,76.04h-0.46a3.7,3.7,0,0,0-.81.09L91.29,77.65l-2.75,8.31,20.24-1.92h0.45a4,4,0,0,0,.46-7.91V76.04Z" transform="translate(0 -0.04)"/><path class="cls-2" d="M33.51,78.64c0.21,1.21.84,4.35,2,5.79a8,8,0,0,0,5.3,2.87c6.8,1,32.28,1,39.08,0a8,8,0,0,0,5.3-2.87c1.12-1.44,1.75-4.58,2-5.79,0.14-.83-0.35-0.8-1.37-0.85-8.46-.43-42.39-0.43-50.85,0C33.86,77.84,33.37,77.82,33.51,78.64Z" transform="translate(0 -0.04)"/><path class="cls-3" d="M13.86,61.39a8.28,8.28,0,1,0-8.28-8.28h0A8.3,8.3,0,0,0,13.86,61.39Z" transform="translate(0 -0.04)"/><path class="cls-3" d="M13.86,60.81A7.71,7.71,0,1,0,6.15,53.1h0A7.72,7.72,0,0,0,13.86,60.81Z" transform="translate(0 -0.04)"/><circle class="cls-3" cx="13.87" cy="50.07" r="3.37"/><path class="cls-5" d="M4.72,66.18l10.13,2a1.26,1.26,0,0,1,1,1.34l-0.11,1a1,1,0,0,1-1.23.91l-10.13-2a1.26,1.26,0,0,1-1-1.34l0.11-1A1,1,0,0,1,4.72,66.18Z" transform="translate(0 -0.04)"/><path class="cls-5" d="M115.89,66.18l-10.13,2a1.26,1.26,0,0,0-1,1.34l0.11,1a1,1,0,0,0,1.23.91l10.13-2a1.26,1.26,0,0,0,1-1.34l-0.11-1A1,1,0,0,0,115.89,66.18Z" transform="translate(0 -0.04)"/><circle class="cls-3" cx="11.8" cy="79.96" r="2.58"/><circle class="cls-3" cx="108.82" cy="79.96" r="2.58"/><path class="cls-1" d="M11.88,37.04m92.94-3.19h0.1a7.2,7.2,0,0,1,2.75,1.68,4.72,4.72,0,0,1,1.06,1.51h0l0.37,1.4c-11.42-2.17-11.81,10.21-20.71,15.9-4.47,2.86-8.75,3.7-15.55,4.1a1.12,1.12,0,0,1-.86.41H48.64a1.12,1.12,0,0,1-.86-0.41c-6.82-.4-11.09-1.24-15.56-4.1-8.93-5.69-9.29-18.07-20.71-15.95l0.37-1.35h0a4.73,4.73,0,0,1,1.05-1.56,7.2,7.2,0,0,1,2.75-1.68h0.1c15,5.82,9.33,24,44.53,23.88,35.47-.11,29.36-18,44.51-23.88h0v0.05Zm3.9,3.19" transform="translate(0 -0.04)"/><path class="cls-3" d="M106.68,61.79a8.69,8.69,0,1,0-8.529-8.849q0,0.079,0,.159A8.63,8.63,0,0,0,106.68,61.79Z" transform="translate(0 -0.04)"/><path class="cls-3" d="M106.71,61.11a8.28,8.28,0,1,0-8.28-8.28h0A8.3,8.3,0,0,0,106.71,61.11Z" transform="translate(0 -0.04)"/><path class="cls-3" d="M106.71,60.54A7.71,7.71,0,1,0,99,52.83h0A7.72,7.72,0,0,0,106.71,60.54Z" transform="translate(0 -0.04)"/><circle class="cls-3" cx="106.71" cy="49.79" r="3.37"/><path class="cls-2" d="M11.42,38.75C22.81,36.5,23.21,49.31,32.09,55.04c6.72,4.31,13.11,3.86,28.21,4.3h0c15.1-.44,21.49,0,28.21-4.3,8.88-5.69,9.28-18.5,20.67-16.25l-0.09-.35c-11.41-2.17-11.8,10.21-20.7,15.9-6.72,4.31-13,4.08-28.09,4.52h0c-15.1-.44-21.36-0.22-28.09-4.52-8.92-5.69-9.28-18.07-20.7-15.95Z" transform="translate(0 -0.04)"/><path class="cls-6" d="M60.29,59.29m-1.18,0c-14.26-.39-20.49-0.07-27-4.26-8.88-5.69-9.28-18.5-20.67-16.25,0,0-1.48.68-3.14,1.57a17.8,17.8,0,0,0-4.2,2.81S3.71,55.44,3.74,61.45a16.84,16.84,0,0,0,.15,3.21c0.38,0.59,5.17,1.58,15.94,4l6.34,1.38c15.27,3.47,34.12,4.07,34.12,4.07V59.29H59.11ZM13.73,44.69h0.11a8.58,8.58,0,0,1,8.45,7.26,8.91,8.91,0,0,1,.12,1.43,8.68,8.68,0,0,1-5.86,8.25,8.42,8.42,0,0,1-7-.77,8.71,8.71,0,0,1-4.26-7.48A8.61,8.61,0,0,1,13.73,44.69Z" transform="translate(0 -0.04)"/><path class="cls-6" d="M60.29,59.29m1.18,0c14.26-.39,20.49-0.07,27-4.26,8.88-5.69,9.28-18.5,20.67-16.25,0,0,1.48.68,3.14,1.57a17.8,17.8,0,0,1,4.2,2.81s0.39,12.28.36,18.29a16.82,16.82,0,0,1-.15,3.21c-0.38.59-5.17,1.58-15.94,4l-6.31,1.38c-15.27,3.47-34.15,4.07-34.15,4.07V59.29h1.18Zm45.39-14.57h-0.11a8.58,8.58,0,0,0-8.42,7.26,8.9,8.9,0,0,0-.12,1.43,8.68,8.68,0,0,0,5.86,8.25,8.42,8.42,0,0,0,7-.77,8.71,8.71,0,0,0,4.2-7.48,8.61,8.61,0,0,0-8.39-8.72Z" transform="translate(0 -0.04)"/></svg>