<svg id="Layer_3" data-name="Layer 3" xmlns="http://www.w3.org/2000/svg" viewBox="0 0 586 492"><defs><style>.cls-1{fill:#4d7296;}.cls-2{fill:#73b6c6;}.cls-3{fill:#535b7c;}.cls-4{fill:#fff;}.cls-5{fill:#636c89;}.cls-6{fill:#e23963;}.cls-7{fill:#80c5d7;}</style></defs><title>option-lightbox-2</title><rect class="cls-1" width="586" height="492"/><path class="cls-2" d="M170.681,196.624H166.67a25.044,25.044,0,0,0-1.583-9.9c-1.821-3.4-7.257-3.932-12.324-3.853s-13.38,3.008-16.177,8.287c-2.481,4.671-1.24,11.717,4.17,13.565a96.35,96.35,0,0,0,14.858,2.639,76.9,76.9,0,0,0,12.034,1.214C167.647,208.262,170.681,196.624,170.681,196.624Z"/><path class="cls-2" d="M170.681,196.624H166.67a25.044,25.044,0,0,0-1.583-9.9c-1.821-3.4-7.257-3.932-12.324-3.853a24.015,24.015,0,0,0-9.448,2.4A10.873,10.873,0,0,0,141.1,188.1c-2.454,4.7-1.082,11.77,4.2,13.617a96.35,96.35,0,0,0,14.858,2.639c2.639,0.369,5.779.792,8.234,1.056C169.309,201.9,170.681,196.624,170.681,196.624Z"/><path class="cls-2" d="M414.949,195.938h4.011a25.044,25.044,0,0,1,1.583-9.9c1.847-3.352,7.125-3.879,12.4-3.8s13.2,2.956,16.1,8.234c2.454,4.645,1.214,11.717-4.2,13.565a96.35,96.35,0,0,1-14.858,2.639,77.007,77.007,0,0,1-12.034,1.214C417.958,207.576,414.949,195.938,414.949,195.938Z"/><path class="cls-2" d="M414.949,195.938h4.011a25.044,25.044,0,0,1,1.583-9.9c1.847-3.352,7.125-3.879,12.4-3.8a24.015,24.015,0,0,1,9.448,2.4,10.872,10.872,0,0,1,2.217,2.824c2.454,4.645,1.214,11.717-4.2,13.565a96.43,96.43,0,0,1-14.858,2.639c-2.639.369-5.779,0.792-8.234,1.056C416.321,201.216,414.949,195.938,414.949,195.938Z"/><rect class="cls-3" x="399.748" y="272.865" width="52.279" height="106.775" rx="16.626" ry="16.626"/><rect class="cls-3" x="133.973" y="272.865" width="52.279" height="106.775" rx="16.626" ry="16.626"/><path class="cls-2" d="M293.079,168.518h0c-0.554,1.214,0-55.947,0-56.158,0,0.29.607,57.451,0,56.264h0v-0.106Zm0-56.158h0c-23.751,1.082-55-.66-73.893,4.09a42.91,42.91,0,0,0-29.478,24.78c-6.624,14.172-16.256,35.521-18.473,45.365-3.246,13.908-7.046,27.894-7.046,27.894s-15.57,7.178-19.37,11.559-5.753,9.606-7.706,21.561-1.61,42.831-1.293,58.56,3.325,23.144,7.917,28.581c16.441,18.975,91.6,23.566,149.342,21.772h0c57.768,1.795,132.954-2.824,149.289-21.772,4.7-5.436,7.706-12.852,7.917-28.581s0.765-46.579-1.214-58.533-3.932-17.18-7.706-21.561S422,214.516,422,214.516s-3.774-13.987-7.046-27.894c-2.3-9.844-11.955-31.193-18.473-45.365a42.91,42.91,0,0,0-29.5-24.807C348.129,111.7,316.83,113.442,293.079,112.36Z"/><path class="cls-2" d="M144.74,226.075s-1.742,54.892-.554,56.739,18.473,5.12,58.85,14.277,90.043,10.741,90.043,10.741V234.467l-126.91-27.789c-1.214,4.724-2.058,7.917-2.058,7.917S148.514,221.695,144.74,226.075Z"/><path class="cls-2" d="M165.324,210a12.456,12.456,0,0,1,2.771-4.117,19,19,0,0,1,7.257-4.434c36.63,13.828,19.265,57.161,117.727,66.134,0,0-48.743,18.473-81.81-4.407s-47.159-40.351-55.419-44.52c4.381-2.349,8.287-4.143,8.287-4.143S164.585,212.643,165.324,210Z"/><path class="cls-4" d="M170.5,275.979a22.933,22.933,0,1,0-22.561-23.3v0.446A22.775,22.775,0,0,0,170.5,275.979Z"/><path class="cls-3" d="M215.149,122.019c-19.476,8.049-45.84,72.151-39.77,79.329,1.768,2.111,233.738,2.111,235.506,0,6.07-7.284-20.294-71.254-39.77-79.329S234.308,114.1,215.149,122.019Z"/><path class="cls-5" d="M334.7,202.852c41.749-.185,75.5-0.686,76.162-1.5,6.07-7.284-20.294-71.254-39.77-79.329-14.092-5.832-79.672-7.363-121.976-4.75Z"/><path class="cls-3" d="M162.764,312.926h1.214a9.765,9.765,0,0,1,2.138.238l45.154,4.011,7.257,21.93-53.335-5.067H164a10.556,10.556,0,0,1-1.214-20.875v-0.238h-0.026Z"/><path class="cls-3" d="M423.447,312.926h-1.214a9.765,9.765,0,0,0-2.138.238l-45.206,4.011-7.257,21.93,53.414-5.067h1.188a10.556,10.556,0,0,0,1.214-20.875v-0.238Z"/><path class="cls-3" d="M222.406,319.787c0.554,3.193,2.217,11.48,5.278,15.28a21.112,21.112,0,0,0,13.987,7.574c17.945,2.639,85.188,2.639,103.133,0a21.112,21.112,0,0,0,13.987-7.574c2.956-3.8,4.618-12.087,5.278-15.28,0.369-2.19-.924-2.111-3.615-2.243-22.326-1.135-111.868-1.135-134.194,0C223.33,317.676,222.037,317.623,222.406,319.787Z"/><path class="cls-4" d="M170.549,274.264A21.851,21.851,0,1,0,148.7,252.413h0A21.9,21.9,0,0,0,170.549,274.264Z"/><path class="cls-4" d="M170.549,272.733A20.347,20.347,0,1,0,150.2,252.386h0A20.373,20.373,0,0,0,170.549,272.733Z"/><circle class="cls-4" cx="170.576" cy="244.496" r="8.893"/><path class="cls-6" d="M146.429,286.9l26.733,5.278a3.325,3.325,0,0,1,2.639,3.536l-0.29,2.639a2.639,2.639,0,0,1-3.246,2.4l-26.733-5.278a3.325,3.325,0,0,1-2.639-3.536l0.29-2.639A2.639,2.639,0,0,1,146.429,286.9Z"/><path class="cls-6" d="M439.809,286.9l-26.733,5.278a3.325,3.325,0,0,0-2.639,3.536l0.29,2.639a2.639,2.639,0,0,0,3.246,2.4l26.733-5.278a3.325,3.325,0,0,0,2.639-3.536l-0.29-2.639A2.639,2.639,0,0,0,439.809,286.9Z"/><circle class="cls-4" cx="165.113" cy="323.376" r="6.809"/><circle class="cls-4" cx="421.151" cy="323.376" r="6.809"/><path class="cls-2" d="M410.595,201.585h0.264a19,19,0,0,1,7.257,4.434,12.456,12.456,0,0,1,2.8,3.985h0l0.976,3.695c-30.138-5.727-31.167,26.944-54.654,41.96-11.8,7.548-23.091,9.764-41.037,10.82a2.956,2.956,0,0,1-2.27,1.082H262.335a2.956,2.956,0,0,1-2.27-1.082c-18-1.056-29.267-3.272-41.063-10.82-23.566-15.016-24.517-47.687-54.654-42.092L165.324,210h0a12.483,12.483,0,0,1,2.771-4.117,19,19,0,0,1,7.257-4.434h0.264c39.585,15.359,24.622,63.336,117.516,63.02,93.606-.29,77.482-47.5,117.463-63.02h0v0.132Z"/><path class="cls-4" d="M415.5,275.32A22.933,22.933,0,1,0,393,251.967v0.42A22.775,22.775,0,0,0,415.5,275.32Z"/><path class="cls-4" d="M415.583,273.525a21.851,21.851,0,1,0-21.851-21.851h0A21.9,21.9,0,0,0,415.583,273.525Z"/><path class="cls-4" d="M415.583,272.021a20.347,20.347,0,1,0-20.347-20.347h0A20.373,20.373,0,0,0,415.583,272.021Z"/><circle class="cls-4" cx="415.583" cy="243.757" r="8.894"/><path class="cls-3" d="M164.11,214.516c30.058-5.938,31.114,27.868,54.549,42.99,17.734,11.374,34.6,10.187,74.447,11.348h0c39.849-1.161,56.713,0,74.447-11.348,23.434-15.016,24.49-48.822,54.549-42.884l-0.238-.924c-30.111-5.727-31.14,26.944-54.628,41.96-17.734,11.374-34.307,10.767-74.13,11.928h0c-39.849-1.161-56.369-.581-74.13-11.928-23.54-15.016-24.49-47.687-54.628-42.092Z"/><path class="cls-7" d="M289.965,268.722c-37.632-1.029-54.074-.185-71.254-11.242-23.435-15.016-24.49-48.822-54.549-42.884,0,0-3.906,1.795-8.287,4.143a46.975,46.975,0,0,0-11.084,7.416s-1.029,32.407-.95,48.268a44.441,44.441,0,0,0,.4,8.471c1,1.557,13.644,4.17,42.066,10.556l16.731,3.642c40.3,9.157,90.043,10.741,90.043,10.741v-39.11h-3.114Zm-119.759-38.53h0.29a22.643,22.643,0,0,1,22.3,19.159,23.514,23.514,0,0,1,.317,3.774A22.907,22.907,0,0,1,177.648,274.9a22.221,22.221,0,0,1-18.473-2.032,22.986,22.986,0,0,1-11.242-19.74A22.722,22.722,0,0,1,170.206,230.192Z"/><path class="cls-7" d="M296.193,268.722c37.632-1.029,54.074-.185,71.254-11.242,23.434-15.016,24.49-48.822,54.549-42.884,0,0,3.906,1.795,8.287,4.143a46.974,46.974,0,0,1,11.084,7.416s1.029,32.407.95,48.268a44.388,44.388,0,0,1-.4,8.471c-1,1.557-13.644,4.17-42.066,10.556L383.2,297.091c-40.3,9.157-90.123,10.741-90.123,10.741v-39.11h3.114Zm119.785-38.451h-0.29a22.643,22.643,0,0,0-22.221,19.159,23.486,23.486,0,0,0-.317,3.774,22.907,22.907,0,0,0,15.465,21.772,22.221,22.221,0,0,0,18.473-2.032,22.986,22.986,0,0,0,11.084-19.74,22.722,22.722,0,0,0-22.141-23.012Z"/></svg>