<svg id="Layer_3" data-name="Layer 3" xmlns="http://www.w3.org/2000/svg" viewBox="0 0 133.53 102.17"><defs><style>.cls-1{fill:#ffe9cf;}.cls-2{fill:#f993b6;}.cls-3{fill:#91acb5;}.cls-4{fill:#76939b;}.cls-5{fill:#fff3e1;}.cls-6{fill:#fa577f;}.cls-7{fill:#ff5a83;}.cls-8{fill:#ffe4ce;}.cls-9{fill:#fff;}</style></defs><title>option-3</title><rect class="cls-1" x="89.39" y="55.2" width="36.21" height="38.28"/><rect class="cls-1" x="7.87" y="55.2" width="36.27" height="38.28"/><polygon class="cls-2" points="13.73 13.9 87.2 13.9 87.2 61.35 0 61.35 13.73 13.9"/><polygon class="cls-2" points="119.8 13.9 46.26 13.9 46.26 61.35 133.53 61.35 119.8 13.9"/><rect class="cls-3" x="6.21" y="93.36" width="41.83" height="3.31"/><rect class="cls-4" x="4.85" y="96.73" width="43.19" height="5.38"/><rect class="cls-3" x="85.43" y="93.36" width="41.83" height="3.31"/><rect class="cls-4" x="85.43" y="96.73" width="43.25" height="5.38"/><polygon class="cls-5" points="35.44 34.49 67.74 13.19 97.68 34.49 97.68 102.17 35.44 102.17 35.44 34.49"/><rect class="cls-6" x="72.3" y="75.43" width="14.79" height="26.74"/><rect class="cls-4" x="105.54" y="64.78" width="12.07" height="21.06"/><rect class="cls-4" x="15.86" y="64.78" width="12.13" height="21.06"/><polygon class="cls-7" points="57.09 9.41 66.5 0 66.56 0.06 66.56 0 75.96 9.41 75.91 9.47 114.83 48.34 105.43 57.74 66.56 18.81 27.63 57.74 18.28 48.34 57.15 9.47 57.09 9.41"/><polygon class="cls-8" points="111.11 52.06 109.63 53.54 66.32 11.77 23.19 53.3 21.77 51.83 65.2 10 66.32 8.87 111.11 52.06"/><rect class="cls-4" x="57.03" y="75.43" width="9.23" height="16.09"/><rect class="cls-3" x="58.33" y="83.83" width="2.84" height="6.51"/><rect class="cls-3" x="62.06" y="83.83" width="2.9" height="6.51"/><rect class="cls-3" x="58.33" y="76.56" width="2.84" height="6.57"/><rect class="cls-3" x="62.06" y="76.56" width="2.9" height="6.57"/><path class="cls-9" d="M85.9,89.69a0.71,0.71,0,1,0-.71-0.71h0a0.68,0.68,0,0,0,.649.71H85.9Z"/><rect class="cls-3" x="112.17" y="75.79" width="3.73" height="8.58"/><rect class="cls-3" x="107.2" y="75.79" width="3.79" height="8.58"/><rect class="cls-3" x="112.17" y="66.32" width="3.73" height="8.52"/><rect class="cls-3" x="107.2" y="66.32" width="3.79" height="8.52"/><rect class="cls-3" x="17.57" y="75.79" width="3.79" height="8.58"/><rect class="cls-3" x="22.48" y="75.79" width="3.79" height="8.58"/><rect class="cls-3" x="17.57" y="66.32" width="3.79" height="8.52"/><rect class="cls-3" x="22.48" y="66.32" width="3.79" height="8.52"/><rect class="cls-4" x="44.55" y="75.43" width="9.29" height="16.09"/><rect class="cls-3" x="45.85" y="83.83" width="2.9" height="6.51"/><rect class="cls-3" x="49.64" y="83.83" width="2.9" height="6.51"/><rect class="cls-3" x="45.85" y="76.56" width="2.9" height="6.57"/><rect class="cls-3" x="49.64" y="76.56" width="2.9" height="6.57"/><path class="cls-3" d="M66.58,56.17a10.23,10.23,0,1,0-.06,0h0.06Z"/><path class="cls-8" d="M66.58,52.83a6.88,6.88,0,1,0-.08,0h0.08Z"/></svg>