<svg id="Layer_5" data-name="Layer 5" xmlns="http://www.w3.org/2000/svg" viewBox="0 0 127 100.77"><defs><style>.cls-1{fill:#3b4c1e;}.cls-2{fill:#455923;}.cls-3{fill:#97be5d;}.cls-4{fill:#88ac55;}.cls-5{fill:#80a04f;}</style></defs><title>option-5</title><polygon class="cls-1" points="13.84 100.77 16.9 100.77 18.43 95.76 12.3 95.76 13.84 100.77"/><polygon class="cls-1" points="110.1 100.77 113.17 100.77 114.7 95.76 108.57 95.76 110.1 100.77"/><path class="cls-1" d="M48.95,3.32H49.7a7.89,7.89,0,0,0-.4,6.91H47.9C47.43,7.79,47.48,5.28,48.95,3.32Z"/><rect class="cls-1" x="46.3" y="8.6" width="4.42" height="2.48"/><path class="cls-1" d="M77.95,3.32H77.19a7.89,7.89,0,0,1,.41,6.91H79C79.47,7.79,79.42,5.28,77.95,3.32Z"/><rect class="cls-1" x="76.17" y="8.6" width="4.42" height="2.48"/><rect class="cls-2" x="17.64" y="8.06" width="10.05" height="2.72" rx="1.36" ry="1.36"/><rect class="cls-2" x="99.31" y="8.06" width="10.05" height="2.72" rx="1.36" ry="1.36"/><rect class="cls-3" y="9.42" width="127" height="89.04" rx="10.35" ry="10.35"/><path class="cls-4" d="M40.47,70.56A145.3,145.3,0,0,1,0,64.97V88.11A10.38,10.38,0,0,0,10.36,98.46h2.78l0.71,2.31h3.06l0.71-2.31h91.74l0.71,2.31h3.06l0.71-2.31h2.78a10.38,10.38,0,0,0,10.35-10.35V37.16C110.63,57.02,78.03,70.56,40.47,70.56Z"/><path class="cls-5" d="M116.65,94.42h-1.13a0.15,0.15,0,0,1,0-.3H117a0.15,0.15,0,0,1,.16.139h0a0.15,0.15,0,0,1-.139.16H116.65Zm-2.62,0h-1.49a0.15,0.15,0,0,1,0-.3h1.49A0.15,0.15,0,0,1,114.03,94.42Zm-3,0h-1.47a0.15,0.15,0,0,1,0-.3h1.49a0.152,0.152,0,0,1,.159.15,0.159,0.159,0,0,1-.159.159V94.42h-0.02Zm-3,0h-1.49a0.15,0.15,0,0,1,0-.3h1.49a0.151,0.151,0,1,1,.04.3h-0.04Zm-3,0h-1.49a0.15,0.15,0,0,1,0-.3h1.49a0.153,0.153,0,1,1,.06.3h-0.06Zm-3,0h-1.49a0.15,0.15,0,0,1,0-.3h1.49a0.155,0.155,0,0,1,.08.3h-0.08Zm-3,0H97.54a0.15,0.15,0,1,1,0-.3h1.49a0.158,0.158,0,0,1,.1.3h-0.1Zm-3,0H94.66a0.15,0.15,0,1,1,0-.3h1.49a0.15,0.15,0,0,1,0,.3H96.03Zm-3,0H91.69a0.15,0.15,0,0,1,0-.3h1.49a0.15,0.15,0,1,1-.01.3H93.03Zm-3,0H88.71a0.15,0.15,0,1,1,0-.3H90.2a0.15,0.15,0,1,1,0,.3H90.03Zm-3,0h-1.3a0.15,0.15,0,1,1,0-.3h1.49a0.15,0.15,0,1,1,0,.3H87.03Zm-3,0H82.75a0.15,0.15,0,0,1,0-.3h1.49a0.15,0.15,0,0,1,0,.3H84.03Zm-3,0H79.77a0.15,0.15,0,1,1,0-.3h1.49a0.15,0.15,0,1,1,0,.3H81.03Zm-3,0H76.79a0.15,0.15,0,1,1,0-.3h1.49a0.15,0.15,0,1,1,0,.3H78.03Zm-3,0H73.81a0.15,0.15,0,0,1,0-.3H75.3a0.152,0.152,0,0,1,.159.15,0.159,0.159,0,0,1-.159.159V94.42H75.03Zm-3,0h-1.2a0.15,0.15,0,0,1,0-.3h1.53a0.15,0.15,0,1,1,0,.3H72.03Zm-3,0H67.85a0.15,0.15,0,1,1,0-.3h1.51a0.15,0.15,0,1,1,0,.3H69.03Zm-3,0H64.87a0.15,0.15,0,1,1,0-.3h1.49a0.15,0.15,0,1,1,0,.3H66.03Zm-3,0H61.89a0.15,0.15,0,0,1,0-.3h1.47a0.15,0.15,0,1,1,0,.3H63.03Zm-3,0H58.91a0.15,0.15,0,1,1,0-.3h1.45a0.15,0.15,0,1,1,0,.3H60.03Zm-3,0H55.94a0.15,0.15,0,0,1,0-.3h1.49a0.164,0.164,0,0,1,.2.15,0.144,0.144,0,0,1-.2.15h-0.4Zm-3,0H52.96a0.15,0.15,0,1,1,0-.3h1.49a0.15,0.15,0,0,1,0,.3H54.03Zm-3,0H49.98a0.15,0.15,0,1,1,0-.3h1.49a0.15,0.15,0,1,1,0,.3H51.03Zm-3,0H47a0.15,0.15,0,0,1,0-.3h1.49a0.15,0.15,0,1,1,0,.3H48.03Zm-3,0H44.02a0.15,0.15,0,0,1,0-.3h1.49a0.15,0.15,0,1,1,0,.3H45.03Zm-3,0H41.04a0.15,0.15,0,1,1,0-.3h1.49a0.155,0.155,0,0,1,.174.15,0.143,0.143,0,0,1-.174.15h-0.5Zm-3,0H38.06a0.15,0.15,0,1,1,0-.3h1.49a0.164,0.164,0,0,1,.2.15,0.144,0.144,0,0,1-.2.15H39.03Zm-3,0H35.08a0.15,0.15,0,0,1,0-.3h1.49a0.164,0.164,0,0,1,.2.15,0.144,0.144,0,0,1-.2.15H36.03Zm-3,0H32.1a0.15,0.15,0,0,1,0-.3h1.49a0.164,0.164,0,0,1,.2.15,0.144,0.144,0,0,1-.2.15H33.03Zm-3,0H29.12a0.15,0.15,0,1,1,0-.3h1.49a0.15,0.15,0,1,1,0,.3H30.03Zm-3,0H26.14a0.15,0.15,0,1,1,0-.3h1.49a0.15,0.15,0,1,1,0,.3h-0.6Zm-3,0H23.17a0.15,0.15,0,1,1,0-.3h1.49a0.15,0.15,0,0,1-.01.3H24.03Zm-3,0H20.19a0.15,0.15,0,1,1,0-.3h1.49a0.15,0.15,0,0,1,0,.3H21.03Zm-3,0H17.21a0.15,0.15,0,0,1,0-.3H18.7a0.15,0.15,0,0,1,0,.3H18.03Zm-3,0h-0.8a0.15,0.15,0,0,1,0-.3h1.49a0.15,0.15,0,1,1,0,.3H15.03Zm-3,0H11.25a0.15,0.15,0,1,1,0-.3h1.49c0.04,0.053-.041.187,0,0.3H12.03Zm-3,0h0a6.26,6.26,0,0,1-1.49-.33,0.15,0.15,0,0,1,.1-0.28,6,6,0,0,0,1.42.31,0.375,0.375,0,0,1,.7.27h0Zm108.71-.25a0.15,0.15,0,0,1,0-.29,6,6,0,0,0,1.32-.59,0.15,0.15,0,1,1,.15.25,6.32,6.32,0,0,1-1.39.62h0ZM6.98,93.41H6.9a6.4,6.4,0,0,1-1.16-1,0.15,0.15,0,1,1,.22-0.2,6.09,6.09,0,0,0,1.11.94A0.15,0.15,0,0,1,6.98,93.41Zm114-.78a0.15,0.15,0,0,1-.1-0.25,6.14,6.14,0,0,0,.9-1.14,0.15,0.15,0,1,1,.25.16,6.4,6.4,0,0,1-.94,1.19,0.15,0.15,0,0,1-.09.03ZM4.97,91.23a0.15,0.15,0,0,1-.13-0.08,6.29,6.29,0,0,1-.58-1.41,0.15,0.15,0,0,1,.29-0.08A6,6,0,0,0,5.1,91a0.15,0.15,0,0,1-.06.2Zm117.56-1.14h0a0.15,0.15,0,0,1-.1-0.187v0a6,6,0,0,0,.27-1.42,0.16,0.16,0,0,1,.16-0.14,0.15,0.15,0,0,1,.14.159h0a6.26,6.26,0,0,1-.28,1.5,0.15,0.15,0,0,1-.18.113l-0.01,0V90.09ZM4.19,88.41a0.15,0.15,0,0,1-.15-0.18V86.77a0.15,0.15,0,1,1,.3,0h0v1.34l0.02,0.12a0.15,0.15,0,0,1-.15.15h0Zm118.63-1.25a0.15,0.15,0,0,1-.15-0.15h0V85.52a0.15,0.15,0,1,1,.3,0v1.49a0.15,0.15,0,0,1-.15.15h0ZM4.19,85.43a0.15,0.15,0,0,1-.15-0.2V83.79a0.15,0.15,0,1,1,.3,0h0v1.44A0.15,0.15,0,0,1,4.19,85.43Zm118.63-1.25a0.15,0.15,0,0,1-.15-0.15h0V82.54a0.15,0.15,0,1,1,.3,0v1.49A0.15,0.15,0,0,1,122.82,84.18ZM4.19,82.45a0.15,0.15,0,0,1-.15-0.15h0V80.81a0.15,0.15,0,1,1,.3,0h0V82.3a0.15,0.15,0,0,1-.15.15h0Zm118.63-1.22a0.15,0.15,0,0,1-.15-0.15h0V79.56a0.15,0.15,0,1,1,.3,0v1.49A0.15,0.15,0,0,1,122.82,81.23ZM4.19,79.47a0.15,0.15,0,0,1-.15-0.15h0V77.83a0.15,0.15,0,1,1,.3,0v1.49a0.15,0.15,0,0,1-.15.15h0Zm118.63-1.24a0.15,0.15,0,0,1-.15-0.15h0v-1.5a0.15,0.15,0,1,1,.3,0v1.49a0.15,0.15,0,0,1-.14.16h-0.01ZM4.19,76.49a0.15,0.15,0,0,1-.15-0.15h0V74.85a0.15,0.15,0,1,1,.3,0v1.49a0.15,0.15,0,0,1-.15.15h0Zm118.63-1.26a0.15,0.15,0,0,1-.15-0.15h0V73.6a0.15,0.15,0,1,1,.3,0v1.49A0.15,0.15,0,0,1,122.82,75.23ZM4.19,73.51a0.15,0.15,0,0,1-.15-0.15h0V71.87a0.15,0.15,0,1,1,.3,0h0v1.49a0.15,0.15,0,0,1-.15.15h0Zm118.63-1.28a0.15,0.15,0,0,1-.15-0.15h0V70.62a0.15,0.15,0,1,1,.3,0h0v1.49A0.15,0.15,0,0,1,122.82,72.23ZM4.19,70.53a0.15,0.15,0,0,1-.15-0.15h0V68.89a0.15,0.15,0,1,1,.3,0h0v1.49a0.15,0.15,0,0,1-.15.15h0Zm118.63-1.25a0.15,0.15,0,0,1-.15-0.15h0V67.64a0.15,0.15,0,1,1,.3,0v1.49a0.15,0.15,0,0,1-.15.15h0ZM4.19,67.55a0.15,0.15,0,0,1-.15-0.15h0V65.91a0.15,0.15,0,1,1,.3,0h0V67.4a0.15,0.15,0,0,1-.15.15h0ZM122.82,66.3a0.15,0.15,0,0,1-.15-0.15h0V64.67a0.15,0.15,0,1,1,.3,0v1.49A0.15,0.15,0,0,1,122.82,66.3ZM4.19,64.57a0.15,0.15,0,0,1-.15-0.15h0V62.93a0.15,0.15,0,1,1,.3,0v1.49a0.15,0.15,0,0,1-.15.15h0Zm118.63-1.25a0.15,0.15,0,0,1-.15-0.15h0V61.69a0.15,0.15,0,1,1,.3,0h0v1.49A0.15,0.15,0,0,1,122.82,63.32ZM4.19,61.59a0.15,0.15,0,0,1-.15-0.15h0V59.95a0.15,0.15,0,1,1,.3,0h0v1.49A0.15,0.15,0,0,1,4.19,61.59Zm118.63-1.25a0.15,0.15,0,0,1-.15-0.15h0V58.71a0.15,0.15,0,1,1,.3,0h0v1.52a0.15,0.15,0,0,1-.15.12V60.34ZM4.19,58.61a0.15,0.15,0,0,1-.15-0.15h0V56.98a0.15,0.15,0,1,1,.3,0h0v1.49A0.15,0.15,0,0,1,4.19,58.61Zm118.63-1.25a0.15,0.15,0,0,1-.15-0.15h0V55.73a0.15,0.15,0,1,1,.3,0h0v1.5a0.15,0.15,0,0,1-.15.14V57.36ZM4.19,55.63a0.15,0.15,0,0,1-.15-0.15h0V54a0.15,0.15,0,1,1,.3,0v1.49A0.15,0.15,0,0,1,4.19,55.63Zm118.63-1.25a0.15,0.15,0,0,1-.15-0.15h0V52.75a0.15,0.15,0,1,1,.3,0v1.48a0.15,0.15,0,0,1-.14.16h-0.01V54.38ZM4.19,52.66a0.15,0.15,0,0,1-.15-0.15h0V51.02a0.15,0.15,0,1,1,.3,0v1.49A0.15,0.15,0,0,1,4.19,52.66Zm118.63-1.25a0.15,0.15,0,0,1-.15-0.15h0V49.77a0.15,0.15,0,1,1,.3,0h0v1.46A0.15,0.15,0,0,1,122.82,51.41ZM4.19,49.68a0.15,0.15,0,0,1-.15-0.15h0V48.04a0.15,0.15,0,1,1,.3,0h0v1.49a0.15,0.15,0,0,1-.15.15h0Zm118.63-1.25a0.15,0.15,0,0,1-.15-0.15h0V46.79a0.15,0.15,0,1,1,.3,0v1.49A0.15,0.15,0,0,1,122.82,48.43ZM4.19,46.7a0.15,0.15,0,0,1-.15-0.15h0V45.06a0.15,0.15,0,1,1,.3,0h0v1.49A0.15,0.15,0,0,1,4.19,46.7Zm118.63-1.25a0.15,0.15,0,0,1-.15-0.15h0V43.81a0.15,0.15,0,1,1,.3,0h0V45.3A0.15,0.15,0,0,1,122.82,45.45ZM4.19,43.72a0.15,0.15,0,0,1-.15-0.15h0V42.08a0.15,0.15,0,1,1,.3,0h0v1.49a0.15,0.15,0,0,1-.15.15h0Zm118.63-1.25a0.15,0.15,0,0,1-.15-0.15h0V40.83a0.15,0.15,0,1,1,.3,0h0v1.49a0.15,0.15,0,0,1-.15.15h0ZM4.19,40.74a0.15,0.15,0,0,1-.15-0.15h0V39.1a0.15,0.15,0,1,1,.3,0h0v1.49A0.15,0.15,0,0,1,4.19,40.74Zm118.63-1.25a0.15,0.15,0,0,1-.15-0.15h0V37.85a0.15,0.15,0,1,1,.3,0h0v1.49A0.15,0.15,0,0,1,122.82,39.49ZM4.19,37.76a0.15,0.15,0,0,1-.15-0.15h0V36.12a0.15,0.15,0,1,1,.3,0v1.49A0.15,0.15,0,0,1,4.19,37.76Zm118.63-1.25a0.15,0.15,0,0,1-.15-0.15h0V34.87a0.15,0.15,0,1,1,.3,0h0v1.49A0.15,0.15,0,0,1,122.82,36.51ZM4.19,34.78a0.15,0.15,0,0,1-.15-0.15h0V33.14a0.15,0.15,0,1,1,.3,0v1.49A0.15,0.15,0,0,1,4.19,34.78Zm118.63-1.25a0.15,0.15,0,0,1-.15-0.15h0V31.9a0.15,0.15,0,1,1,.3,0v1.49A0.15,0.15,0,0,1,122.82,33.53ZM4.19,31.8a0.15,0.15,0,0,1-.15-0.15h0V30.16a0.15,0.15,0,0,1,.3,0v1.49A0.15,0.15,0,0,1,4.19,31.8Zm118.63-1.25a0.15,0.15,0,0,1-.15-0.15h0V28.92a0.15,0.15,0,1,1,.3,0v1.49A0.15,0.15,0,0,1,122.82,30.55ZM4.19,28.82a0.15,0.15,0,0,1-.15-0.15V27.23a0.16,0.16,0,1,1,.32,0v1.49A0.15,0.15,0,0,1,4.19,28.82Zm118.63-1.25a0.15,0.15,0,0,1-.15-0.15h0V25.94a0.15,0.15,0,1,1,.3,0h0v1.49a0.15,0.15,0,0,1-.15.15h0V27.57ZM4.19,25.84a0.15,0.15,0,0,1-.15-0.15V24.23a0.16,0.16,0,1,1,.32,0v1.49A0.15,0.15,0,0,1,4.19,25.84Zm118.63-1.25a0.15,0.15,0,0,1-.15-0.15h0V22.96a0.15,0.15,0,1,1,.3,0h0v1.49a0.15,0.15,0,0,1-.15.15h0V24.59ZM4.19,22.86a0.15,0.15,0,0,1-.15-0.15V21.23a0.16,0.16,0,1,1,.32,0v1.49a0.15,0.15,0,0,1-.158.141H4.19Zm118.63-1.25a0.15,0.15,0,0,1-.15-0.15h0V19.98a0.15,0.15,0,1,1,.3,0v1.49a0.15,0.15,0,0,1-.15.15h0V21.61ZM4.19,19.89h0a0.15,0.15,0,0,1-.15-0.15,6.29,6.29,0,0,1,.19-1.51,0.149,0.149,0,1,1,.29.07,6,6,0,0,0-.16,1.44,0.15,0.15,0,0,1-.149.151H4.19Zm118.5-1.24a0.15,0.15,0,0,1-.15-0.12,6,6,0,0,0-.47-1.37,0.159,0.159,0,1,1,.29-0.13h0a6.24,6.24,0,0,1,.49,1.44,0.15,0.15,0,0,1-.11.18h-0.05ZM4.92,17.03H4.85a0.15,0.15,0,0,1-.06-0.2,6.38,6.38,0,0,1,.87-1.25,0.148,0.148,0,1,1,.21.21,6.06,6.06,0,0,0-.83,1.19A0.15,0.15,0,0,1,4.92,17.03Zm116.48-1a0.15,0.15,0,0,1-.11-0.05,6.13,6.13,0,0,0-1.05-1,0.15,0.15,0,1,1,.18-0.24h0a6.43,6.43,0,0,1,1.1,1,0.153,0.153,0,0,1-.16.25ZM6.89,14.83a0.15,0.15,0,0,1-.08-0.27,6.32,6.32,0,0,1,1.35-.7,0.15,0.15,0,0,1,.1.28,6,6,0,0,0-1.29.67Zm112.14-.6h-0.06a6,6,0,0,0-1.4-.4,0.15,0.15,0,0,1,0-.29,6.3,6.3,0,0,1,1.46.42A0.15,0.15,0,0,1,119.03,14.23ZM9.65,13.79a0.15,0.15,0,1,1,0-.3h0a6.29,6.29,0,0,1,.72,0h1.5a0.15,0.15,0,0,1,0,.3H9.65Zm106.47,0h-1.49a0.15,0.15,0,1,1,0-.3h1.49a0.15,0.15,0,1,1,0,.26v0.04Zm-3,0h-1.49a0.15,0.15,0,1,1,0-.3h1.49a0.15,0.15,0,1,1,.02.26Zm-3,0h-1.49a0.15,0.15,0,1,1,0-.3h1.49a0.15,0.15,0,0,1,.04.26Zm-3,0h-1.49a0.15,0.15,0,1,1,0-.3h1.49a0.15,0.15,0,0,1,.06.26Zm-3,0h-1.49a0.15,0.15,0,1,1,0-.3h1.49a0.15,0.15,0,1,1,.08.26Zm-3,0H99.63a0.15,0.15,0,1,1,0-.3h1.49a0.15,0.15,0,0,1,.1.26Zm-3,0H96.63a0.15,0.15,0,1,1,0-.3h1.49a0.15,0.15,0,1,1,.12.26Zm-3,0H93.77a0.15,0.15,0,1,1,0-.3h1.49a0.15,0.15,0,0,1,0,.26Zm-3,0H90.79a0.15,0.15,0,1,1,0-.3h1.49a0.15,0.15,0,0,1,0,.26Zm-3,0H87.81a0.15,0.15,0,1,1,0-.3H89.3a0.15,0.15,0,0,1,.054.205,0.155,0.155,0,0,1-.054.055Zm-3,0H84.84a0.15,0.15,0,1,1,0-.3h1.52a0.15,0.15,0,1,1,0,.26Zm-3,0H81.86a0.15,0.15,0,1,1,0-.3h1.5a0.15,0.15,0,1,1,0,.26Zm-3,0H78.88a0.15,0.15,0,1,1,0-.3h1.48a0.15,0.15,0,1,1,0,.26Zm-3,0H75.9a0.15,0.15,0,1,1,0-.3h1.46a0.15,0.15,0,0,1,0,.26Zm-3,0h-1.2a0.15,0.15,0,1,1,0-.3h1.44a0.15,0.15,0,0,1,0,.26Zm-3,0H69.94a0.15,0.15,0,1,1,0-.3h1.49a0.15,0.15,0,0,1,0,.26Zm-3,0H66.96a0.15,0.15,0,1,1,0-.3h1.49a0.15,0.15,0,1,1,0,.26Zm-3,0H63.98a0.15,0.15,0,1,1,0-.3h1.49a0.15,0.15,0,1,1,0,.26Zm-3,0H61a0.15,0.15,0,1,1,0-.3h1.49a0.15,0.15,0,0,1,0,.26Zm-3,0h-1.1a0.15,0.15,0,1,1,0-.3h1.49a0.15,0.15,0,0,1,0,.26Zm-3,0H55.04a0.15,0.15,0,1,1,0-.3h1.49a0.15,0.15,0,0,1,.057.2,0.145,0.145,0,0,1-.057.056Zm-3,0H52.07a0.15,0.15,0,1,1,0-.3h1.49a0.15,0.15,0,0,1,0,.26Zm-3,0H49.09a0.15,0.15,0,1,1,0-.3h1.49a0.15,0.15,0,1,1,0,.26Zm-3,0H46.11a0.15,0.15,0,1,1,0-.3H47.6a0.15,0.15,0,1,1,0,.26Zm-3,0H43.13a0.15,0.15,0,1,1,0-.3h1.49a0.15,0.15,0,0,1,.057.2,0.145,0.145,0,0,1-.057.056Zm-3,0H40.15a0.15,0.15,0,1,1,0-.3h1.49a0.15,0.15,0,0,1,.057.2,0.145,0.145,0,0,1-.057.056Zm-3,0H37.17a0.15,0.15,0,1,1,0-.3h1.49a0.15,0.15,0,0,1,0,.26Zm-3,0H34.19a0.15,0.15,0,1,1,0-.3h1.49a0.15,0.15,0,0,1,.057.2,0.145,0.145,0,0,1-.057.056Zm-3,0H31.21a0.15,0.15,0,1,1,0-.3H32.7a0.15,0.15,0,1,1,0,.26Zm-3,0H28.23a0.15,0.15,0,1,1,0-.3h1.49a0.15,0.15,0,1,1,0,.26Zm-3,0H25.25a0.15,0.15,0,0,1,0-.3h1.49a0.15,0.15,0,0,1,0,.26Zm-3,0H22.27a0.15,0.15,0,0,1,0-.3h1.49a0.15,0.15,0,0,1,0,.26Zm-3,0H19.3a0.15,0.15,0,0,1,0-.3h1.49a0.15,0.15,0,0,1-.01.26Zm-3,0H16.36a0.15,0.15,0,0,1,0-.3h1.49a0.15,0.15,0,1,1-.04.26Zm-3,0H13.36a0.15,0.15,0,0,1,0-.3h1.49a0.15,0.15,0,1,1-.02.26Z"/><path class="cls-5" d="M63.62,0c15.41,0,18.66,5.24,16,4.58a71.16,71.16,0,0,0-32.26.01C44.69,5.23,48.36,0,63.62,0Z"/></svg>