<svg id="Layer_2" data-name="Layer 2" xmlns="http://www.w3.org/2000/svg" viewBox="0 0 586 492"><defs><style>.cls-1{fill:#f4c490;}.cls-2{fill:#ffe9cf;}.cls-3{fill:#f993b6;}.cls-4{fill:#91acb5;}.cls-5{fill:#76939b;}.cls-6{fill:#fff3e1;}.cls-7{fill:#fa577f;}.cls-8{fill:#ff5a83;}.cls-9{fill:#ffe4ce;}.cls-10{fill:#fff;}</style></defs><title>option-lightbox-3</title><rect class="cls-1" width="586" height="492"/><rect class="cls-2" x="357.257" y="257.687" width="102.839" height="108.718"/><rect class="cls-2" x="125.734" y="257.687" width="103.009" height="108.718"/><polygon class="cls-3" points="142.377 140.392 351.037 140.392 351.037 275.153 103.383 275.153 142.377 140.392"/><polygon class="cls-3" points="443.623 140.392 234.764 140.392 234.764 275.153 482.617 275.153 443.623 140.392"/><rect class="cls-4" x="121.02" y="366.064" width="118.8" height="9.401"/><rect class="cls-5" x="117.157" y="375.635" width="122.663" height="15.28"/><rect class="cls-4" x="346.01" y="366.064" width="118.8" height="9.401"/><rect class="cls-5" x="346.01" y="375.635" width="122.833" height="15.28"/><polygon class="cls-6" points="204.035 198.869 295.769 138.376 380.801 198.869 380.801 391.085 204.035 391.085 204.035 198.869"/><rect class="cls-7" x="308.72" y="315.142" width="42.005" height="75.943"/><rect class="cls-5" x="403.124" y="284.895" width="34.28" height="59.812"/><rect class="cls-5" x="148.426" y="284.895" width="34.45" height="59.812"/><polygon class="cls-8" points="265.522 127.64 292.247 100.915 292.418 101.085 292.418 100.915 319.114 127.64 318.972 127.81 429.508 238.204 402.811 264.901 292.418 154.337 181.854 264.901 155.299 238.204 265.693 127.81 265.522 127.64"/><polygon class="cls-9" points="418.943 248.769 414.74 252.972 291.736 134.343 169.244 252.291 165.211 248.116 288.555 129.316 291.736 126.106 418.943 248.769"/><rect class="cls-5" x="265.352" y="315.142" width="26.214" height="45.697"/><rect class="cls-4" x="269.044" y="338.998" width="8.066" height="18.489"/><rect class="cls-4" x="279.637" y="338.998" width="8.236" height="18.489"/><rect class="cls-4" x="269.044" y="318.351" width="8.066" height="18.659"/><rect class="cls-4" x="279.637" y="318.351" width="8.236" height="18.659"/><path class="cls-10" d="M347.345,355.641a2.016,2.016,0,1,0-2.016-2.016h0a1.931,1.931,0,0,0,1.842,2.016h0.174Z"/><rect class="cls-4" x="421.953" y="316.164" width="10.593" height="24.368"/><rect class="cls-4" x="407.838" y="316.164" width="10.764" height="24.368"/><rect class="cls-4" x="421.953" y="289.268" width="10.593" height="24.197"/><rect class="cls-4" x="407.838" y="289.268" width="10.764" height="24.197"/><rect class="cls-4" x="153.283" y="316.164" width="10.764" height="24.368"/><rect class="cls-4" x="167.227" y="316.164" width="10.764" height="24.368"/><rect class="cls-4" x="153.283" y="289.268" width="10.764" height="24.197"/><rect class="cls-4" x="167.227" y="289.268" width="10.764" height="24.197"/><rect class="cls-5" x="229.908" y="315.142" width="26.384" height="45.697"/><rect class="cls-4" x="233.6" y="338.998" width="8.236" height="18.489"/><rect class="cls-4" x="244.364" y="338.998" width="8.236" height="18.489"/><rect class="cls-4" x="233.6" y="318.351" width="8.236" height="18.659"/><rect class="cls-4" x="244.364" y="318.351" width="8.236" height="18.659"/><path class="cls-4" d="M292.475,260.442a29.054,29.054,0,1,0-.17,0h0.17Z"/><path class="cls-9" d="M292.475,250.956a19.54,19.54,0,1,0-.227,0h0.227Z"/></svg>