<svg id="Layer_2" data-name="Layer 2" xmlns="http://www.w3.org/2000/svg" viewBox="0 0 586 492"><defs><style>.cls-1{fill:#dceff4;}.cls-2{fill:#d4d8e9;}.cls-3{fill:#76939b;}.cls-4{fill:#b6c7cc;}</style></defs><title>option-lightbox-6</title><rect class="cls-1" width="586" height="492"/><rect class="cls-2" x="124.169" y="105.215" width="338.594" height="221.567" rx="15.347" ry="15.347"/><rect class="cls-3" x="127.088" y="108.224" width="332.817" height="215.578" rx="11.826" ry="11.826"/><rect class="cls-4" x="138.613" y="120.201" width="309.706" height="191.655"/><rect class="cls-1" x="188.144" y="144.786" width="210.673" height="53.985"/><rect class="cls-1" x="188.144" y="207.377" width="210.673" height="20.854"/><rect class="cls-1" x="270.024" y="237.74" width="128.823" height="46.883"/><rect class="cls-1" x="188.144" y="237.74" width="75.41" height="20.854"/><rect class="cls-1" x="188.144" y="263.769" width="75.41" height="20.854"/><path class="cls-4" d="M293.045,326.782v59.943H95.642a15.738,15.738,0,0,1-4.032-15.046l43.934-45.138Z"/><path class="cls-3" d="M92.994,370.295l-1.414,1.444a15.738,15.738,0,0,0,4.032,15.046H293.045v-12.94H95.642A14.655,14.655,0,0,1,92.994,370.295Z"/><path class="cls-4" d="M292.954,326.782v59.943H490.387a15.738,15.738,0,0,0,4.032-15.046l-43.934-45.138Z"/><path class="cls-3" d="M493.005,370.295l1.414,1.444a15.738,15.738,0,0,1-4.032,15.046H292.954v-12.94H490.387A14.655,14.655,0,0,0,493.005,370.295Z"/><polygon class="cls-3" points="454.036 356.723 131.271 356.723 152.846 332.048 432.641 332.048 454.036 356.723"/><rect class="cls-1" x="258.349" y="370.295" width="68.489" height="8.215" rx="3.13" ry="3.13"/></svg>