<svg id="Layer_6" data-name="Layer 6" xmlns="http://www.w3.org/2000/svg" viewBox="0 0 134.211 93.57"><defs><style>.cls-1{fill:#d4d8e9;}.cls-2{fill:#76939b;}.cls-3{fill:#b6c7cc;}.cls-4{fill:#dceff4;}</style></defs><title>option-6</title><rect class="cls-1" x="11" width="112.52" height="73.63" rx="5.1" ry="5.1"/><rect class="cls-2" x="11.97" y="1" width="110.6" height="71.64" rx="3.93" ry="3.93"/><rect class="cls-3" x="15.8" y="4.98" width="102.92" height="63.69"/><rect class="cls-4" x="32.26" y="13.15" width="70.01" height="17.94"/><rect class="cls-4" x="32.26" y="33.95" width="70.01" height="6.93"/><rect class="cls-4" x="59.47" y="44.04" width="42.81" height="15.58"/><rect class="cls-4" x="32.26" y="44.04" width="25.06" height="6.93"/><rect class="cls-4" x="32.26" y="52.69" width="25.06" height="6.93"/><path class="cls-3" d="M67.12,73.63V93.55H1.52a5.23,5.23,0,0,1-1.34-5l14.6-15Z" transform="translate(0)"/><path class="cls-2" d="M0.64,88.09l-0.47.48a5.23,5.23,0,0,0,1.34,5H67.12v-4.3H1.52A4.87,4.87,0,0,1,.64,88.09Z" transform="translate(0)"/><path class="cls-3" d="M67.09,73.63V93.55H132.7a5.23,5.23,0,0,0,1.34-5l-14.6-15Z" transform="translate(0)"/><path class="cls-2" d="M133.57,88.09l0.47,0.48a5.23,5.23,0,0,1-1.34,5H67.09v-4.3H132.7A4.87,4.87,0,0,0,133.57,88.09Z" transform="translate(0)"/><polygon class="cls-2" points="120.62 83.58 13.36 83.58 20.53 75.38 113.51 75.38 120.62 83.58"/><rect class="cls-4" x="55.59" y="88.09" width="22.76" height="2.73" rx="1.04" ry="1.04"/></svg>