<svg id="Layer_1" data-name="Layer 1" xmlns="http://www.w3.org/2000/svg" viewBox="0 0 135.04 102.713"><defs><style>.cls-1{fill:#91aeb5;}.cls-2{fill:#76939e;}.cls-3{fill:#fcd5ca;}.cls-4{fill:#e2bfb7;}.cls-5{fill:#97be5d;}.cls-6{fill:#f0f0f0;}</style></defs><title>option-1</title><path id="_Path_" data-name=" Path " class="cls-1" d="M121.8,61.62c0.08-1,.15-2,0.15-3A35.75,35.75,0,0,0,55.11,40.9,22.77,22.77,0,0,0,29.19,59.97H21.35A21.36,21.36,0,0,0,0,81.34H0a21.36,21.36,0,0,0,21.35,21.37h92.34a21.36,21.36,0,0,0,21.35-21.37h0A21.37,21.37,0,0,0,121.8,61.62Z" transform="translate(0 0.003)"/><path class="cls-2" d="M103.87,31.62c6.53-3.38,1.87-17.13-7-12.24,6.53-9-5.13-14.1-8-10.72,0-9.91-15.34-11.44-19.82-3.28V5.17C64.48-2.99,49.33-1.24,49.33,8.62c-2.91-3.38-14.57,1.75-8,10.72-8.86-4.89-13.52,8.86-7,12.24-9.32-2-12.7,17.36,1.51,17.36-6.06,3.73,0,22,13.17,15.15-0.57,6.76,8.1,13.16,13.59,7.41l0.27-.3,6.1-23.68V40.07l6.3,31.18,0.27,0.3c5.5,5.75,14.17-.64,13.59-7.41,13.17,6.87,19.23-11.42,13.17-15.15C116.53,48.99,113.15,29.62,103.87,31.62Z" transform="translate(0 0.003)"/><path class="cls-3" d="M68.87,84.91l11.81-9.29s-1.7-2.28-2.42-9.34H59.56c-0.69,7.02-2.42,9.34-2.42,9.34l11.73,9.29h0Z" transform="translate(0 0.003)"/><path class="cls-4" d="M78.26,66.23H59.56c-0.08.73-.16,1.39-0.25,2a15.12,15.12,0,0,0,19.21,0C78.42,67.62,78.34,66.96,78.26,66.23Z" transform="translate(0 0.003)"/><path class="cls-3" d="M68.87,69.45c11,0,19.46-11.54,19.46-30.65,0-23.83-7-29.37-19.46-29.37S49.45,14.97,49.45,38.8C49.45,57.91,57.87,69.45,68.87,69.45Z" transform="translate(0 0.003)"/><path class="cls-3" d="M69.15,9.44v60c10.89-.17,19.22-11.66,19.22-30.63C88.38,15.13,81.47,9.51,69.15,9.44Z" transform="translate(0 0.003)"/><path class="cls-2" d="M87.03,16.84C76.87,3.82,69.43,9.18,68.94,9.55c-0.49-.38-8-5.73-18.09,7.29-10.49,13.48-.46,30-0.46,30h1.39s-0.46-11.45,1.63-16.81,6.53-7.75,8.39-7.75,3.57,2.87,7.07,2.9h0.1c3.54,0,5.26-2.86,7.11-2.86s6.29,2.38,8.39,7.75S86.1,46.88,86.1,46.88h1.4S97.52,30.32,87.03,16.84Z" transform="translate(0 0.003)"/><path class="cls-3" d="M50.96,51.04s-3,3.2-4.47-4.43c-1.56-8.16-1.51-12.59,1.29-13.52a1.69,1.69,0,0,1,2.253.8q0.031,0.065.057,0.133Z" transform="translate(0 0.003)"/><path class="cls-3" d="M87.15,51.04s3,3.2,4.47-4.43c1.56-8.16,1.5-12.59-1.29-13.52a1.68,1.68,0,0,0-2.245.778q-0.036.075-.065,0.152Z" transform="translate(0 0.003)"/><path class="cls-5" d="M101.67,85.62a7,7,0,0,0-4.18-4.08l-16.7-5.92L68.97,83.2,57.14,75.62l-16.7,5.94a7,7,0,0,0-4.18,4.06l-6.54,17h78.49Z" transform="translate(0 0.003)"/><polygon class="cls-6" points="91.82 79.493 84.53 98.783 68.94 98.783 68.89 98.783 53.3 98.783 46.07 79.513 41.77 81.033 45.59 102.593 68.89 102.593 68.94 102.593 92.25 102.593 95.89 80.933 91.82 79.493"/></svg>