<svg id="Layer_3" data-name="Layer 3" xmlns="http://www.w3.org/2000/svg" xmlns:xlink="http://www.w3.org/1999/xlink" viewBox="0 0 294.345 294.345"><defs><style>.cls-1{fill:#ff5a83;}.cls-2{fill:#fff;}.cls-3{fill:url(#linear-gradient);}.cls-4{fill:url(#linear-gradient-2);}.cls-5{fill:#91aeb5;}.cls-6{fill:url(#linear-gradient-3);}.cls-7{fill:url(#linear-gradient-4);}.cls-8{fill:#ffcebd;}.cls-9{fill:#76949e;}.cls-10{fill:#97be5d;}.cls-11{fill:#231f20;opacity:0.2;}.cls-12{fill:#545671;}.cls-13{fill:#3f4155;}.cls-14{fill:#f5f7f9;}</style><linearGradient id="linear-gradient" x1="37.184" y1="251.09" x2="148.367" y2="251.09" gradientTransform="matrix(-1, 0, 0, 1, 287.577, 0)" gradientUnits="userSpaceOnUse"><stop offset="0" stop-color="#ffe1d7"/><stop offset="0.136" stop-color="#ffebe4"/><stop offset="0.331" stop-color="#fff"/></linearGradient><linearGradient id="linear-gradient-2" x1="184.935" y1="225.84" x2="185.416" y2="277.84" gradientTransform="matrix(-1, 0, 0, 1, 287.577, 0)" gradientUnits="userSpaceOnUse"><stop offset="0.262" stop-color="#ffe1d7"/><stop offset="1" stop-color="#fff"/></linearGradient><linearGradient id="linear-gradient-3" x1="36.83" y1="198.652" x2="139.955" y2="198.652" xlink:href="#linear-gradient"/><linearGradient id="linear-gradient-4" x1="180.357" y1="180.038" x2="180.712" y2="218.374" xlink:href="#linear-gradient-2"/></defs><title>person-at-laptop</title><circle class="cls-1" cx="219.561" cy="54.385" r="48.478"/><circle class="cls-1" cx="66.291" cy="83.75" r="66.169"/><circle class="cls-1" cx="55.097" cy="220.709" r="46.44"/><circle class="cls-1" cx="147.172" cy="147.172" r="147.172"/><circle class="cls-2" cx="74.992" cy="88.093" r="46.173"/><g id="_Group_" data-name="&lt;Group&gt;"><g id="_Group_2" data-name="&lt;Group&gt;"><path id="_Path_" data-name="&lt;Path&gt;" class="cls-1" d="M78.6,107.257H64.684a5.817,5.817,0,0,1-5.808-5.808V98.474h8.265v0.517H78.6a4,4,0,0,0,4-4,2.6,2.6,0,0,0-2.6-2.6H69.741A10.879,10.879,0,0,1,58.877,81.525V80.035a12.276,12.276,0,0,1,12.26-12.264H85.056a5.816,5.816,0,0,1,5.808,5.807v3.378H82.6V76.037H71.137a4,4,0,0,0-4,4v1.489a2.6,2.6,0,0,0,2.6,2.6H80A10.88,10.88,0,0,1,90.863,95,12.275,12.275,0,0,1,78.6,107.257Z" transform="translate(0.122)"/></g><g id="_Group_3" data-name="&lt;Group&gt;"><rect id="_Path_2" data-name="&lt;Path&gt;" class="cls-1" x="70.86" y="63.756" width="8.265" height="48.674"/></g></g><path class="cls-3" d="M223.377,224.074a27.016,27.016,0,0,1,0,54.032H139.211V224.074h84.166Z" transform="translate(0.122)"/><path class="cls-4" d="M165.6,278.112a73.052,73.052,0,0,0,0-54.043H34.287a72.584,72.584,0,0,1,5.181,27.021,72.584,72.584,0,0,1-5.182,27.022H165.6Z" transform="translate(0.122)"/><path class="cls-5" d="M139.211,280.982h84.166a29.891,29.891,0,1,0,0-59.783H139.211v5.751h84.166a24.14,24.14,0,1,1,0,48.281H139.211v5.751Z" transform="translate(0.122)"/><rect class="cls-5" x="26.073" y="221.199" width="118.371" height="5.751"/><rect class="cls-5" x="26.073" y="275.231" width="118.371" height="5.751"/><polygon class="cls-1" points="179.767 270.755 189.537 266.419 199.307 270.755 199.307 251.978 179.767 251.978 179.767 270.755"/><path class="cls-6" d="M230.813,178.718a19.935,19.935,0,0,1,0,39.869H147.622V178.718h83.191Z" transform="translate(0.122)"/><path class="cls-7" d="M151.756,218.592a53.906,53.906,0,0,0,0-39.877H58.7a53.9,53.9,0,0,1,0,39.877h93.057Z" transform="translate(0.122)"/><rect class="cls-2" x="52.671" y="176.597" width="119.931" height="4.243"/><rect class="cls-2" x="52.671" y="216.466" width="119.931" height="4.244"/><path class="cls-2" d="M138.038,220.709h92.775a22.056,22.056,0,1,0,0-44.112H138.038v4.243h92.775a17.813,17.813,0,1,1,0,35.626H138.038v4.244Z" transform="translate(0.122)"/><path class="cls-8" d="M143.737,138.97l-5.173-1.315-12.506,2.134-6.91,6.452,1.663,5.624h0a3.774,3.774,0,0,0,2.549-4.688l-0.129-.436,2.224-1.938-0.625,2.7,1.6,5.075h0a3.763,3.763,0,0,0,2.512-4.771l-0.394-1.212,0.837-1.338,1.526-.451,11.737,2.977,2.267-.67,0.824-1.381Z" transform="translate(0.122)"/><rect class="cls-8" x="70.75" y="232.084" width="14.812" height="13.673" transform="translate(92.257 -12.07) rotate(21.302)"/><path class="cls-9" d="M65.919,229.01l-18.863,4.467-8.4-.637a4.179,4.179,0,0,0-4.21,2.649l-0.9,2.3L79.729,255.8l3.434-2.534,5.312-13.623-2.261-.474-5.155,3.29-6.369-2.483Z" transform="translate(0.122)"/><path class="cls-2" d="M35.777,233.767a4.122,4.122,0,0,0-1.328,1.722l-0.9,2.3L79.729,255.8l3.434-2.534,1.656-4.246-3.434,2.534Z" transform="translate(0.122)"/><polygon class="cls-2" points="62.302 234.424 62.716 233.362 57.027 231.144 55.076 231.606 62.302 234.424"/><polygon class="cls-2" points="66.291 232.157 61.174 230.162 59.223 230.624 65.877 233.219 66.291 232.157"/><polygon class="cls-2" points="58.668 235.491 59.082 234.43 53.064 232.083 51.112 232.545 58.668 235.491"/><polygon class="cls-10" points="105.189 168.92 70.503 231.267 89.303 238.173 121.14 193.987 105.189 168.92"/><rect class="cls-8" x="141.952" y="227.883" width="14.812" height="13.673" transform="translate(-70.488 64.382) rotate(-19.777)"/><path class="cls-9" d="M133.621,235.29l-11.284,15.762-6.748,5.036a4.18,4.18,0,0,0-1.433,4.764l0.836,2.325,46.64-16.771,0.924-4.166-4.948-13.76-2.016,1.129-1.724,5.867-6.433,2.313Z" transform="translate(0.122)"/><path class="cls-2" d="M114.026,258.682a4.123,4.123,0,0,0,.13,2.17l0.836,2.325,46.64-16.771,0.924-4.166-1.542-4.289-0.924,4.166Z" transform="translate(0.122)"/><polygon class="cls-2" points="134.483 241.828 134.097 240.756 128.351 242.821 127.184 244.452 134.483 241.828"/><polygon class="cls-2" points="136 237.498 130.832 239.357 129.665 240.987 136.386 238.57 136 237.498"/><polygon class="cls-2" points="132.445 245.02 132.059 243.948 125.98 246.134 124.813 247.764 132.445 245.02"/><polygon class="cls-11" points="101.745 175.111 116.401 200.565 121.14 193.987 105.189 168.92 101.745 175.111"/><path class="cls-10" d="M203.625,148.5v11.67a21.159,21.159,0,0,1-21.159,21.159H138.784a3.616,3.616,0,0,0-3.215,5.271l20.745,40.3-18.08,5.861-33.206-57.67a11.906,11.906,0,0,1,10.4-17.846l47.131-6.486,2.613-4.239v-4.7Z" transform="translate(0.122)"/><path class="cls-5" d="M175.622,48a13.791,13.791,0,0,0-.776-4.631c-0.27-.648-0.639-1.253-0.886-1.909-0.772-2.047-.32-4.442-1.29-6.4-1.236-2.5-3.477-6.035-6.59-6.253a3.461,3.461,0,0,1-1.233-.18,2.788,2.788,0,0,1-.662-0.5c-1.46-1.324-5.306-3.964-7.339-2.6-0.3.2-.55,0.472-0.863,0.652-1.068.615-2.39-.015-3.62-0.1a4.151,4.151,0,0,0-3.723,1.993c-0.477.789-.371,1.113-1.4,1.217-0.808.082-1.624-.057-2.434-0.037a5.392,5.392,0,0,0-3.482,1.5,7.369,7.369,0,0,0-1.664,2.407,2.562,2.562,0,0,1-1.382,1.64c-0.479.143-.992,0.154-1.464,0.32a3.132,3.132,0,0,0-1.488,1.228c-1.8,2.633-4.882,4.668-5.2,8.138a2.924,2.924,0,0,0,1.339,3.016,3.775,3.775,0,0,0,2.609-.153,2.364,2.364,0,0,0-1.063,1.568c-0.031.974,1.307,1.63,2.067,1.966a5.251,5.251,0,0,0,3.656-.051c1.581-.517,3.11-1.378,4.773-1.348a7.814,7.814,0,0,1,1.431.191c3.378,0.695,6.276,2.384,9.46,3.652,3.311,1.319,6.7,2.424,10.089,3.527a16.558,16.558,0,0,0,4.076.955c0.828,0.051,1.663-.024,2.487.073,1.129,0.132,2.511,1.026,3.612.943,0.921-.07,1.629-1.579,1.919-2.418a10.479,10.479,0,0,0,.308-3.953,8.117,8.117,0,0,0-.388-2.46C176.2,49.2,175.666,48.852,175.622,48Z" transform="translate(0.122)"/><path class="cls-8" d="M182.333,63.537L167.119,81.618s-0.009-13.776-6.419-14.18l12.144-13.052Z" transform="translate(0.122)"/><path class="cls-8" d="M137.113,47.143a75.819,75.819,0,0,0,2.933,8.042c0.778,1.726.835,8.352,3.618,10.512,0.162,0.126,3.324-2.32,3.445-2.151,0.249,0.349,2.306,2.326,4.276,4.192a6.517,6.517,0,0,0,8.038.731c6.034-3.928,16.333-10.563,16.544-10.235l-14.94-23.214Z" transform="translate(0.122)"/><path class="cls-5" d="M176.076,57.956a2.832,2.832,0,0,0-.039-1.848c-0.364-1.939-.985-3.881-1.538-5.769a46.589,46.589,0,0,0-2.245-6.276,20.5,20.5,0,0,0-5.579-7.568,30.776,30.776,0,0,0-4.97-3.052,7.9,7.9,0,0,0-7.51-.52,14.277,14.277,0,0,0-3.87,1.431c-1.749,1.069-3.023,2.881-4.928,3.636-2.447.97-5.053,1.205-7.559,1.909-2.3.644-2.486,3.406-2.333,5.453a6.494,6.494,0,0,0,.847,2.958,6.042,6.042,0,0,0,1.855,2.132l0.15-.4,0.572-.254c2.439-.4,4.346-2.375,6.728-3.031a8.012,8.012,0,0,1,7.571,2.314,11.558,11.558,0,0,1,2.459,3.823,15.634,15.634,0,0,1,.712,2.24,4.063,4.063,0,0,0,.236,1.149,2.148,2.148,0,0,0,1.14-.061,1.46,1.46,0,0,0,.985-0.5,1.828,1.828,0,0,0,.145-1.362c-0.356-2.306-.944-4.929-0.252-7.235,0.565-1.88,2.879-2.479,4.6-2.008a2.8,2.8,0,0,1,1.832,1.46,3.521,3.521,0,0,1-.118,2.708c-0.644,1.643-1.312,3.261-1.908,4.93a0.939,0.939,0,0,0,.484,1.43,6.67,6.67,0,0,0,1.773.791,9.79,9.79,0,0,0,3.45.164l1.366-.226a4.508,4.508,0,0,0,.73-0.163c0.52-.179.636-0.435,1.125,0a1.591,1.591,0,0,1,.537,1.184,7.254,7.254,0,0,0-.109,1.228,0.27,0.27,0,0,0,.075.167,0.3,0.3,0,0,0,.2.051c0.583,0.013,1.142.189,1.726,0.171a2,2,0,0,0,1.607-.97C176.043,58.018,176.06,57.988,176.076,57.956Z" transform="translate(0.122)"/><path class="cls-2" d="M182.333,63.537l14.421,7.774a8.9,8.9,0,0,1,3.772,3.925L205.839,86.1A29.825,29.825,0,0,1,208.8,101.19c-0.65,9.718-1,19.465-1.5,29.191q-0.552,10.761-1.1,21.522-0.206,4.018-.412,8.035c-0.049.948,0.314,3.719-.232,4.52a1.564,1.564,0,0,0-.023.549c-14.73,11.747-30.4-17.2-44.744-14.344-0.2.04-.015-6.8,0-7.768,0.02-1.259,0-2.506.088-3.776,0.137-1.906.388-3.816,0.462-5.725,0.155-3.987.341-7.974,0.487-11.96a24.706,24.706,0,0,0-.355-3.305,11.763,11.763,0,0,0-.194-2.5,15.191,15.191,0,0,1-.181-5.725,18.565,18.565,0,0,0,.291-3.421,21.731,21.731,0,0,1-.227-2.867c0.064-2.219.41-4.417,0.666-6.619,0.194-1.673.166-3.334,0.288-5a23.712,23.712,0,0,1,1.148-4.8,21.522,21.522,0,0,1,4.917-8.98Z" transform="translate(0.122)"/><path class="cls-11" d="M196.115,138.742a7.4,7.4,0,0,0,6.489-7.934L198.671,81.7H178.076l4.258,45.145L161.278,134.3c-0.1,1.606-.281,3.212-0.4,4.815-0.091,1.27-.068,2.517-0.088,3.776-0.007.432-.048,2.031-0.074,3.668Z" transform="translate(0.122)"/><path class="cls-2" d="M178.076,79.422l4.258,45.145-38.67,13.7,1.092,9.547,51.359-11.347a7.4,7.4,0,0,0,6.489-7.934l-3.933-49.108H178.076Z" transform="translate(0.122)"/><path class="cls-12" d="M108.953,154.705h0a1.587,1.587,0,0,1-2.218-.344L83.508,122.905a1.587,1.587,0,0,1,.345-2.218h0a1.587,1.587,0,0,1,2.217.344L109.3,152.488A1.587,1.587,0,0,1,108.953,154.705Z" transform="translate(0.122)"/><path class="cls-12" d="M158.576,152l-52.613,6.354a2.273,2.273,0,0,1-2.529-1.984h0a2.273,2.273,0,0,1,1.984-2.529l52.613-6.354a2.273,2.273,0,0,1,2.529,1.984h0A2.273,2.273,0,0,1,158.576,152Z" transform="translate(0.122)"/><path class="cls-13" d="M160.321,148.751a2.341,2.341,0,0,1-1.9,1.3L105.807,156.4a2.25,2.25,0,0,1-2.266-1,2.241,2.241,0,0,0-.107.969,2.273,2.273,0,0,0,2.529,1.984L158.576,152a2.273,2.273,0,0,0,1.984-2.529A2.245,2.245,0,0,0,160.321,148.751Z" transform="translate(0.122)"/><rect class="cls-14" x="141.573" y="150.456" width="4.182" height="1.603" transform="translate(-16.974 18.313) rotate(-6.885)"/><rect class="cls-14" x="146.493" y="149.861" width="4.182" height="1.604" transform="translate(-16.873 18.905) rotate(-6.887)"/><rect class="cls-14" x="111.558" y="154.08" width="4.182" height="1.604" transform="translate(-17.63 14.745) rotate(-6.887)"/><polygon class="cls-5" points="168.306 78.21 171.274 85.174 182.455 63.537 168.306 78.21"/><polygon class="cls-5" points="168.306 78.21 166.574 83.75 166.346 74.356 168.306 78.21"/><circle class="cls-2" cx="223.859" cy="49.693" r="24.556"/><rect class="cls-10" x="212.699" y="45.278" width="13.725" height="3.248"/><rect class="cls-10" x="212.699" y="51.028" width="13.725" height="3.248"/><path class="cls-10" d="M230.533,58.46a7.437,7.437,0,0,1-3.276.656,7.653,7.653,0,0,1-6.081-2.517,9.455,9.455,0,0,1-2.571-6.723,9.693,9.693,0,0,1,2.571-6.822,7.526,7.526,0,0,1,6.065-2.583,8.376,8.376,0,0,1,2.939.54l1.462-3.208a9.756,9.756,0,0,0-4.151-.94,11.348,11.348,0,0,0-9.514,4.419,13.361,13.361,0,0,0-3.057,8.626,12.855,12.855,0,0,0,3.653,9.216,11.2,11.2,0,0,0,8.636,3.567,12.444,12.444,0,0,0,4.811-.965L231.246,58.1Q230.883,58.307,230.533,58.46Z" transform="translate(0.122)"/></svg>