<svg xmlns="http://www.w3.org/2000/svg" viewBox="0 0 1381.112 800"><defs><style>.cls-1{isolation:isolate;}.cls-2{fill:#91308a;}.cls-3{fill:#7f2778;}.cls-4{fill:#f2f4f8;}.cls-5{fill:#c1ced1;}.cls-6{fill:#91adb5;}.cls-7{fill:#d9dce2;}.cls-8{fill:#fff3e2;}.cls-9{fill:#ffe9cf;}.cls-10{fill:#f3f4fe;}.cls-11{fill:#bec4ce;}.cls-12{fill:#c6dbe0;}.cls-13{fill:#adc5c9;}.cls-14,.cls-27{fill:#231f20;}.cls-14{opacity:0.3;}.cls-15{fill:#96bd5d;}.cls-16{fill:#b7d385;}.cls-17{fill:#69843a;}.cls-18{fill:#cdea98;}.cls-19,.cls-32{fill:#fff;}.cls-20{fill:#ffcebd;}.cls-21{fill:#6c708c;}.cls-22{fill:#191c3c;}.cls-23{fill:#3c4156;}.cls-24{fill:#51a175;}.cls-25{fill:#8285a8;}.cls-26{fill:#393939;}.cls-27{opacity:0.15;}.cls-28{fill:#474963;}.cls-29{fill:#75778a;}.cls-30{fill:#8b4200;}.cls-31{mix-blend-mode:multiply;}.cls-32,.cls-78{opacity:0;}.cls-33,.cls-80{fill:#fdfdff;}.cls-33,.cls-79{opacity:0.024;}.cls-34,.cls-82{fill:#fbfcff;}.cls-34,.cls-81{opacity:0.049;}.cls-35,.cls-84{fill:#f9faff;}.cls-35,.cls-83{opacity:0.073;}.cls-36,.cls-86{fill:#f7f8ff;}.cls-36,.cls-85{opacity:0.098;}.cls-37,.cls-88{fill:#f6f6fe;}.cls-37,.cls-87{opacity:0.122;}.cls-38,.cls-90{fill:#f4f5fe;}.cls-38,.cls-89{opacity:0.146;}.cls-39,.cls-92{fill:#f2f3fe;}.cls-39,.cls-91{opacity:0.171;}.cls-40,.cls-94{fill:#f0f1fe;}.cls-40,.cls-93{opacity:0.195;}.cls-41,.cls-96{fill:#eeeffe;}.cls-41,.cls-95{opacity:0.22;}.cls-42,.cls-98{fill:#eceefe;}.cls-42,.cls-97{opacity:0.244;}.cls-100,.cls-43{fill:#eaecfe;}.cls-43,.cls-99{opacity:0.268;}.cls-102,.cls-44{fill:#e8eafe;}.cls-101,.cls-44{opacity:0.293;}.cls-104,.cls-45{fill:#e7e8fd;}.cls-103,.cls-45{opacity:0.317;}.cls-106,.cls-46{fill:#e5e7fd;}.cls-105,.cls-46{opacity:0.341;}.cls-108,.cls-47{fill:#e3e5fd;}.cls-107,.cls-47{opacity:0.366;}.cls-110,.cls-48{fill:#e1e3fd;}.cls-109,.cls-48{opacity:0.39;}.cls-112,.cls-49{fill:#dfe2fd;}.cls-111,.cls-49{opacity:0.415;}.cls-114,.cls-50{fill:#dde0fd;}.cls-113,.cls-50{opacity:0.439;}.cls-116,.cls-51{fill:#dbdefd;}.cls-115,.cls-51{opacity:0.463;}.cls-118,.cls-52{fill:#d9dcfd;}.cls-117,.cls-52{opacity:0.488;}.cls-120,.cls-53{fill:#d8dbfc;}.cls-119,.cls-53{opacity:0.512;}.cls-122,.cls-54{fill:#d6d9fc;}.cls-121,.cls-54{opacity:0.537;}.cls-124,.cls-55{fill:#d4d7fc;}.cls-123,.cls-55{opacity:0.561;}.cls-126,.cls-56{fill:#d2d5fc;}.cls-125,.cls-56{opacity:0.585;}.cls-128,.cls-57{fill:#d0d4fc;}.cls-127,.cls-57{opacity:0.61;}.cls-130,.cls-58{fill:#ced2fc;}.cls-129,.cls-58{opacity:0.634;}.cls-132,.cls-59{fill:#ccd0fc;}.cls-131,.cls-59{opacity:0.659;}.cls-134,.cls-60{fill:#cacffc;}.cls-133,.cls-60{opacity:0.683;}.cls-136,.cls-61{fill:#c9cdfb;}.cls-135,.cls-61{opacity:0.707;}.cls-138,.cls-62{fill:#c7cbfb;}.cls-137,.cls-62{opacity:0.732;}.cls-140,.cls-63{fill:#c5c9fb;}.cls-139,.cls-63{opacity:0.756;}.cls-142,.cls-64{fill:#c3c8fb;}.cls-141,.cls-64{opacity:0.78;}.cls-144,.cls-65{fill:#c1c6fb;}.cls-143,.cls-65{opacity:0.805;}.cls-146,.cls-66{fill:#bfc4fb;}.cls-145,.cls-66{opacity:0.829;}.cls-148,.cls-67{fill:#bdc2fb;}.cls-147,.cls-67{opacity:0.854;}.cls-150,.cls-68{fill:#bbc1fb;}.cls-149,.cls-68{opacity:0.878;}.cls-152,.cls-69{fill:#babffa;}.cls-151,.cls-69{opacity:0.902;}.cls-154,.cls-70{fill:#b8bdfa;}.cls-153,.cls-70{opacity:0.927;}.cls-156,.cls-71{fill:#b6bbfa;}.cls-155,.cls-71{opacity:0.951;}.cls-158,.cls-72{fill:#b4bafa;}.cls-157,.cls-72{opacity:0.976;}.cls-73{fill:#b2b8fa;}.cls-74{fill:#ff5a83;}.cls-75{fill:#4d5068;}.cls-76{fill:#717386;}.cls-77{fill:#3a3c4e;}.cls-159{fill:#7d994b;}.cls-160{fill:#ffd6ae;}.cls-161{fill:#ffbb83;}.cls-162{fill:#ffb3c9;}</style></defs><title>video-preview</title><g class="cls-1"><g id="Layer_2" data-name="Layer 2"><rect class="cls-2" width="1381.112" height="800"/><rect class="cls-3" y="743.351" width="1381.112" height="56.649"/></g><g id="Layer_3" data-name="Layer 3"><path class="cls-4" d="M1279.58,522.548c22.344,34.013,33.346,76.44,10.68,108.706-19.521,27.789-58.221,38.924-77.771,66.7-9.873,14.025-15.072,32.377-30.49,40.7-9.468,5.113-20.907,5.247-31.789,5.248l-984.065.094c-11,0-22.425-.086-32.339-4.624-11.894-5.444-19.829-16.5-25.71-27.761-27.477-52.6-19.1-120.361,20.438-165.434,24.06-27.424,58.231-46.808,76.8-77.869,16.17-27.053,18.344-59.334,23.687-90.05,6.771-38.922,23.528-78.6,62.86-95.353,47.152-20.081,94.452-37.032,131.065-73.492,39.543-39.378,61.841-95.416,111-123.261,47.121-26.688,107.068-20.242,159.572-5.24s103.391,37.8,158.051,41.686c67.017,4.768,136.313-19.212,200.455-.095,43.911,13.087,80.46,46.837,95.577,88.257,21.458,58.794.91,126.63,26.134,184.05,18.882,42.984,60.065,72.6,91.252,108.487A180.767,180.767,0,0,1,1279.58,522.548Z"/><rect class="cls-5" x="831.521" y="456.744" width="247.238" height="289.783" rx="3.34" ry="3.34"/><rect class="cls-6" x="851.196" y="479.243" width="207.888" height="67.144" rx="1.813" ry="1.813"/><rect class="cls-6" x="851.196" y="567.692" width="207.888" height="67.144" rx="1.813" ry="1.813"/><rect class="cls-6" x="851.196" y="656.141" width="207.888" height="67.144" rx="1.813" ry="1.813"/><circle class="cls-7" cx="955.14" cy="512.815" r="7.102"/><circle class="cls-7" cx="955.14" cy="601.636" r="7.102"/><circle class="cls-7" cx="955.14" cy="690.456" r="7.102"/><path class="cls-7" d="M309.2,324.66c-55.616,34.438-38.311,114.964-37.562,170.619q1.241,92.047,2.48,184.092c0.05,3.7-5.692,3.7-5.742,0q-1.482-110.006-2.964-220.013c-0.7-51.782-9.557-108.421,40.889-139.658,3.151-1.951,6.038,3.014,2.9,4.959h0Z"/><path class="cls-5" d="M278.32,352.671c2.532-5.341,5.181-10.7,8.971-15.239,5.787-6.925,13.846-11.485,21.72-15.894l1.157,0.619c4.549,11.828,6.911,24.8,4.542,37.253s-9.967,24.265-21.388,29.758c-8.378,4.029-18.279,4.554-26.1,9.585C265.016,382.87,271.45,367.159,278.32,352.671Z"/><path class="cls-5" d="M220.065,254.995c55.234,21.91,43.348,105.7,45.574,152.915,3.775,80.074,5.816,160.144,5.291,240.311-0.024,3.694-5.766,3.7-5.742,0q0.655-99.985-3.45-199.908c-1.263-30.1-2.775-60.181-4.2-90.269-1.651-34.932-.044-82.058-39-97.512-3.395-1.346-1.915-6.9,1.527-5.537h0Z"/><path class="cls-7" d="M257.876,351.365c0.1-.276.172-0.564,0.269-0.841a25.969,25.969,0,0,1,2.235,4.223Z"/><path class="cls-5" d="M216.919,259.873a2.835,2.835,0,0,1,4.217-1.907c17.969,5.333,32.148,20.568,38.3,38.273,6.055,17.427,4.813,36.864-1.291,54.285-6.865-10.841-20.811-16.26-30.576-25.251C210.236,309.316,207.575,281.5,216.919,259.873Z"/><path class="cls-5" d="M225.267,648.292h83.548a5.822,5.822,0,0,1,5.822,5.822v90.2a0,0,0,0,1,0,0H219.445a0,0,0,0,1,0,0v-90.2A5.822,5.822,0,0,1,225.267,648.292Z" transform="translate(534.082 1392.61) rotate(180)"/><path class="cls-7" d="M264.541,534.279c0.863-22.188,1.872-48.467-14.609-65.858-12.866-13.576-45.857-22.932-64.35-23.411-3.689-.1-3.7-5.838,0-5.742,14.1,0.365,28.816,5.957,42.1,10.467,9.774,3.318,19.022,6.989,26.312,14.626,17.7,18.546,17.217,46.1,16.291,69.918-0.143,3.683-5.886,3.7-5.743,0h0Z"/><path class="cls-5" d="M179.389,436.958a1.8,1.8,0,0,1,1.407-.4l20.827,0.178c6.01,0.051,12.093.112,17.91,1.625,11.739,3.052,21.243,11.725,28.67,21.315l2.162,0.33c-10.833,3.457-21.469,7.991-32.779,9.167s-23.843-1.69-30.929-10.583c-4.512-5.664-6.271-13-7.462-20.145A1.789,1.789,0,0,1,179.389,436.958Z"/><g id="_Group_" data-name="&lt;Group&gt;"><g id="_Group_2" data-name="&lt;Group&gt;"><g id="_Group_3" data-name="&lt;Group&gt;"><path id="_Path_" data-name="&lt;Path&gt;" class="cls-8" d="M1134.556,743.715h-63a5.654,5.654,0,0,1-5.541-6.775l8.572-42.36a4.784,4.784,0,0,1,4.689-3.835h47.559a4.784,4.784,0,0,1,4.689,3.835l8.572,42.361A5.654,5.654,0,0,1,1134.556,743.715Z"/></g><path id="_Path_2" data-name="&lt;Path&gt;" class="cls-9" d="M1139.139,741.324l-50.312-50.579h-9.55a4.783,4.783,0,0,0-4.689,3.835l-4.065,20.089-4.507,22.273a5.653,5.653,0,0,0,5.541,6.774h63A5.605,5.605,0,0,0,1139.139,741.324Z"/></g><g id="_Group_4" data-name="&lt;Group&gt;"><g id="_Group_5" data-name="&lt;Group&gt;"><path id="_Path_3" data-name="&lt;Path&gt;" class="cls-8" d="M1214.5,743.715h-63a5.654,5.654,0,0,1-5.541-6.775l8.572-42.36a4.784,4.784,0,0,1,4.689-3.835h47.559a4.784,4.784,0,0,1,4.689,3.835l8.572,42.36A5.654,5.654,0,0,1,1214.5,743.715Z"/></g><path id="_Path_4" data-name="&lt;Path&gt;" class="cls-9" d="M1219.086,741.324l-50.312-50.579h-9.549a4.783,4.783,0,0,0-4.689,3.835l-4.065,20.089-4.507,22.273a5.654,5.654,0,0,0,5.541,6.774h63A5.6,5.6,0,0,0,1219.086,741.324Z"/></g><g id="_Group_6" data-name="&lt;Group&gt;"><g id="_Group_7" data-name="&lt;Group&gt;"><path id="_Path_5" data-name="&lt;Path&gt;" class="cls-8" d="M1213.615,638h-63a5.654,5.654,0,0,1-5.541-6.775l8.572-42.36a4.784,4.784,0,0,1,4.69-3.835H1205.9a4.784,4.784,0,0,1,4.689,3.835l8.572,42.361A5.654,5.654,0,0,1,1213.615,638Z"/></g><path id="_Path_6" data-name="&lt;Path&gt;" class="cls-9" d="M1218.2,635.61l-50.312-50.579h-9.55a4.782,4.782,0,0,0-4.69,3.836l-4.065,20.089-4.507,22.272a5.654,5.654,0,0,0,5.541,6.774h63A5.6,5.6,0,0,0,1218.2,635.61Z"/></g><g id="_Group_8" data-name="&lt;Group&gt;"><g id="_Group_9" data-name="&lt;Group&gt;"><path id="_Path_7" data-name="&lt;Path&gt;" class="cls-8" d="M1294.45,743.715h-63a5.654,5.654,0,0,1-5.541-6.774l8.572-42.361a4.784,4.784,0,0,1,4.689-3.835h47.559a4.784,4.784,0,0,1,4.689,3.835l8.572,42.361A5.654,5.654,0,0,1,1294.45,743.715Z"/></g><path id="_Path_8" data-name="&lt;Path&gt;" class="cls-9" d="M1299.033,741.324l-50.312-50.579h-9.55a4.783,4.783,0,0,0-4.689,3.835l-4.065,20.089-4.507,22.273a5.654,5.654,0,0,0,5.541,6.774h63A5.6,5.6,0,0,0,1299.033,741.324Z"/></g><g id="_Group_10" data-name="&lt;Group&gt;"><g id="_Group_11" data-name="&lt;Group&gt;"><path id="_Path_9" data-name="&lt;Path&gt;" class="cls-8" d="M1174.529,690.744h-63a5.653,5.653,0,0,1-5.541-6.775l8.571-42.361a4.785,4.785,0,0,1,4.69-3.835h47.558a4.784,4.784,0,0,1,4.689,3.835l8.572,42.361A5.653,5.653,0,0,1,1174.529,690.744Z"/></g><path id="_Path_10" data-name="&lt;Path&gt;" class="cls-9" d="M1179.112,688.352L1128.8,637.772h-9.55a4.783,4.783,0,0,0-4.69,3.836L1110.5,661.7l-4.507,22.272a5.653,5.653,0,0,0,5.541,6.774h63A5.6,5.6,0,0,0,1179.112,688.352Z"/></g><g id="_Group_12" data-name="&lt;Group&gt;"><g id="_Group_13" data-name="&lt;Group&gt;"><path id="_Path_11" data-name="&lt;Path&gt;" class="cls-8" d="M1254.476,690.744h-63a5.654,5.654,0,0,1-5.541-6.775l8.571-42.36a4.785,4.785,0,0,1,4.69-3.835h47.558a4.785,4.785,0,0,1,4.69,3.835l8.571,42.361A5.654,5.654,0,0,1,1254.476,690.744Z"/></g><path id="_Path_12" data-name="&lt;Path&gt;" class="cls-9" d="M1259.06,688.353l-50.312-50.579h-9.55a4.779,4.779,0,0,0-4.69,3.835l-4.065,20.089-4.507,22.272a5.653,5.653,0,0,0,5.541,6.774h63A5.606,5.606,0,0,0,1259.06,688.353Z"/></g></g><g id="_Group_14" data-name="&lt;Group&gt;"><g id="_Group_15" data-name="&lt;Group&gt;"><g id="_Group_16" data-name="&lt;Group&gt;"><path id="_Path_13" data-name="&lt;Path&gt;" class="cls-7" d="M1010.761,415.452H972v11.784a33.4,33.4,0,0,0,8.821,22.616h0v5.881h21.116v-5.881h0a33.4,33.4,0,0,0,8.821-22.616V415.452Z"/></g></g><g id="_Group_17" data-name="&lt;Group&gt;"><g id="_Group_18" data-name="&lt;Group&gt;"><path id="_Path_14" data-name="&lt;Path&gt;" class="cls-10" d="M1002.789,415.452v11.784a33.4,33.4,0,0,1-8.821,22.615h0v5.881h4.555v-5.881h0a33.4,33.4,0,0,0,8.821-22.615V415.452h-4.555Z"/></g></g><g id="_Group_19" data-name="&lt;Group&gt;"><g id="_Group_20" data-name="&lt;Group&gt;"><g id="_Group_21" data-name="&lt;Group&gt;"><path id="_Path_15" data-name="&lt;Path&gt;" class="cls-7" d="M976.2,439.976h-6.375a10.513,10.513,0,1,1,0-21.026h4.1V423.4h-4.1a6.058,6.058,0,1,0,0,12.117H976.2v4.454Z"/></g></g></g><path id="_Path_16" data-name="&lt;Path&gt;" class="cls-11" d="M977.9,415.551v10.065a2.916,2.916,0,0,0,2.916,2.916h0a2.916,2.916,0,0,0,2.916-2.916v-0.375a2.481,2.481,0,0,1,2.481-2.481h0a2.481,2.481,0,0,1,2.481,2.481v16.451a2.853,2.853,0,0,0,2.852,2.853h0a2.852,2.852,0,0,0,2.852-2.853v-6.829a2.8,2.8,0,0,1,2.8-2.8h0a2.906,2.906,0,0,0,2.906-2.906V415.551H977.9Z"/></g><g id="_Group_22" data-name="&lt;Group&gt;"><g id="_Group_23" data-name="&lt;Group&gt;"><path id="_Path_17" data-name="&lt;Path&gt;" class="cls-12" d="M364.059,726.2V644.733a18.542,18.542,0,0,1,6.283-12.915l27.349-21.46a5.966,5.966,0,0,0,0-9.854l-27.349-21.479a18.519,18.519,0,0,1-6.283-12.9V488.31H488.1v77.811a18.522,18.522,0,0,1-6.282,12.9L454.468,600.5a5.967,5.967,0,0,0,0,9.854l27.351,21.46a18.545,18.545,0,0,1,6.282,12.915V726.2H364.059Z"/><path id="_Path_18" data-name="&lt;Path&gt;" class="cls-13" d="M384.094,631.818l27.351-21.46a5.968,5.968,0,0,0,0-9.854l-27.351-21.48a18.52,18.52,0,0,1-6.282-12.905V488.31H364.059v77.81a18.516,18.516,0,0,0,6.283,12.905l27.349,21.48a5.966,5.966,0,0,1,0,9.854l-27.349,21.46a18.539,18.539,0,0,0-6.283,12.915V726.2h13.753V644.733A18.544,18.544,0,0,1,384.094,631.818Z"/><path id="_Path_19" data-name="&lt;Path&gt;" class="cls-8" d="M378.128,718.029h94.625V680.81a20.813,20.813,0,0,0-11.3-18.515l-27.159-13.949a21.625,21.625,0,0,0-20.2.231l-25.08,13.615a20.813,20.813,0,0,0-10.884,18.292v37.544Z"/><rect id="_Path_20" data-name="&lt;Path&gt;" class="cls-14" x="364.059" y="488.31" width="124.042" height="20.38"/><rect id="_Rectangle_" data-name="&lt;Rectangle&gt;" class="cls-15" x="355.556" y="470.964" width="140.101" height="28.098" rx="0.516" ry="0.516"/><path id="_Path_21" data-name="&lt;Path&gt;" class="cls-16" d="M492.106,470.964h-133a3.551,3.551,0,0,0-3.551,3.551v5.876h140.1v-5.876A3.55,3.55,0,0,0,492.106,470.964Z"/><rect id="_Path_22" data-name="&lt;Path&gt;" class="cls-14" x="364.059" y="707.406" width="124.042" height="18.796"/><rect id="_Rectangle_2" data-name="&lt;Rectangle&gt;" class="cls-15" x="356.029" y="715.658" width="140.102" height="28.098" rx="0.516" ry="0.516"/><path id="_Path_23" data-name="&lt;Path&gt;" class="cls-17" d="M356.03,734.931v5.274a3.551,3.551,0,0,0,3.551,3.551h133a3.551,3.551,0,0,0,3.551-3.551v-5.274H356.03Z"/><rect id="_Rectangle_3" data-name="&lt;Rectangle&gt;" class="cls-8" x="417.836" y="611.314" width="11.57" height="17.864" rx="0.735" ry="0.735"/><path id="_Path_24" data-name="&lt;Path&gt;" class="cls-8" d="M424.747,557.824a64.32,64.32,0,0,1-46.618-19.973V556.32a22.422,22.422,0,0,0,11.456,19.557l23.263,13.044a9.761,9.761,0,0,1,4.987,8.516v5.6a5.785,5.785,0,0,0,11.571,0v-5.362a9.762,9.762,0,0,1,5.3-8.684l25.867-13.287a22.421,22.421,0,0,0,12.178-19.944v-19.44A64.33,64.33,0,0,1,424.747,557.824Z"/></g><g id="_Group_24" data-name="&lt;Group&gt;"><circle id="_Path_25" data-name="&lt;Path&gt;" class="cls-15" cx="424.81" cy="497.508" r="52.858"/><circle id="_Path_26" data-name="&lt;Path&gt;" class="cls-18" cx="424.81" cy="497.508" r="47.081"/><circle id="_Path_27" data-name="&lt;Path&gt;" class="cls-15" cx="424.81" cy="497.508" r="41.554"/><g id="_Group_25" data-name="&lt;Group&gt;"><g id="_Group_26" data-name="&lt;Group&gt;"><path id="_Path_28" data-name="&lt;Path&gt;" class="cls-19" d="M430.225,518.705h-15.4a6.434,6.434,0,0,1-6.424-6.424v-3.29h9.142v0.572h12.677a4.423,4.423,0,0,0,4.419-4.419,2.878,2.878,0,0,0-2.875-2.879H420.422a12.034,12.034,0,0,1-12.017-12.022V488.6a13.578,13.578,0,0,1,13.562-13.566h15.4a6.433,6.433,0,0,1,6.424,6.423v3.736h-9.143v-1.017H421.968a4.427,4.427,0,0,0-4.42,4.424v1.647a2.88,2.88,0,0,0,2.875,2.88H431.77a12.034,12.034,0,0,1,12.017,12.021A13.578,13.578,0,0,1,430.225,518.705Z"/></g><g id="_Group_27" data-name="&lt;Group&gt;"><rect id="_Path_29" data-name="&lt;Path&gt;" class="cls-19" x="421.525" y="470.588" width="9.142" height="53.839"/></g></g></g></g><rect class="cls-20" x="1058.378" y="691.741" width="18.041" height="27.467" transform="translate(2134.798 1410.95) rotate(180)"/><path class="cls-21" d="M1078.852,712.134A112.665,112.665,0,0,0,1083,733.347c0.406,1.247,1.417,2.219,1.417,3.53V747h-42.676v-5.376a11.511,11.511,0,0,1,2.276-6.851c3.631-4.914,14.428-15.074,12.735-22.639h22.1Z"/><path class="cls-22" d="M1078.751,712.134h0.1s-0.032.174-.051,0.275C1078.788,712.321,1078.763,712.222,1078.751,712.134Z"/><path class="cls-23" d="M1084.421,739.7V747h-42.676v-5.376a11.371,11.371,0,0,1,.17-1.921h42.505Z"/><rect class="cls-23" x="1059.797" y="717.891" width="11.757" height="2.635" rx="0.271" ry="0.271" transform="translate(2131.352 1438.418) rotate(180)"/><rect class="cls-23" x="1058.378" y="723.77" width="11.757" height="2.635" rx="0.271" ry="0.271" transform="translate(2128.514 1450.175) rotate(180)"/><rect class="cls-20" x="1175.736" y="691.741" width="18.041" height="27.467" transform="translate(2369.513 1410.95) rotate(180)"/><path class="cls-24" d="M1144.522,458.174C1139.5,470.6,1108.959,578.5,1108.959,578.5l-27.528,129.272h-26.883l13.87-146.7,10.135-155.766,58.275,6.935,10.539,28.857Z"/><polygon class="cls-24" points="1205.596 434.65 1203.912 564.811 1197.511 707.774 1171.906 707.774 1161.591 593.795 1136.828 459.581 1136.828 412.246 1200.712 418.114 1205.596 434.65"/><path class="cls-20" d="M1140.433,248.123h38.408V197.534h-42.012C1146.567,210.175,1140.433,248.123,1140.433,248.123Z"/><path class="cls-19" d="M1200.712,428.783c-1.248,29.961-98.154-18.325-119.281-7.113l25.606-176.222s23.458-9.329,33.395-2.038c13.692,10.047,38.408,0,38.408,0l17.248,6.846S1201.779,403.177,1200.712,428.783Z"/><path class="cls-25" d="M1142.18,216.431s6.966,116.31-50.573,189.947c0,0-17.585,43.47-31.809,45.6,0,0-14.851-37.7,3.286-67.474,11.14-18.29,32.656-58.365,33.932-79.743l3.66-61.354Z"/><path class="cls-25" d="M1178.841,216.431s-16.811,76.205-17.248,115.141c-0.356,31.651,48.8,137.207,48.8,137.207s30.344-31.668,14.34-68.269c-10.55-24.128-22.322-43.207-20.821-59.055l-0.4-108.916Z"/><path class="cls-20" d="M1123.517,187.942a65.944,65.944,0,0,1,2.807-15.058c0.088-.291-2.229-0.663-4.4-0.946a2,2,0,0,1-1.247-3.316c4.673-5.2,13.23-13.709,14.655-16.825,2.017-4.409.355-.984,2.782-5.17a39.113,39.113,0,0,0,2.189-3.842,6.849,6.849,0,0,1,4.687-3.686,15.882,15.882,0,0,1,5.745.645c8.084,1.927,15.5,3.532,23.045,7.192a44.762,44.762,0,0,1,8.024,4.661,24.317,24.317,0,0,1,7.928,10.911c2.645,7.347,1.593,15.47.058,23.127a19.936,19.936,0,0,1-1.672,5.443c-1.445,2.742-3.984,4.66-6.658,6.3-4.574,2.807-9.33,5.3-14.124,7.713a52.162,52.162,0,0,1-8.849,3.778c-4.986,1.439-10.266,1.376-15.454,1.241-4.035-.106-8.257-0.3-11.752-2.32a15.55,15.55,0,0,1-6.664-8.735A29.9,29.9,0,0,1,1123.517,187.942Z"/><path class="cls-26" d="M1135.42,117.079c7.331,6.2,17.173,8.482,26.7,9.661s19.289,1.487,28.384,4.572c5.642,1.913,14.417,5.454,17.127,11.242,3.793,8.1,3.182,20.119,1.1,28.553a42.5,42.5,0,0,1-8.864,17.44c-4.7,5.487-10.492,8.157-16.838,11.288-0.537.265-1.071,0.535-1.6,0.82a8.177,8.177,0,0,1-1.67.967c-1.073.22-1.312-1.628-1.3-2.458a9.42,9.42,0,0,1,1.475-4.614,27.805,27.805,0,0,1,2.736-3.347c2.634-3.281,2.47-7.292,2.8-11.253a14.266,14.266,0,0,0-.363-5.754,5.407,5.407,0,0,0-4.017-3.783c-2.014-.3-3.924.937-5.46,2.275a29.246,29.246,0,0,0-7.229,9.562q-0.158-5.063-.315-10.126a24.756,24.756,0,0,0-.871-6.91c-0.946-2.911-3-5.759-2.269-8.73,0.335-1.361,1.24-2.559,1.387-3.952,0.213-2.019-1.269-3.9-3.062-4.852a19.5,19.5,0,0,0-5.862-1.553c-3.136-.556-6.085-1.591-9.131-2.43a19.235,19.235,0,0,1-7.924-3.794,15.284,15.284,0,0,1-4.391-8.006,41.511,41.511,0,0,1-.779-9.222A45.054,45.054,0,0,1,1135.42,117.079Z"/><path class="cls-20" d="M1250.678,299.333l20.634,53.226a18.794,18.794,0,0,1-1.454,16.588l-65.591,83.507-11.639-17.471,42.065-66.561a19.9,19.9,0,0,0-.446-18.147l-20.377-35.85S1238.583,323.815,1250.678,299.333Z"/><path class="cls-20" d="M1192.628,435.184l-7.511,1.337-5.192,4.779a4.681,4.681,0,0,0-.358,6.52l1.54,1.767-2.323,3.717a4.293,4.293,0,0,0,.312,4.987l7.254,8.906a4.294,4.294,0,0,0,5.593.936l7.862-4.881a7.354,7.354,0,0,0,3.339-4.84l1.122-5.757Z"/><path class="cls-21" d="M1196.21,712.134a25.469,25.469,0,0,0,6.286,21.213,5.364,5.364,0,0,1,1.417,3.53V747h-40.542v-5.376a11.511,11.511,0,0,1,2.276-6.851c3.631-4.914,10.16-15.074,8.467-22.639h22.1Z"/><path class="cls-22" d="M1196.109,712.134h0.1s-0.031.174-.051,0.275C1196.146,712.321,1196.121,712.222,1196.109,712.134Z"/><path class="cls-23" d="M1203.912,739.7V747h-40.542v-5.376a11.371,11.371,0,0,1,.17-1.921h40.371Z"/><rect class="cls-23" x="1177.155" y="717.891" width="11.757" height="2.635" rx="0.271" ry="0.271" transform="translate(2366.067 1438.418) rotate(180)"/><rect class="cls-23" x="1175.736" y="723.77" width="11.757" height="2.635" rx="0.271" ry="0.271" transform="translate(2363.229 1450.175) rotate(180)"/><path class="cls-25" d="M1178.841,216.431L1205.6,233.9l11.925,5.673a33.494,33.494,0,0,1,16.82,18.087l21.494,48.906c-23.224,4.505-24.183,25.488-40.734,21.576l-23.754-56.545-12.507-28.184V216.431Z"/><path class="cls-25" d="M1142.18,216.431l-26.819,11.509-14.951,3.906a31.743,31.743,0,0,0-20.9,17.63L1054.548,299.1c16,0,32.636,21.439,35.207,17.3l30.673-53.789Z"/><path class="cls-27" d="M1133.7,204.864a7.532,7.532,0,0,1,3.718-7.494h0a4.028,4.028,0,0,0,1.782-2.123l2.367-6.54a10.974,10.974,0,0,0,.536-5.347l-0.753-5.069a4.229,4.229,0,0,0-5.923-3.233l-8.627,3.894-5.323,5.22-0.035.075a34.946,34.946,0,0,0,1.136,13.633,17.349,17.349,0,0,0,7.435,9.745,16.335,16.335,0,0,0,4.251,1.615Z"/><path class="cls-20" d="M1057.494,301.121l58.274-93.657V191.808a7.3,7.3,0,0,1,2.189-5.213l6.567-6.44,7.733-3.491a3.791,3.791,0,0,1,5.309,2.9l0.675,4.543a9.833,9.833,0,0,1-.48,4.792l-2.122,5.863a3.614,3.614,0,0,1-1.6,1.9h0a6.753,6.753,0,0,0-3.333,6.718l0.569,4.41,10.278,2.029-12.876,9.91-41.965,96.714a16.542,16.542,0,0,1-22.2,8.393h0A16.543,16.543,0,0,1,1057.494,301.121Z"/><path class="cls-22" d="M702.882,733.957l0.032,0.018a1.89,1.89,0,0,0,2.574-.723L765.268,626.79a1.892,1.892,0,0,0-.722-2.576l-0.032-.017a1.888,1.888,0,0,0-2.573.721L702.159,731.384A1.89,1.89,0,0,0,702.882,733.957Z"/><path class="cls-28" d="M556.117,733.091H715.081a1.041,1.041,0,0,1,1.041,1.041v10.642a1.042,1.042,0,0,1-1.042,1.042H556.116a1.041,1.041,0,0,1-1.041-1.041V734.134a1.042,1.042,0,0,1,1.042-1.042Z" transform="translate(1270.801 1479.248) rotate(-179.969)"/><path class="cls-22" d="M555.076,738.969a5.821,5.821,0,0,1,1.437-3.744,5.919,5.919,0,0,0,5.913,5.9l149.2,0.081a5.824,5.824,0,0,0,4.487-2.175c0,0.01.005,0.018,0.005,0.029v0.88a5.923,5.923,0,0,1-5.925,5.919l-149.2-.08a5.922,5.922,0,0,1-5.918-5.926v-0.881Z"/><rect class="cls-29" x="596.77" y="736.474" width="11.705" height="4.488"/><rect class="cls-29" x="582.9" y="736.467" width="11.706" height="4.488"/><rect class="cls-29" x="681.386" y="736.52" width="11.705" height="4.488"/><rect class="cls-20" x="133.308" y="609.218" width="24.153" height="35.202" transform="translate(-335.418 199.189) rotate(-35.292)"/><path class="cls-21" d="M130.915,627.28l-48.548,5.14-10.619,5.97a7.083,7.083,0,0,1-9.254-2.082l-4.2-5.936,68.456-48.455a8.464,8.464,0,0,1,11.8,2.019l3.782,5.343a43.446,43.446,0,0,1,7.517,18.743l0.785,5.3h0a9.619,9.619,0,0,0-13.408-2.294l-4.013,2.841a9.619,9.619,0,0,0-2.294,13.407h0Z"/><path class="cls-23" d="M130.635,587.65L63.479,635.185a2.968,2.968,0,0,1-4.137-.708l-2.286-3.23L126.635,582a8.534,8.534,0,0,1,11.912,1.938l3.782,5.343c0.046,0.065.081,0.138,0.126,0.2A8.529,8.529,0,0,0,130.635,587.65Z"/><polygon class="cls-25" points="250.767 730.123 243.876 713.656 157.419 619.445 135.145 636.11 217.457 746.126 233.091 738.711 250.767 730.123"/><rect class="cls-20" x="236.641" y="599.965" width="24.153" height="35.202" transform="translate(140.735 -39.387) rotate(12.602)"/><path class="cls-21" d="M238.674,607.141l-36.365-32.572-11.549-3.876a7.084,7.084,0,0,1-4.66-8.261l1.587-7.1,81.848,18.3a8.464,8.464,0,0,1,6.413,10.106l-1.429,6.388a43.447,43.447,0,0,1-8.866,18.144l-3.409,4.138h0a9.618,9.618,0,0,0-7.288-11.485l-4.8-1.073a9.618,9.618,0,0,0-11.485,7.288h0Z"/><path class="cls-23" d="M268.023,580.391l-80.683-18.2a3,3,0,0,1-2.27-3.585l0.857-3.833,83.606,18.861a8.464,8.464,0,0,1,6.413,10.106l-1.428,6.389c-0.017.078-.048,0.152-0.066,0.23A8.456,8.456,0,0,0,268.023,580.391Z"/><path class="cls-14" d="M233.347,702.182l-29.98-32.668-15.291,37.342,29.355,39.236h0.1l15.56-7.38,17.675-8.588-6.89-16.467-5.057-5.511a4.335,4.335,0,0,1-5.678-5.221Z"/><path class="cls-25" d="M364.783,667.112l-9.9.886a185.8,185.8,0,0,0-68.036,19.636l-39.77,20.339a4.363,4.363,0,0,1-6.191-5.049l25.248-91.13H234.749l-39.326,96.041A27.769,27.769,0,0,0,221.7,746.12l151.73-1.222Z"/><path class="cls-24" d="M523.34,686.339l-15.091,24.493a23.651,23.651,0,0,1-30.982,8.61l-7.546-3.895-45.128,19.98a69.907,69.907,0,0,1-25.068,5.91l-37.217,4.935S341.989,696.8,358.119,665.4h0a124.771,124.771,0,0,0,107.648-22.268l31.561-24.5Z"/><polygon class="cls-20" points="560.83 641.438 528.102 665.395 523.34 644.053 546.88 621.863 560.83 641.438"/><path class="cls-20" d="M539,629.5c-0.289-9.166,6.5-13.771,13.222-17.045a90.855,90.855,0,0,1,47.635-8.767l3.9,0.946c0.217,4.824-1.106,9.484-2.961,13.988-0.979,2.377-1.748,11.767.308,17.972a0.789,0.789,0,0,1-.7,1.086c-1.753.047-8.823,0.194-9.088,0.633-0.86,1.426-1.47,2.988-2.206,4.482a21.564,21.564,0,0,1-3.29,5.312c-4.309,4.636-11.582,4.595-17.849,3.713-8.867-1.248-18.019-3.7-24.109-10.562A18.814,18.814,0,0,1,539,629.5Z"/><path class="cls-20" d="M533.447,654.551l10.318,59.524a7.474,7.474,0,0,0,6.362,6.13l88.786,9.654,18.841,2.98,17.21,4.508,13.6,0.432h0c0,3.611-2.574,7.726-6.185,7.726H672.348l-23.895-1.187-108.321,2.673a18.038,18.038,0,0,1-17.409-11.67L493.26,657.131Z"/><path class="cls-30" d="M454.335,650.782c2.186-5.2,5.907-9.6,9.782-13.7a64.812,64.812,0,0,1,12.747-10.95c6.876-4.247,13.8-5.462,19.964-10.933A66.084,66.084,0,0,0,511.1,597.194c1.9-3.522,3.476-7.217,5.561-10.631,6.9-11.286,18.575-17.994,31.1-20.931,7.246-1.7,14.576-3.319,22.018-3.4,8.484-.1,16.879,1.811,24.952,4.419,5.776,1.866,11.593,4.193,15.991,8.377,5.788,5.507,6.47,12.73,4.611,20.23a21.3,21.3,0,0,1-3.5,7.753c-6.367,8.436-19.987,8.925-29.559,11.039-5.912,1.306-12.142-.583-17.844,1.783-5.123,2.125-8.785,6.765-12.393,10.773-5.191,5.767-10.431,11.6-14.153,18.41-2.014,3.683-3.555,7.6-5.272,11.43-5.2,11.595-12.354,22.763-22.912,29.834-12.176,8.155-28.991,9.777-41.627,2.357S448.655,664.291,454.335,650.782Z"/><path id="_Rectangle_4" data-name="&lt;Rectangle&gt;" class="cls-19" d="M572.986,151.843H856.11a2.858,2.858,0,0,1,2.858,2.858v351.68a2.858,2.858,0,0,1-2.858,2.858H565.075a2.858,2.858,0,0,1-2.858-2.858V162.612A10.769,10.769,0,0,1,572.986,151.843Z"/><path id="_Path_30" data-name="&lt;Path&gt;" class="cls-6" d="M858.968,189.6V162.125a10.282,10.282,0,0,0-10.282-10.282H572.5a10.283,10.283,0,0,0-10.283,10.283V189.6H858.968Z"/><path id="_Path_31" data-name="&lt;Path&gt;" class="cls-19" d="M587.882,170.093a3.24,3.24,0,1,1-2.54-2.546A3.243,3.243,0,0,1,587.882,170.093Z"/><path id="_Path_32" data-name="&lt;Path&gt;" class="cls-19" d="M602.409,170.093a3.24,3.24,0,1,1-2.54-2.546A3.244,3.244,0,0,1,602.409,170.093Z"/><path id="_Path_33" data-name="&lt;Path&gt;" class="cls-19" d="M616.936,170.093a3.24,3.24,0,1,1-2.541-2.547A3.243,3.243,0,0,1,616.936,170.093Z"/><path class="cls-4" d="M647.659,309.993a26.473,26.473,0,1,1-24.237-24.237A26.477,26.477,0,0,1,647.659,309.993Z"/><path class="cls-4" d="M647.659,382.24A26.473,26.473,0,1,1,623.423,358,26.477,26.477,0,0,1,647.659,382.24Z"/><rect class="cls-4" x="678.64" y="295.033" width="147.248" height="5.488"/><rect class="cls-4" x="678.64" y="316.661" width="81.347" height="5.488"/><rect class="cls-4" x="678.64" y="367.987" width="147.248" height="5.488"/><rect class="cls-4" x="678.64" y="389.615" width="81.347" height="5.487"/><path class="cls-4" d="M647.659,236.685a26.473,26.473,0,1,1-24.237-24.237A26.477,26.477,0,0,1,647.659,236.685Z"/><rect class="cls-4" x="678.64" y="221.724" width="147.248" height="5.488"/><rect class="cls-4" x="678.64" y="243.352" width="81.347" height="5.488"/><path class="cls-4" d="M647.659,456.159a26.473,26.473,0,1,1-24.237-24.237A26.477,26.477,0,0,1,647.659,456.159Z"/><rect class="cls-4" x="678.64" y="441.906" width="147.248" height="5.488"/><rect class="cls-4" x="678.64" y="463.534" width="81.347" height="5.487"/><g class="cls-31"><path class="cls-32" d="M859.6,151.561H789.191V281.023a19.128,19.128,0,0,0,19.128,19.128h61.148V161.425A9.865,9.865,0,0,0,859.6,151.561Z"/><path class="cls-33" d="M859.67,151.561H789.735V280.7a19,19,0,0,0,19,19h60.734V161.358A9.8,9.8,0,0,0,859.67,151.561Z"/><path class="cls-34" d="M859.737,151.561H790.279V280.367a18.869,18.869,0,0,0,18.869,18.869h60.32V161.291A9.731,9.731,0,0,0,859.737,151.561Z"/><path class="cls-35" d="M859.8,151.561H790.823V280.039a18.739,18.739,0,0,0,18.739,18.739h59.906V161.224A9.664,9.664,0,0,0,859.8,151.561Z"/><path class="cls-36" d="M859.87,151.561h-68.5v128.15a18.61,18.61,0,0,0,18.61,18.61h59.492V161.158A9.6,9.6,0,0,0,859.87,151.561Z"/><path class="cls-37" d="M859.937,151.561H791.911V279.382a18.48,18.48,0,0,0,18.48,18.48h59.077V161.091A9.53,9.53,0,0,0,859.937,151.561Z"/><path class="cls-38" d="M860,151.561h-67.55V279.054A18.35,18.35,0,0,0,810.8,297.4h58.663V161.024A9.464,9.464,0,0,0,860,151.561Z"/><path class="cls-39" d="M860.071,151.561H793V278.726a18.221,18.221,0,0,0,18.221,18.221h58.249V160.957A9.4,9.4,0,0,0,860.071,151.561Z"/><path class="cls-40" d="M860.138,151.561h-66.6V278.4a18.091,18.091,0,0,0,18.091,18.091h57.834v-135.6A9.33,9.33,0,0,0,860.138,151.561Z"/><path class="cls-41" d="M860.2,151.561H794.086V278.07a17.961,17.961,0,0,0,17.961,17.961h57.42V160.823A9.263,9.263,0,0,0,860.2,151.561Z"/><path class="cls-42" d="M860.271,151.561H794.629V277.742a17.832,17.832,0,0,0,17.832,17.832h57.006V160.757A9.2,9.2,0,0,0,860.271,151.561Z"/><path class="cls-43" d="M860.338,151.561H795.173V277.413a17.7,17.7,0,0,0,17.7,17.7h56.592V160.69A9.13,9.13,0,0,0,860.338,151.561Z"/><path class="cls-44" d="M860.4,151.561H795.717V277.085a17.573,17.573,0,0,0,17.573,17.573h56.178V160.623A9.063,9.063,0,0,0,860.4,151.561Z"/><path class="cls-45" d="M860.472,151.561H796.261v125.2A17.443,17.443,0,0,0,813.7,294.2h55.763V160.556A9,9,0,0,0,860.472,151.561Z"/><path class="cls-46" d="M860.539,151.561H796.8V276.429a17.314,17.314,0,0,0,17.314,17.314h55.349V160.49A8.929,8.929,0,0,0,860.539,151.561Z"/><path class="cls-47" d="M860.606,151.561H797.349V276.1a17.184,17.184,0,0,0,17.184,17.184h54.935V160.423A8.862,8.862,0,0,0,860.606,151.561Z"/><path class="cls-48" d="M860.672,151.561h-62.78V275.773a17.054,17.054,0,0,0,17.055,17.054h54.52V160.356A8.8,8.8,0,0,0,860.672,151.561Z"/><path class="cls-49" d="M860.739,151.561h-62.3V275.445a16.925,16.925,0,0,0,16.925,16.925h54.106V160.289A8.729,8.729,0,0,0,860.739,151.561Z"/><path class="cls-50" d="M860.806,151.561H798.98V275.116a16.8,16.8,0,0,0,16.8,16.8h53.692V160.222A8.662,8.662,0,0,0,860.806,151.561Z"/><path class="cls-51" d="M860.873,151.561H799.524V274.788a16.666,16.666,0,0,0,16.666,16.666h53.278v-131.3A8.6,8.6,0,0,0,860.873,151.561Z"/><path class="cls-52" d="M860.94,151.561H800.068v122.9A16.536,16.536,0,0,0,816.6,291h52.863V160.088A8.528,8.528,0,0,0,860.94,151.561Z"/><path class="cls-53" d="M861.007,151.561H800.612V274.132a16.407,16.407,0,0,0,16.407,16.407h52.449V160.022A8.461,8.461,0,0,0,861.007,151.561Z"/><path class="cls-54" d="M861.073,151.561H801.156V273.8a16.277,16.277,0,0,0,16.277,16.277h52.035V159.955A8.394,8.394,0,0,0,861.073,151.561Z"/><path class="cls-55" d="M861.14,151.561H801.7V273.475a16.147,16.147,0,0,0,16.147,16.147h51.621V159.888A8.328,8.328,0,0,0,861.14,151.561Z"/><path class="cls-56" d="M861.207,151.561H802.243V273.147a16.018,16.018,0,0,0,16.018,16.018h51.207V159.821A8.261,8.261,0,0,0,861.207,151.561Z"/><path class="cls-57" d="M861.274,151.561H802.787V272.819a15.889,15.889,0,0,0,15.889,15.888h50.792V159.754A8.194,8.194,0,0,0,861.274,151.561Z"/><path class="cls-58" d="M861.341,151.561h-58.01v120.93a15.759,15.759,0,0,0,15.759,15.759h50.378V159.687A8.127,8.127,0,0,0,861.341,151.561Z"/><path class="cls-59" d="M861.407,151.561H803.875v120.6a15.629,15.629,0,0,0,15.63,15.629h49.963V159.621A8.06,8.06,0,0,0,861.407,151.561Z"/><path class="cls-60" d="M861.474,151.561H804.419V271.834a15.5,15.5,0,0,0,15.5,15.5h49.549V159.554A7.993,7.993,0,0,0,861.474,151.561Z"/><path class="cls-61" d="M861.541,151.561H804.963V271.506a15.37,15.37,0,0,0,15.37,15.37h49.135V159.487A7.927,7.927,0,0,0,861.541,151.561Z"/><path class="cls-62" d="M861.608,151.561h-56.1V271.178a15.241,15.241,0,0,0,15.241,15.24h48.721v-127A7.86,7.86,0,0,0,861.608,151.561Z"/><path class="cls-63" d="M861.675,151.561H806.05V270.85a15.111,15.111,0,0,0,15.111,15.11h48.307V159.353A7.793,7.793,0,0,0,861.675,151.561Z"/><path class="cls-64" d="M861.742,151.561H806.594V270.521A14.981,14.981,0,0,0,821.576,285.5h47.892V159.286A7.726,7.726,0,0,0,861.742,151.561Z"/><path class="cls-65" d="M861.808,151.561h-54.67V270.193a14.852,14.852,0,0,0,14.852,14.852h47.478V159.22A7.659,7.659,0,0,0,861.808,151.561Z"/><path class="cls-66" d="M861.875,151.561H807.682v118.3A14.722,14.722,0,0,0,822.4,284.587h47.064V159.153A7.592,7.592,0,0,0,861.875,151.561Z"/><path class="cls-67" d="M861.942,151.561H808.226V269.537a14.593,14.593,0,0,0,14.593,14.592h46.65V159.086A7.526,7.526,0,0,0,861.942,151.561Z"/><path class="cls-68" d="M862.009,151.561H808.77V269.209a14.463,14.463,0,0,0,14.463,14.463h46.235V159.019A7.459,7.459,0,0,0,862.009,151.561Z"/><path class="cls-69" d="M862.076,151.561H809.313v117.32a14.333,14.333,0,0,0,14.333,14.333h45.821V158.952A7.392,7.392,0,0,0,862.076,151.561Z"/><path class="cls-70" d="M862.143,151.561H809.857V268.552a14.2,14.2,0,0,0,14.2,14.2h45.407V158.885A7.325,7.325,0,0,0,862.143,151.561Z"/><path class="cls-71" d="M862.209,151.561H810.4V268.224A14.074,14.074,0,0,0,824.475,282.3h44.993V158.819A7.258,7.258,0,0,0,862.209,151.561Z"/><path class="cls-72" d="M862.276,151.561H810.945V267.9a13.945,13.945,0,0,0,13.945,13.944h44.578V158.752A7.191,7.191,0,0,0,862.276,151.561Z"/><path class="cls-73" d="M862.343,151.561H811.489V267.568A13.815,13.815,0,0,0,825.3,281.383h44.164v-122.7A7.125,7.125,0,0,0,862.343,151.561Z"/></g><path class="cls-19" d="M828.484,98.495h176.226a18.535,18.535,0,0,1,18.535,18.535V280.278a5.147,5.147,0,0,1-5.147,5.147H814.179a5.147,5.147,0,0,1-5.147-5.147V117.947A19.452,19.452,0,0,1,828.484,98.495Z"/><path class="cls-6" d="M1005.408,98.494H826.87a17.838,17.838,0,0,0-17.838,17.838v20.31h214.213v-20.31A17.838,17.838,0,0,0,1005.408,98.494Z"/><circle class="cls-19" cx="833.12" cy="117.568" r="3.268"/><circle class="cls-19" cx="847.315" cy="117.568" r="3.268"/><circle class="cls-19" cx="847.315" cy="117.568" r="3.268"/><circle class="cls-19" cx="861.51" cy="117.568" r="3.268"/><circle class="cls-4" cx="850.583" cy="186.649" r="25.552"/><rect class="cls-4" x="889.9" y="172.884" width="117" height="6.882"/><rect class="cls-4" x="889.9" y="192.922" width="117" height="6.882"/><rect class="cls-7" x="889.9" y="212.961" width="43.875" height="6.882"/><path class="cls-74" d="M309.872,195.614a35.088,35.088,0,1,0-54.271,29.36v22.391h38.366V224.974A35.038,35.038,0,0,0,309.872,195.614Z"/><polygon id="_Path_34" data-name="&lt;Path&gt;" class="cls-75" points="296.453 248.928 283.695 259.597 264.707 259.597 253.114 248.928 253.114 232.164 296.453 232.164 296.453 248.928"/><rect id="_Rectangle_5" data-name="&lt;Rectangle&gt;" class="cls-76" x="251.228" y="233.696" width="47.015" height="3.216" rx="0.365" ry="0.365"/><rect id="_Rectangle_6" data-name="&lt;Rectangle&gt;" class="cls-76" x="251.228" y="239.067" width="47.015" height="3.216" rx="0.365" ry="0.365"/><rect id="_Rectangle_7" data-name="&lt;Rectangle&gt;" class="cls-76" x="251.228" y="244.438" width="47.015" height="3.216" rx="0.365" ry="0.365"/><path id="_Rectangle_8" data-name="&lt;Rectangle&gt;" class="cls-77" d="M264.161,259.1h19.687a0,0,0,0,1,0,0v4.871a1.43,1.43,0,0,1-1.43,1.43H265.591a1.43,1.43,0,0,1-1.43-1.43V259.1A0,0,0,0,1,264.161,259.1Z"/><polygon class="cls-19" points="272.592 204.771 263.607 195.788 266.347 193.049 272.592 199.293 286.26 185.625 288.998 188.364 272.592 204.771"/><path class="cls-32" d="M664.89,222.378H562.217V340.572H664.89a13.751,13.751,0,0,0,13.751-13.751V236.129A13.751,13.751,0,0,0,664.89,222.378Z"/><path class="cls-33" d="M664.353,222.378H562.217V339.954H664.353a13.679,13.679,0,0,0,13.679-13.679V236.057A13.679,13.679,0,0,0,664.353,222.378Z"/><path class="cls-34" d="M663.817,222.378h-101.6V339.337h101.6a13.607,13.607,0,0,0,13.607-13.607V235.985A13.607,13.607,0,0,0,663.817,222.378Z"/><path class="cls-35" d="M663.281,222.378H562.217V338.72H663.281a13.535,13.535,0,0,0,13.535-13.535v-89.27A13.535,13.535,0,0,0,663.281,222.378Z"/><path class="cls-36" d="M662.744,222.378H562.217V338.1H662.744a13.463,13.463,0,0,0,13.463-13.464v-88.8A13.463,13.463,0,0,0,662.744,222.378Z"/><path class="cls-37" d="M662.208,222.378H562.217V337.485h99.991A13.391,13.391,0,0,0,675.6,324.093V235.77A13.391,13.391,0,0,0,662.208,222.378Z"/><path class="cls-38" d="M661.672,222.378H562.217V336.867h99.455a13.32,13.32,0,0,0,13.32-13.32V235.7A13.32,13.32,0,0,0,661.672,222.378Z"/><path class="cls-39" d="M661.135,222.378H562.217V336.25h98.918A13.248,13.248,0,0,0,674.383,323V235.626A13.248,13.248,0,0,0,661.135,222.378Z"/><path class="cls-40" d="M660.6,222.378H562.217V335.632H660.6a13.176,13.176,0,0,0,13.176-13.176v-86.9A13.176,13.176,0,0,0,660.6,222.378Z"/><path class="cls-41" d="M660.063,222.378H562.217V335.015h97.846a13.1,13.1,0,0,0,13.1-13.1V235.482A13.1,13.1,0,0,0,660.063,222.378Z"/><path class="cls-42" d="M659.526,222.378h-97.31V334.4h97.31a13.032,13.032,0,0,0,13.032-13.033V235.411A13.032,13.032,0,0,0,659.526,222.378Z"/><path class="cls-43" d="M658.99,222.378H562.217v111.4H658.99a12.961,12.961,0,0,0,12.961-12.961v-85.48A12.961,12.961,0,0,0,658.99,222.378Z"/><path class="cls-44" d="M658.453,222.378H562.217V333.163h96.237a12.889,12.889,0,0,0,12.889-12.889V235.267A12.889,12.889,0,0,0,658.453,222.378Z"/><path class="cls-45" d="M657.917,222.378h-95.7V332.545h95.7a12.817,12.817,0,0,0,12.817-12.817V235.2A12.817,12.817,0,0,0,657.917,222.378Z"/><path class="cls-46" d="M657.381,222.378H562.217v109.55h95.164a12.745,12.745,0,0,0,12.745-12.745V235.123A12.745,12.745,0,0,0,657.381,222.378Z"/><path class="cls-47" d="M656.845,222.378H562.217V331.31h94.628a12.673,12.673,0,0,0,12.673-12.673V235.052A12.673,12.673,0,0,0,656.845,222.378Z"/><path class="cls-48" d="M656.308,222.378H562.217V330.693h94.091a12.6,12.6,0,0,0,12.6-12.6V234.98A12.6,12.6,0,0,0,656.308,222.378Z"/><path class="cls-49" d="M655.772,222.378H562.217v107.7h93.555a12.53,12.53,0,0,0,12.529-12.53V234.908A12.53,12.53,0,0,0,655.772,222.378Z"/><path class="cls-50" d="M655.236,222.378H562.217v107.08h93.019A12.458,12.458,0,0,0,667.694,317V234.836A12.458,12.458,0,0,0,655.236,222.378Z"/><path class="cls-51" d="M654.7,222.378H562.217V328.841H654.7a12.386,12.386,0,0,0,12.386-12.386v-81.69A12.386,12.386,0,0,0,654.7,222.378Z"/><path class="cls-52" d="M654.163,222.378H562.217V328.223h91.946a12.314,12.314,0,0,0,12.314-12.314V234.693A12.314,12.314,0,0,0,654.163,222.378Z"/><path class="cls-53" d="M653.626,222.378h-91.41V327.606h91.41a12.242,12.242,0,0,0,12.243-12.242V234.621A12.243,12.243,0,0,0,653.626,222.378Z"/><path class="cls-54" d="M653.09,222.378H562.217v104.61H653.09a12.17,12.17,0,0,0,12.171-12.17V234.549A12.171,12.171,0,0,0,653.09,222.378Z"/><path class="cls-55" d="M652.554,222.378H562.217V326.371h90.337a12.1,12.1,0,0,0,12.1-12.1v-79.8A12.1,12.1,0,0,0,652.554,222.378Z"/><path class="cls-56" d="M652.018,222.378h-89.8V325.754h89.8a12.027,12.027,0,0,0,12.027-12.027V234.405A12.027,12.027,0,0,0,652.018,222.378Z"/><path class="cls-57" d="M651.481,222.378H562.217V325.136h89.264a11.955,11.955,0,0,0,11.955-11.955V234.333A11.955,11.955,0,0,0,651.481,222.378Z"/><path class="cls-58" d="M650.945,222.378H562.217V324.519h88.728a11.884,11.884,0,0,0,11.883-11.883V234.261A11.884,11.884,0,0,0,650.945,222.378Z"/><path class="cls-59" d="M650.409,222.378H562.217V323.9h88.192A11.811,11.811,0,0,0,662.22,312.09v-77.9A11.812,11.812,0,0,0,650.409,222.378Z"/><path class="cls-60" d="M649.872,222.378H562.217V323.284h87.656a11.74,11.74,0,0,0,11.74-11.74V234.118A11.74,11.74,0,0,0,649.872,222.378Z"/><path class="cls-61" d="M649.336,222.378H562.217V322.667h87.119A11.668,11.668,0,0,0,661,311V234.046A11.668,11.668,0,0,0,649.336,222.378Z"/><path class="cls-62" d="M648.8,222.378H562.217v99.671H648.8a11.6,11.6,0,0,0,11.6-11.6V233.974A11.6,11.6,0,0,0,648.8,222.378Z"/><path class="cls-63" d="M648.263,222.378H562.217v99.054h86.046a11.524,11.524,0,0,0,11.524-11.524V233.9A11.524,11.524,0,0,0,648.263,222.378Z"/><path class="cls-64" d="M647.727,222.378h-85.51v98.436h85.51a11.453,11.453,0,0,0,11.453-11.453V233.83A11.452,11.452,0,0,0,647.727,222.378Z"/><path class="cls-65" d="M647.191,222.378H562.217V320.2h84.974a11.381,11.381,0,0,0,11.38-11.38V233.759A11.381,11.381,0,0,0,647.191,222.378Z"/><path class="cls-66" d="M646.654,222.378H562.217v97.2h84.437a11.309,11.309,0,0,0,11.309-11.308V233.687A11.309,11.309,0,0,0,646.654,222.378Z"/><path class="cls-67" d="M646.118,222.378h-83.9v96.584h83.9a11.237,11.237,0,0,0,11.237-11.237v-74.11A11.237,11.237,0,0,0,646.118,222.378Z"/><path class="cls-68" d="M645.582,222.378H562.217v95.967h83.365a11.165,11.165,0,0,0,11.165-11.165V233.543A11.165,11.165,0,0,0,645.582,222.378Z"/><path class="cls-69" d="M645.045,222.378H562.217v95.349h82.829a11.093,11.093,0,0,0,11.093-11.093V233.471A11.093,11.093,0,0,0,645.045,222.378Z"/><path class="cls-70" d="M644.509,222.378H562.217V317.11h82.292a11.021,11.021,0,0,0,11.021-11.021V233.4A11.021,11.021,0,0,0,644.509,222.378Z"/><path class="cls-71" d="M643.972,222.378H562.217v94.115h81.756a10.949,10.949,0,0,0,10.95-10.95V233.328A10.949,10.949,0,0,0,643.972,222.378Z"/><path class="cls-72" d="M643.436,222.378H562.217v93.5h81.219A10.878,10.878,0,0,0,654.314,305V233.256A10.878,10.878,0,0,0,643.436,222.378Z"/><path class="cls-73" d="M642.9,222.378H562.217v92.88H642.9a10.806,10.806,0,0,0,10.806-10.806V233.184A10.806,10.806,0,0,0,642.9,222.378Z"/><rect class="cls-19" x="464.145" y="204.977" width="196.144" height="115.293" rx="3.463" ry="3.463"/><circle id="_Path_35" data-name="&lt;Path&gt;" class="cls-74" cx="514.894" cy="262.623" r="31.743"/><path id="_Path_36" data-name="&lt;Path&gt;" class="cls-19" d="M526.6,264.414l-20.425,11.793a2.067,2.067,0,0,1-3.1-1.79V250.831a2.067,2.067,0,0,1,3.1-1.79L526.6,260.833A2.067,2.067,0,0,1,526.6,264.414Z"/><rect class="cls-4" x="558.246" y="237.139" width="87.019" height="7.747"/><rect class="cls-4" x="558.246" y="258.75" width="87.019" height="7.747"/><rect class="cls-11" x="558.246" y="280.361" width="43.51" height="7.747"/><g class="cls-78"><path class="cls-19" d="M894.054,336.145H824.862a8.475,8.475,0,0,0-8.475,8.475v81.216a8.475,8.475,0,0,0,8.475,8.475h69.192V336.145Z"/></g><g class="cls-79"><path class="cls-80" d="M894.054,336.145h-68.73a8.419,8.419,0,0,0-8.419,8.419v80.674a8.418,8.418,0,0,0,8.419,8.418h68.73V336.145Z"/></g><g class="cls-81"><path class="cls-82" d="M894.054,336.145H825.786a8.362,8.362,0,0,0-8.362,8.362v80.132A8.361,8.361,0,0,0,825.786,433h68.269V336.145Z"/></g><g class="cls-83"><path class="cls-84" d="M894.054,336.145H826.247a8.306,8.306,0,0,0-8.306,8.306v79.59a8.305,8.305,0,0,0,8.306,8.3h67.807v-96.2Z"/></g><g class="cls-85"><path class="cls-86" d="M894.054,336.145H826.709a8.249,8.249,0,0,0-8.249,8.249v79.048a8.249,8.249,0,0,0,8.249,8.249h67.345V336.145Z"/></g><g class="cls-87"><path class="cls-88" d="M894.054,336.145H827.17a8.192,8.192,0,0,0-8.192,8.192v78.506a8.192,8.192,0,0,0,8.192,8.192h66.884V336.145Z"/></g><g class="cls-89"><path class="cls-90" d="M894.054,336.145H827.632a8.136,8.136,0,0,0-8.136,8.136v77.965a8.136,8.136,0,0,0,8.136,8.135h66.422V336.145Z"/></g><g class="cls-91"><path class="cls-92" d="M894.054,336.145h-65.96a8.079,8.079,0,0,0-8.079,8.079v77.423a8.079,8.079,0,0,0,8.079,8.079h65.96V336.145Z"/></g><g class="cls-93"><path class="cls-94" d="M894.054,336.145h-65.5a8.023,8.023,0,0,0-8.023,8.023v76.881a8.022,8.022,0,0,0,8.023,8.022h65.5V336.145Z"/></g><g class="cls-95"><path class="cls-96" d="M894.054,336.145H829.017a7.966,7.966,0,0,0-7.966,7.966V420.45a7.966,7.966,0,0,0,7.966,7.966h65.037V336.145Z"/></g><g class="cls-97"><path class="cls-98" d="M894.054,336.145H829.479a7.91,7.91,0,0,0-7.91,7.91v75.8a7.909,7.909,0,0,0,7.91,7.909h64.575V336.145Z"/></g><g class="cls-99"><path class="cls-100" d="M894.054,336.145H829.94A7.853,7.853,0,0,0,822.087,344v75.256a7.852,7.852,0,0,0,7.853,7.852h64.114V336.145Z"/></g><g class="cls-101"><path class="cls-102" d="M894.054,336.145H830.4a7.8,7.8,0,0,0-7.8,7.8v74.714a7.8,7.8,0,0,0,7.8,7.8h63.652V336.145Z"/></g><g class="cls-103"><path class="cls-104" d="M894.054,336.145H830.864a7.74,7.74,0,0,0-7.74,7.74v74.172a7.74,7.74,0,0,0,7.74,7.74h63.191V336.145Z"/></g><g class="cls-105"><path class="cls-106" d="M894.054,336.145H831.325a7.684,7.684,0,0,0-7.683,7.683v73.63a7.683,7.683,0,0,0,7.683,7.683h62.729v-89Z"/></g><g class="cls-107"><path class="cls-108" d="M894.054,336.145H831.787a7.627,7.627,0,0,0-7.627,7.627v73.088a7.626,7.626,0,0,0,7.627,7.627h62.267V336.145Z"/></g><g class="cls-109"><path class="cls-110" d="M894.054,336.145H832.248a7.57,7.57,0,0,0-7.57,7.57v72.546a7.57,7.57,0,0,0,7.57,7.57h61.806V336.145Z"/></g><g class="cls-111"><path class="cls-112" d="M894.054,336.145H832.71a7.514,7.514,0,0,0-7.514,7.514v72a7.514,7.514,0,0,0,7.514,7.513h61.344V336.145Z"/></g><g class="cls-113"><path class="cls-114" d="M894.054,336.145H833.172a7.457,7.457,0,0,0-7.457,7.457v71.462a7.457,7.457,0,0,0,7.457,7.457h60.882V336.145Z"/></g><g class="cls-115"><path class="cls-116" d="M894.054,336.145h-60.42a7.4,7.4,0,0,0-7.4,7.4v70.92a7.4,7.4,0,0,0,7.4,7.4h60.42V336.145Z"/></g><g class="cls-117"><path class="cls-118" d="M894.054,336.145H834.095a7.344,7.344,0,0,0-7.344,7.344v70.379a7.344,7.344,0,0,0,7.344,7.344h59.959V336.145Z"/></g><g class="cls-119"><path class="cls-120" d="M894.054,336.145h-59.5a7.288,7.288,0,0,0-7.288,7.288v69.837a7.287,7.287,0,0,0,7.288,7.287h59.5V336.145Z"/></g><g class="cls-121"><path class="cls-122" d="M894.054,336.145H835.018a7.231,7.231,0,0,0-7.231,7.231v69.3a7.231,7.231,0,0,0,7.231,7.231h59.036V336.145Z"/></g><g class="cls-123"><path class="cls-124" d="M894.054,336.145H835.48a7.175,7.175,0,0,0-7.175,7.174v68.753a7.174,7.174,0,0,0,7.175,7.174h58.574v-83.1Z"/></g><g class="cls-125"><path class="cls-126" d="M894.054,336.145H835.942a7.118,7.118,0,0,0-7.118,7.118v68.211a7.118,7.118,0,0,0,7.118,7.118h58.113V336.145Z"/></g><g class="cls-127"><path class="cls-128" d="M894.054,336.145H836.4a7.061,7.061,0,0,0-7.061,7.061v67.669a7.061,7.061,0,0,0,7.061,7.061h57.651V336.145Z"/></g><g class="cls-129"><path class="cls-130" d="M894.054,336.145H836.865a7.005,7.005,0,0,0-7.005,7v67.128a7,7,0,0,0,7.005,7h57.189V336.145Z"/></g><g class="cls-131"><path class="cls-132" d="M894.054,336.145H837.326a6.948,6.948,0,0,0-6.948,6.948v66.586a6.948,6.948,0,0,0,6.948,6.948h56.728V336.145Z"/></g><g class="cls-133"><path class="cls-134" d="M894.054,336.145H837.788a6.892,6.892,0,0,0-6.892,6.892V409.08a6.891,6.891,0,0,0,6.892,6.892h56.266V336.145Z"/></g><g class="cls-135"><path class="cls-136" d="M894.054,336.145h-55.8a6.836,6.836,0,0,0-6.835,6.835v65.5a6.835,6.835,0,0,0,6.835,6.835h55.8V336.145Z"/></g><g class="cls-137"><path class="cls-138" d="M894.054,336.145H838.712a6.779,6.779,0,0,0-6.779,6.779v64.96a6.779,6.779,0,0,0,6.779,6.778h55.342V336.145Z"/></g><g class="cls-139"><path class="cls-140" d="M894.054,336.145H839.173a6.722,6.722,0,0,0-6.722,6.722v64.418a6.722,6.722,0,0,0,6.722,6.722h54.881V336.145Z"/></g><g class="cls-141"><path class="cls-142" d="M894.054,336.145H839.635a6.666,6.666,0,0,0-6.666,6.666v63.876a6.666,6.666,0,0,0,6.666,6.665h54.419V336.145Z"/></g><g class="cls-143"><path class="cls-144" d="M894.054,336.145H840.1a6.609,6.609,0,0,0-6.609,6.609v63.334A6.609,6.609,0,0,0,840.1,412.7h53.958V336.145Z"/></g><g class="cls-145"><path class="cls-146" d="M894.054,336.145h-53.5a6.552,6.552,0,0,0-6.552,6.553V405.49a6.552,6.552,0,0,0,6.552,6.552h53.5v-75.9Z"/></g><g class="cls-147"><path class="cls-148" d="M894.054,336.145H841.02a6.5,6.5,0,0,0-6.5,6.5v62.251a6.5,6.5,0,0,0,6.5,6.5h53.035V336.145Z"/></g><g class="cls-149"><path class="cls-150" d="M894.054,336.145H841.481a6.44,6.44,0,0,0-6.44,6.44v61.709a6.439,6.439,0,0,0,6.44,6.439h52.573V336.145Z"/></g><g class="cls-151"><path class="cls-152" d="M894.054,336.145H841.943a6.383,6.383,0,0,0-6.383,6.383v61.167a6.383,6.383,0,0,0,6.383,6.383h52.111V336.145Z"/></g><g class="cls-153"><path class="cls-154" d="M894.054,336.145H842.4a6.326,6.326,0,0,0-6.326,6.326V403.1a6.326,6.326,0,0,0,6.326,6.326h51.65V336.145Z"/></g><g class="cls-155"><path class="cls-156" d="M894.054,336.145H842.866a6.27,6.27,0,0,0-6.27,6.27V402.5a6.27,6.27,0,0,0,6.27,6.27h51.188V336.145Z"/></g><g class="cls-157"><path class="cls-158" d="M894.054,336.145H843.328a6.213,6.213,0,0,0-6.213,6.213V401.9a6.213,6.213,0,0,0,6.213,6.213h50.726V336.145Z"/></g><path class="cls-73" d="M894.054,336.145H843.79a6.157,6.157,0,0,0-6.157,6.157v59a6.156,6.156,0,0,0,6.157,6.156h50.264V336.145Z"/><rect class="cls-19" x="833.618" y="322.344" width="129.794" height="90.227" rx="2.011" ry="2.011"/><rect class="cls-9" x="843.297" y="331.011" width="110.437" height="68.871"/><polygon class="cls-5" points="860.373 356.345 843.383 380.876 843.297 399.883 887.034 399.883 860.373 356.345"/><polygon class="cls-19" points="863.062 369.127 864.589 371.651 867.282 367.763 860.373 356.345 852.542 367.652 854.961 371.651 856.813 368.977 859.775 373.872 863.062 369.127"/><polygon class="cls-5" points="881.105 390.414 894.026 371.157 911.817 399.883 886.99 399.883 881.105 390.414"/><circle class="cls-7" cx="921.124" cy="354.467" r="12.125"/><polygon class="cls-19" points="896.872 383.939 898.399 386.462 901.092 382.575 894.026 371.157 886.352 382.464 888.772 386.462 890.623 383.789 893.585 388.684 896.872 383.939"/><g id="_Group_28" data-name="&lt;Group&gt;"><g id="_Group_29" data-name="&lt;Group&gt;"><g id="_Group_30" data-name="&lt;Group&gt;"><path id="_Rectangle_9" data-name="&lt;Rectangle&gt;" class="cls-11" d="M637.084,637.509h77.995a2.086,2.086,0,0,1,2.086,2.086v47.742a1.175,1.175,0,0,1-1.175,1.175H635.936a1.159,1.159,0,0,1-1.159-1.159V639.816A2.307,2.307,0,0,1,637.084,637.509Z" transform="translate(1351.943 1326.02) rotate(180)"/></g></g><g id="_Group_31" data-name="&lt;Group&gt;"><g id="_Group_32" data-name="&lt;Group&gt;"><path id="_Path_37" data-name="&lt;Path&gt;" class="cls-11" d="M635.71,639.352l34.5-28.108a10.146,10.146,0,0,1,11.973,0L714.8,638.211Z"/></g></g><g id="_Group_33" data-name="&lt;Group&gt;"><g id="_Group_34" data-name="&lt;Group&gt;"><path id="_Path_38" data-name="&lt;Path&gt;" class="cls-19" d="M658.8,598.5l-12.07,11.721v64.348h57.163V603.34a4.843,4.843,0,0,0-4.843-4.843H658.8Z"/></g></g><g id="_Group_35" data-name="&lt;Group&gt;"><g id="_Group_36" data-name="&lt;Group&gt;"><polygon id="_Path_39" data-name="&lt;Path&gt;" class="cls-7" points="658.082 609.001 646.729 621.985 646.729 610.218 658.082 609.001"/></g></g><g id="_Group_37" data-name="&lt;Group&gt;"><g id="_Group_38" data-name="&lt;Group&gt;"><path id="_Path_40" data-name="&lt;Path&gt;" class="cls-11" d="M658.8,598.5l-12.07,11.721h8.851A3.219,3.219,0,0,0,658.8,607v-8.5Z"/></g></g><g id="_Group_39" data-name="&lt;Group&gt;"><g id="_Group_40" data-name="&lt;Group&gt;"><path id="_Path_41" data-name="&lt;Path&gt;" class="cls-7" d="M637.164,688.712s31.818-22.2,31.818-24.207L635.71,639.352a19,19,0,0,0-.932,6.581v40.525C634.777,688.323,636.141,688.447,637.164,688.712Z"/></g></g><g id="_Group_41" data-name="&lt;Group&gt;"><g id="_Group_42" data-name="&lt;Group&gt;"><path id="_Path_42" data-name="&lt;Path&gt;" class="cls-7" d="M715.386,688.712s-31.121-22.669-31.121-24.68l32.3-23.734s1.206,1.34,1.206,5.635v40.525C717.773,688.323,716.409,688.447,715.386,688.712Z"/></g></g><g id="_Group_43" data-name="&lt;Group&gt;"><g id="_Group_44" data-name="&lt;Group&gt;"><path id="_Path_43" data-name="&lt;Path&gt;" class="cls-5" d="M636.84,688.762l33.484-27.532a10.033,10.033,0,0,1,11.837,0l33.483,27.532h-78.8Z"/></g></g><g id="_Group_45" data-name="&lt;Group&gt;"><g id="_Group_46" data-name="&lt;Group&gt;"><g id="_Group_47" data-name="&lt;Group&gt;"><path id="_Compound_Path_" data-name="&lt;Compound Path&gt;" class="cls-7" d="M683.034,640.012a15.681,15.681,0,0,1-7.656,1.72c-7.056,0-13.034-5.162-13.034-13.422,0-8.858,6.152-16.517,15.7-16.517,7.485,0,12.517,5.25,12.517,12.433,0,6.452-3.613,10.237-7.656,10.237-1.72,0-3.311-1.163-3.183-3.786h-0.172c-1.506,2.539-3.483,3.786-6.064,3.786-2.5,0-4.646-2.021-4.646-5.422a10.155,10.155,0,0,1,10.194-10.192,11.311,11.311,0,0,1,4.6.9l-1.464,7.782c-0.645,3.271-.128,4.777,1.29,4.819,2.194,0.042,4.646-2.882,4.646-7.873,0-6.234-3.742-10.71-10.409-10.71-7.011,0-12.9,5.551-12.9,14.283,0,7.184,4.69,11.614,11.055,11.614a13.437,13.437,0,0,0,6.5-1.506Zm-2.366-18.58a7.408,7.408,0,0,0-2.15-.3c-3.786,0-6.84,3.569-6.84,7.74,0,1.895.948,3.271,2.839,3.271,2.5,0,4.775-3.184,5.248-5.852Z"/></g></g></g></g><path id="_Compound_Path_2" data-name="&lt;Compound Path&gt;" class="cls-24" d="M492.281,384.04l4.163,0a1.526,1.526,0,0,0,1.524-1.527l0-5.309a1.526,1.526,0,0,0-1.528-1.524l-3.257,0a1.281,1.281,0,0,1-1.193-.853q-0.173-.456-0.375-0.9a1.283,1.283,0,0,1,.239-1.448l2.3-2.3a1.526,1.526,0,0,0,0-2.158l-3.756-3.752a1.525,1.525,0,0,0-2.158,0l-2.321,2.322a1.259,1.259,0,0,1-1.389.267c-0.332-.141-0.689-0.285-1-0.405a1.254,1.254,0,0,1-.8-1.172v-3.291a1.526,1.526,0,0,0-1.526-1.526H475.9a1.526,1.526,0,0,0-1.526,1.526v3.259a1.282,1.282,0,0,1-.853,1.191q-0.478.18-.944,0.394a1.28,1.28,0,0,1-1.448-.234l-2.312-2.3a1.525,1.525,0,0,0-2.157.005l-3.744,3.765a1.526,1.526,0,0,0,.007,2.158l2.329,2.316a1.261,1.261,0,0,1,.27,1.389c-0.141.331-.283,0.689-0.4,1a1.254,1.254,0,0,1-1.17.8l-3.292.009a1.525,1.525,0,0,0-1.522,1.529l0.013,5.309a1.526,1.526,0,0,0,1.53,1.522l3.259-.009a1.285,1.285,0,0,1,1.195.851q0.173,0.456.375,0.9a1.283,1.283,0,0,1-.235,1.449l-2.3,2.309a1.527,1.527,0,0,0,0,2.158l3.762,3.746a1.525,1.525,0,0,0,2.157,0l2.318-2.327a1.259,1.259,0,0,1,1.389-.268c0.331,0.141.689,0.284,1,.4a1.254,1.254,0,0,1,.8,1.171l0.005,3.291a1.525,1.525,0,0,0,1.529,1.523l5.308-.009a1.525,1.525,0,0,0,1.523-1.528l-0.005-3.258a1.284,1.284,0,0,1,.851-1.194q0.456-.171.9-0.375a1.282,1.282,0,0,1,1.448.237l2.308,2.3a1.526,1.526,0,0,0,2.158,0l3.749-3.759a1.526,1.526,0,0,0,0-2.158l-2.325-2.319a1.261,1.261,0,0,1-.267-1.389C491.916,385.042,492.264,384.1,492.281,384.04Zm-21.127-5.524a7.523,7.523,0,1,1,4.684,8.369A7.523,7.523,0,0,1,471.154,378.517Z"/><rect class="cls-24" x="406.982" y="117.079" width="71.159" height="71.159" rx="2.612" ry="2.612"/><path class="cls-19" d="M423.923,154.78v0.1l9.638,3.16v5.361l-15.435-6.286v-4.644l15.435-6.286v5.342Z"/><path class="cls-19" d="M441,166.461h-5.954l8.678-27.6h5.954Z"/><path class="cls-19" d="M461.2,154.85v-0.1l-9.551-3.178v-5.343L467,152.51v4.644L451.65,163.44V158.1Z"/><circle id="_Path_44" data-name="&lt;Path&gt;" class="cls-11" cx="383.205" cy="279.623" r="22.248"/><g id="_Group_48" data-name="&lt;Group&gt;"><polygon id="_Path_45" data-name="&lt;Path&gt;" class="cls-19" points="380.264 288.638 372.535 280.909 376.95 276.494 380.264 279.808 389.46 270.607 393.875 275.023 380.264 288.638"/></g><g id="_Group_49" data-name="&lt;Group&gt;"><polygon id="_Path_46" data-name="&lt;Path&gt;" class="cls-159" points="755.825 553.182 749.182 544.385 762.467 544.385 755.825 553.182"/><polygon id="_Path_47" data-name="&lt;Path&gt;" class="cls-159" points="742.609 553.182 735.967 544.385 749.252 544.385 742.609 553.182"/><polygon id="_Path_48" data-name="&lt;Path&gt;" class="cls-159" points="749.216 575.635 729.394 553.089 769.04 553.089 749.216 575.635"/><polygon id="_Path_49" data-name="&lt;Path&gt;" class="cls-15" points="749.216 575.635 742.609 553.089 755.894 553.089 749.216 575.635"/><polygon id="_Path_50" data-name="&lt;Path&gt;" class="cls-15" points="735.967 544.385 729.394 553.089 742.54 553.089 735.967 544.385"/><polygon id="_Path_51" data-name="&lt;Path&gt;" class="cls-15" points="749.182 544.385 742.609 553.089 755.755 553.089 749.182 544.385"/><polygon id="_Path_52" data-name="&lt;Path&gt;" class="cls-15" points="762.467 544.385 755.894 553.089 769.04 553.089 762.467 544.385"/></g><g id="_Group_50" data-name="&lt;Group&gt;"><g id="_Group_51" data-name="&lt;Group&gt;"><path id="_Path_53" data-name="&lt;Path&gt;" class="cls-160" d="M852.242,703.778a10.057,10.057,0,0,0,9.868-8.118,0.279,0.279,0,0,1,.554,0c0.53,3.958.447,12.619-10.422,12.619v-4.5Z"/><path id="_Path_54" data-name="&lt;Path&gt;" class="cls-9" d="M788.833,700.523a12.193,12.193,0,0,0,0-24.385v24.385Z"/><rect id="_Rectangle_10" data-name="&lt;Rectangle&gt;" class="cls-160" x="792.008" y="728.317" width="17.991" height="17.162" rx="1" ry="1"/><rect id="_Rectangle_11" data-name="&lt;Rectangle&gt;" class="cls-160" x="824.816" y="724.842" width="17.991" height="20.637" rx="1" ry="1"/><ellipse id="_Path_55" data-name="&lt;Path&gt;" class="cls-9" cx="818.035" cy="708.276" rx="36.677" ry="30.796"/><g id="_Group_52" data-name="&lt;Group&gt;"><path id="_Path_56" data-name="&lt;Path&gt;" class="cls-161" d="M833.4,687.282a2.275,2.275,0,0,1-.76-0.132,41.228,41.228,0,0,0-27.034,0,2.268,2.268,0,1,1-1.519-4.274,45.783,45.783,0,0,1,30.072,0A2.269,2.269,0,0,1,833.4,687.282Z"/></g><path id="_Path_57" data-name="&lt;Path&gt;" class="cls-160" d="M818.035,730c-18.416,0-33.618-11.409-36.236-26.261a26.056,26.056,0,0,0-.441,4.535c0,17.008,16.421,30.8,36.677,30.8s36.678-13.788,36.678-30.8a26.03,26.03,0,0,0-.442-4.535C851.653,718.592,836.452,730,818.035,730Z"/><rect id="_Rectangle_12" data-name="&lt;Rectangle&gt;" class="cls-9" x="773.681" y="699.517" width="17.309" height="20.637" rx="1" ry="1" transform="translate(72.5 1492.171) rotate(-90)"/><path id="_Rectangle_13" data-name="&lt;Rectangle&gt;" class="cls-160" d="M779.721,707.829h3.64a0,0,0,0,1,0,0v17.137a1.016,1.016,0,0,1-1.016,1.016h-3.52a0,0,0,0,1,0,0V708.725A0.9,0.9,0,0,1,779.721,707.829Z" transform="translate(64.189 1497.998) rotate(-90)"/><path id="_Path_58" data-name="&lt;Path&gt;" class="cls-160" d="M776.25,703.3v13.758a2.117,2.117,0,0,1-2.117,2.117h0a2.117,2.117,0,0,1-2.117-2.117V703.3a2.117,2.117,0,0,1,2.117-2.117h0A2.117,2.117,0,0,1,776.25,703.3Z"/><ellipse id="_Path_59" data-name="&lt;Path&gt;" class="cls-9" cx="772.814" cy="710.177" rx="0.532" ry="2.513"/><ellipse id="_Path_60" data-name="&lt;Path&gt;" class="cls-9" cx="774.93" cy="710.177" rx="0.532" ry="2.513"/><ellipse id="_Path_61" data-name="&lt;Path&gt;" class="cls-161" cx="790.17" cy="697.622" rx="1.336" ry="2.206"/></g><path id="_Path_62" data-name="&lt;Path&gt;" class="cls-14" d="M834.049,680.571a42.863,42.863,0,0,0-30.362-.608A19.721,19.721,0,0,0,834.049,680.571Z"/><g id="_Group_53" data-name="&lt;Group&gt;"><circle id="_Path_63" data-name="&lt;Path&gt;" class="cls-74" cx="819.125" cy="665.378" r="19.761"/><circle id="_Path_64" data-name="&lt;Path&gt;" class="cls-162" cx="819.124" cy="665.378" r="17.601"/><circle id="_Path_65" data-name="&lt;Path&gt;" class="cls-74" cx="819.125" cy="665.378" r="15.535"/><g id="_Group_54" data-name="&lt;Group&gt;"><g id="_Group_55" data-name="&lt;Group&gt;"><path id="_Path_66" data-name="&lt;Path&gt;" class="cls-19" d="M821.149,673.3h-5.756a2.4,2.4,0,0,1-2.4-2.4v-1.23h3.418v0.214h4.74a1.654,1.654,0,0,0,1.652-1.652,1.076,1.076,0,0,0-1.075-1.076h-4.242a4.5,4.5,0,0,1-4.493-4.494v-0.616a5.076,5.076,0,0,1,5.07-5.071h5.756a2.4,2.4,0,0,1,2.4,2.4v1.4H822.8v-0.38h-4.739a1.655,1.655,0,0,0-1.652,1.654v0.616a1.076,1.076,0,0,0,1.075,1.076h4.242a4.5,4.5,0,0,1,4.492,4.494A5.076,5.076,0,0,1,821.149,673.3Z"/></g><g id="_Group_56" data-name="&lt;Group&gt;"><rect id="_Path_67" data-name="&lt;Path&gt;" class="cls-19" x="817.897" y="655.314" width="3.418" height="20.128"/></g></g></g></g></g></g></svg>